<svg xmlns="http://www.w3.org/2000/svg" viewBox="0 0 25 25">
  <defs>
    <style>
      .cls-1 {
        fill: #76706b;
      }
    </style>
  </defs>
  <path id="abacus" class="cls-1" d="M3,29V4H28V29ZM26,6H5v6H7.017c.149-1.12.746-1.959,1.462-1.959S9.793,10.88,9.941,12h1.071c.144-1.131.745-1.979,1.466-1.979S13.8,10.87,13.944,12h7.067c.144-1.131.745-1.979,1.466-1.979S23.8,10.87,23.944,12H26Zm0,7H23.95c-.134,1.151-.741,2.021-1.472,2.021S21.142,14.152,21.007,13H13.95c-.134,1.151-.741,2.021-1.471,2.021s-1.337-.87-1.471-2.021H9.951c-.129,1.161-.738,2.041-1.472,2.041S7.136,14.161,7.007,13H5v7h7.992c.144-1.131.746-1.979,1.466-1.979s1.323.849,1.467,1.979h1c.129-1.161.738-2.042,1.473-2.042s1.342.881,1.472,2.042h1.12c.139-1.142.744-2,1.47-2s1.331.858,1.47,2H26Zm0,8H23.928c-.139,1.141-.744,2-1.47,2s-1.331-.859-1.47-2h-1.13c-.149,1.119-.746,1.958-1.462,1.958S17.082,22.119,16.933,21h-1c-.134,1.151-.741,2.021-1.471,2.021S13.122,22.152,12.987,21H5v6H26V21Z" transform="translate(-3 -4)"/>
</svg>
