<svg xmlns="http://www.w3.org/2000/svg" viewBox="0 0 22 22">
  <defs>
    <style>
      .cls-1 {
        fill: #76706b;
      }
    </style>
  </defs>
  <path id="add" class="cls-1" d="M26.5,27h-3a.5.5,0,0,1,0-1H26V23.5a.5.5,0,0,1,1,0v3A.5.5,0,0,1,26.5,27Zm0-6a.5.5,0,0,1-.5-.5v-3a.5.5,0,0,1,1,0v3A.5.5,0,0,1,26.5,21Zm0-6a.5.5,0,0,1-.5-.5v-3a.5.5,0,0,1,1,0v3A.5.5,0,0,1,26.5,15Zm0-6a.5.5,0,0,1-.5-.5V6H23.5a.5.5,0,0,1,0-1h3a.5.5,0,0,1,.5.5v3A.5.5,0,0,1,26.5,9Zm-6,18h-3a.5.5,0,0,1,0-1h3a.5.5,0,0,1,0,1Zm0-21h-3a.5.5,0,0,1,0-1h3a.5.5,0,0,1,0,1Zm-.562,9a1,1,0,0,1,0,2h-3v3a1,1,0,0,1-2,0V17h-3a1,1,0,0,1,0-2h3V12a1,1,0,0,1,2,0v3ZM14.5,6h-3a.5.5,0,0,1,0-1h3a.5.5,0,0,1,0,1Zm-6,21h-3a.5.5,0,0,1-.5-.5v-3a.5.5,0,0,1,1,0V26H8.5a.5.5,0,0,1,0,1Zm0-21H6V8.5a.5.5,0,0,1-1,0v-3A.5.5,0,0,1,5.5,5h3a.5.5,0,0,1,0,1Zm-3,5a.5.5,0,0,1,.5.5v3a.5.5,0,0,1-1,0v-3A.5.5,0,0,1,5.5,11Zm0,6a.5.5,0,0,1,.5.5v3a.5.5,0,0,1-1,0v-3A.5.5,0,0,1,5.5,17Zm6,9h3a.5.5,0,0,1,0,1h-3a.5.5,0,0,1,0-1Z" transform="translate(-5 -5)"/>
</svg>
