<svg xmlns="http://www.w3.org/2000/svg" viewBox="0 0 26 26">
  <defs>
    <style>
      .cls-1 {
        fill: #76706b;
      }
    </style>
  </defs>
  <path id="addressbook" class="cls-1" d="M27,17.938v-3h2v3ZM27,11h2v3H27Zm0-4h2v3H27ZM24,29H6a2,2,0,0,1-2-2h.5a1.5,1.5,0,0,0,0-3H4V23h.5a1.5,1.5,0,0,0,0-3H4V19h.5a1.5,1.5,0,0,0,0-3H4V15h.5a1.5,1.5,0,0,0,0-3H4V11h.5a1.5,1.5,0,0,0,0-3H4V5A2,2,0,0,1,6,3H24a1.992,1.992,0,0,1,1.723,1H6A1,1,0,0,0,6,6H26V27A2,2,0,0,1,24,29ZM15.5,9.562c-1.208,0-2.188,1.287-2.188,2.875s.979,2.875,2.188,2.875,2.188-1.287,2.188-2.875S16.708,9.562,15.5,9.562Zm3.49,7.126a7.683,7.683,0,0,0-2.091-.6s-1.006,1.075-1.433,1.075-1.434-1.075-1.434-1.075a7.632,7.632,0,0,0-2.09.6c-.539.358-.777,2.261-.777,2.261H19.78s-.157-1.84-.79-2.261ZM5,9.5a.5.5,0,0,1-.5.5h-1a.5.5,0,0,1,0-1h1A.5.5,0,0,1,5,9.5ZM3.5,13h1a.5.5,0,0,1,0,1h-1a.5.5,0,0,1,0-1Zm0,4h1a.5.5,0,0,1,0,1h-1a.5.5,0,0,1,0-1Zm0,4h1a.5.5,0,0,1,0,1h-1a.5.5,0,0,1,0-1Zm0,4h1a.5.5,0,0,1,0,1h-1a.5.5,0,0,1,0-1Z" transform="translate(-3 -3)"/>
</svg>
