<svg xmlns="http://www.w3.org/2000/svg" viewBox="0 0 22.094 29.906">
  <defs>
    <style>
      .cls-1 {
        fill: #76706b;
      }
    </style>
  </defs>
  <path id="alarm" class="cls-1" d="M27.013,25.278V27.1H4.987V25.278s-.471-1.009,2.085-3.429S9.29,13.177,9.29,8.942s5.948-4.325,5.948-4.325h.2V3.929c0-.423-1.42-1.955-1.42-1.955L14,1.047h4.01l-.027.962S16.445,3.54,16.445,3.991v.625h.317s5.948.09,5.948,4.325S22.374,19.43,24.929,21.85,27.013,25.278,27.013,25.278Zm-8.5,2.792a2.855,2.855,0,0,1-2.506,2.883A2.855,2.855,0,0,1,13.5,28.07c0,.031,5.012-.032,5.012,0Z" transform="translate(-4.953 -1.047)"/>
</svg>
