<svg xmlns="http://www.w3.org/2000/svg" viewBox="0 0 27.184 29.14">
  <defs>
    <style>
      .cls-1 {
        fill: #76706b;
      }
    </style>
  </defs>
  <path id="alarmclock" class="cls-1" d="M27.229,14.775a12.218,12.218,0,0,0-8.891-7.659,5.9,5.9,0,1,1,8.891,7.659ZM15.864,4.8V8.515A10.612,10.612,0,0,1,23.933,25.5L26.4,29.765,24.35,30.948l-2.109-3.654a10.627,10.627,0,0,1-13.6.029L6.478,31.07,4.431,29.887l2.516-4.356a10.612,10.612,0,0,1,7.928-17.01V4.8a1.486,1.486,0,1,1,.989,0ZM7.153,19.129a8.273,8.273,0,1,0,8.273-8.272,8.272,8.272,0,0,0-8.273,8.272Zm10.753,1.789H14.937a.99.99,0,0,1-.99-.99V15.969a.99.99,0,1,1,1.979,0v2.969h1.979a.99.99,0,0,1,0,1.98ZM3.772,14.775a5.9,5.9,0,1,1,8.891-7.659,12.218,12.218,0,0,0-8.891,7.659Z" transform="translate(-1.908 -1.93)"/>
</svg>
