<svg xmlns="http://www.w3.org/2000/svg" viewBox="0 0 23.652 29.906">
  <defs>
    <style>
      .cls-1 {
        fill: #76706b;
      }
    </style>
  </defs>
  <path id="alarm-cancel" class="cls-1" d="M27.792,25.278V27.1H6.923L23.48,10.545c-.03,4.079-.021,9.176,2.228,11.305,2.555,2.42,2.084,3.428,2.084,3.428ZM4.174,26.98,25.439,5.716l.708.709L4.883,27.689l-.709-.709Zm3.678-5.13c2.555-2.42,2.219-8.672,2.219-12.908s5.948-4.325,5.948-4.325h.2V3.929c0-.423-1.42-1.955-1.42-1.955l-.021-.927h4.01l-.028.962S17.225,3.54,17.225,3.991v.625h.317s3.8.064,5.323,2.255L6.956,22.781c.249-.285.536-.591.9-.931Zm11.44,6.22a2.855,2.855,0,0,1-2.506,2.883,2.856,2.856,0,0,1-2.507-2.883C14.279,28.1,19.292,28.038,19.292,28.07Z" transform="translate(-4.174 -1.047)"/>
</svg>
