<svg xmlns="http://www.w3.org/2000/svg" viewBox="0 0 4.112 12.112">
  <defs>
    <style>
      .cls-1 {
        fill: #76706b;
      }
    </style>
  </defs>
  <path id="alert" class="cls-1" d="M14.611,18.856a1.773,1.773,0,0,0-.52,1.292,1.9,1.9,0,1,0,3.262-1.326,1.747,1.747,0,0,0-1.311-.571,1.9,1.9,0,0,0-1.431.6h0Zm-.22-8.068a2.974,2.974,0,0,0-.447,1.679,6.721,6.721,0,0,0,.276,1.8,8.693,8.693,0,0,0,.751,1.846q.642,1.168.994,1.169t.949-.914a7.281,7.281,0,0,0,.83-1.841,6.7,6.7,0,0,0,.312-1.93,2.852,2.852,0,0,0-.73-2.092A1.776,1.776,0,0,0,16,9.944a1.808,1.808,0,0,0-1.609.844h0Z" transform="translate(-13.944 -9.944)"/>
</svg>
