<svg xmlns="http://www.w3.org/2000/svg" viewBox="0 0 26.999 24.451">
  <defs>
    <style>
      .cls-1 {
        fill: #76706b;
      }
    </style>
  </defs>
  <path id="anchor" class="cls-1" d="M29,19.095l-1.136,7.729-2.3-2.23a15.487,15.487,0,0,1-10.1,3.633A16.048,16.048,0,0,1,5.3,24.72L3.2,26.755,2,19.1l7.893,1.162L7.718,22.369a11.431,11.431,0,0,0,6.3,2.5l-.007-12.609a4.376,4.376,0,0,1-2.994-4.105,4.512,4.512,0,0,1,9.02,0,4.377,4.377,0,0,1-3.074,4.129c.011,2.46.051,12.632,0,12.632,2.28,0,4.634-1.484,6.167-2.684L21.1,20.258,29,19.095ZM17.856,8.083a2.327,2.327,0,1,0-2.325,2.258A2.292,2.292,0,0,0,17.856,8.083Z" transform="translate(-2 -3.776)"/>
</svg>
