<svg xmlns="http://www.w3.org/2000/svg" viewBox="0 0 16 23.56">
  <defs>
    <style>
      .cls-1 {
        fill: #76706b;
      }
    </style>
  </defs>
  <path id="android" class="cls-1" d="M23,20a1,1,0,0,1-1-1V13a1,1,0,0,1,2,0v6A1,1,0,0,1,23,20ZM20,7.209A8.577,8.577,0,0,1,21,11H11a8.267,8.267,0,0,1,.969-3.824L10.086,5.293a.5.5,0,1,1,.707-.707l1.766,1.766A4.405,4.405,0,0,1,16,4.938a4.333,4.333,0,0,1,3.41,1.444l1.8-1.8a.5.5,0,0,1,.707.707L20,7.209ZM13.5,8a.5.5,0,1,0,.5.5A.5.5,0,0,0,13.5,8Zm5,0a.5.5,0,1,0,.5.5A.5.5,0,0,0,18.5,8ZM10,19a1,1,0,0,1-2,0V13a1,1,0,0,1,2,0Zm11,2a2.992,2.992,0,0,1-2,2.816V27a1,1,0,0,1-2,0V24H15v3a1,1,0,0,1-2,0V23.816A2.991,2.991,0,0,1,11,21V12H21Z" transform="translate(-8 -4.44)"/>
</svg>
