<svg xmlns="http://www.w3.org/2000/svg" viewBox="0 0 31.875 25.771">
  <defs>
    <style>
      .cls-1 {
        fill: #76706b;
      }
    </style>
  </defs>
  <path id="archive" class="cls-1" d="M13.07,5.2l-5.8-1.553a1,1,0,0,0-1.224.707L.1,26.572A1,1,0,0,0,.8,27.8l5.8,1.553a1,1,0,0,0,1.225-.707L13.778,6.427A1,1,0,0,0,13.07,5.2ZM7.78,24.943a3,3,0,1,1-2.121-3.674A3,3,0,0,1,7.78,24.943Zm1.149-4.286L3.134,19.1,6.239,7.513l5.8,1.554L8.929,20.657ZM18.938,23a1.5,1.5,0,1,0,1.5,1.5A1.5,1.5,0,0,0,18.938,23ZM10.811,9.773,6.946,8.738,6.688,9.7l3.864,1.035Zm-.778,2.9.26-.966L6.429,10.67l-.259.966ZM5.255,22.778a1.5,1.5,0,1,0,1.061,1.837A1.5,1.5,0,0,0,5.255,22.778ZM29.938,9h-4v1h4Zm0,4h-4v1h4Zm0-2h-4v1h4Zm-2,12a1.5,1.5,0,1,0,1.5,1.5A1.5,1.5,0,0,0,27.938,23Zm3-19h-6a1,1,0,0,0-1,1V28a1,1,0,0,0,1,1h6a1,1,0,0,0,1-1V5A1,1,0,0,0,30.938,4Zm-3,23.5a3,3,0,1,1,3-3A3,3,0,0,1,27.938,27.5Zm3-7.5h-6V8h6Zm-10-11h-4v1h4Zm0,4h-4v1h4Zm1-9h-6a1,1,0,0,0-1,1V28a1,1,0,0,0,1,1h6a1,1,0,0,0,1-1V5A1,1,0,0,0,21.938,4Zm-3,23.438a3,3,0,1,1,3-3A3,3,0,0,1,18.938,27.438Zm3-7.438h-6V8h6Zm-1-9h-4v1h4ZM5.652,13.567,9.515,14.6l.26-.966L5.911,12.6l-.259.966Z" transform="translate(-0.063 -3.615)"/>
</svg>
