<svg xmlns="http://www.w3.org/2000/svg" viewBox="0 0 22.991 26.008">
  <defs>
    <style>
      .cls-1 {
        fill: #76706b;
      }
    </style>
  </defs>
  <path id="atom" class="cls-1" d="M24.687,16.037c2.293,2.473,3.32,4.906,2.429,6.466s-3.481,1.877-6.738,1.114C19.4,26.876,17.824,29,16.037,29s-3.367-2.135-4.34-5.4c-3.293.785-5.916.47-6.812-1.1s.137-4,2.43-6.472c-2.337-2.5-3.389-4.96-2.49-6.532s3.548-1.887,6.864-1.087C12.663,5.137,14.247,3,16.038,3S19.407,5.13,20.38,8.4c3.285-.78,5.9-.464,6.8,1.1s-.157,4.039-2.492,6.538Zm-18.935-6c-.688,1.2.261,3.178,2.27,5.265a25.385,25.385,0,0,1,2.812-2.354,26.247,26.247,0,0,1,.59-3.56C8.617,8.671,6.443,8.832,5.752,10.041Zm4.969,4.32A24.552,24.552,0,0,0,8.755,16.02a24.719,24.719,0,0,0,1.97,1.67c-.03-.555-.051-1.116-.051-1.69,0-.556.018-1.1.047-1.639Zm.112,4.733A25.551,25.551,0,0,1,8.02,16.748c-1.973,2.068-2.889,4.019-2.207,5.213s2.838,1.368,5.62.662A25.581,25.581,0,0,1,10.833,19.094Zm9.256.741c-.446.293-.9.581-1.377.858s-.964.539-1.444.785a24.613,24.613,0,0,0,2.392.889C19.839,21.583,19.978,20.728,20.089,19.835ZM16.036,27.92c1.369,0,2.584-1.785,3.37-4.557a25.376,25.376,0,0,1-3.4-1.274,25.374,25.374,0,0,1-3.337,1.253c.784,2.779,2,4.578,3.366,4.578Zm-3.613-5.578a24.567,24.567,0,0,0,2.316-.858c-.482-.247-.967-.508-1.451-.79-.449-.263-.881-.533-1.3-.81A24.9,24.9,0,0,0,12.423,22.342Zm-.437-10.186c.441-.289.893-.573,1.362-.848s.926-.52,1.388-.758c-.8-.342-1.585-.644-2.331-.877C12.231,10.443,12.1,11.282,11.986,12.156Zm4.05-8.076c-1.373,0-2.594,1.8-3.379,4.594a25.462,25.462,0,0,1,3.336,1.267A25.085,25.085,0,0,1,19.4,8.657c-.784-2.777-2-4.577-3.366-4.577Zm3.615,5.575a24.569,24.569,0,0,0-2.4.891c.465.239.932.49,1.4.763.5.293.982.6,1.451.908A24.922,24.922,0,0,0,19.651,9.655ZM20.24,13.6c-.67-.466-1.378-.921-2.126-1.356-.716-.418-1.426-.783-2.128-1.124-.693.338-1.4.713-2.1,1.124s-1.394.849-2.035,1.291c-.062.8-.1,1.613-.1,2.462s.035,1.693.1,2.5c.627.431,1.289.852,1.981,1.256.736.429,1.466.8,2.188,1.152.713-.346,1.437-.729,2.162-1.152s1.4-.855,2.049-1.3c.061-.794.1-1.607.1-2.453,0-.822-.03-1.623-.087-2.4Zm5.947,8.357c.682-1.192-.242-3.14-2.211-5.2a25.512,25.512,0,0,1-2.736,2.281,26.019,26.019,0,0,1-.6,3.6C23.388,23.328,25.507,23.151,26.187,21.961ZM21.353,17.63c.689-.526,1.321-1.06,1.891-1.591a24,24,0,0,0-1.887-1.618c.025.519.043,1.044.043,1.579C21.4,16.554,21.381,17.1,21.353,17.63Zm4.894-7.589c-.686-1.2-2.83-1.369-5.6-.666a25.91,25.91,0,0,1,.61,3.641,25.2,25.2,0,0,1,2.728,2.3c2.013-2.091,2.957-4.068,2.267-5.274ZM16.2,18.062a2.152,2.152,0,1,1,2.13-2.152A2.141,2.141,0,0,1,16.2,18.062Z" transform="translate(-4.506 -2.996)"/>
</svg>
