<svg xmlns="http://www.w3.org/2000/svg" viewBox="0 0 23.762 21.262">
  <defs>
    <style>
      .cls-1 {
        fill: #76706b;
      }
    </style>
  </defs>
  <path id="auction" class="cls-1" d="M11.623,7.6l6.062,3.5a1,1,0,0,0,1-1.731l-6.062-3.5a1,1,0,1,0-1,1.731Zm5.563,4.366-6.062-3.5-3.5,6.062,6.062,3.5ZM6.123,17.129l6.062,3.5a1,1,0,0,0,1-1.731L7.123,15.4a1,1,0,1,0-1,1.731Zm20.889,2.822L15.936,14.134l-1,1.732,10.576,6.683a1.5,1.5,0,0,0,1.5-2.6ZM16.033,25a1,1,0,0,0-1-1h-9a1,1,0,0,0-1,1v1L4,25.979,4.033,27h13l.047-.958L16.1,26a8.012,8.012,0,0,1-.063-1Z" transform="translate(-4 -5.738)"/>
</svg>
