<svg xmlns="http://www.w3.org/2000/svg" viewBox="0 0 16.136 26.631">
  <defs>
    <style>
      .cls-1 {
        fill: #76706b;
      }
    </style>
  </defs>
  <path id="bag" class="cls-1" d="M17.891,9.805H14.1s-6.17,4.831-6.17,12.108,6.486,7.347,6.486,7.347a22.974,22.974,0,0,0,3.125,0c0,.062,6.525-.865,6.525-7.353S17.891,9.8,17.891,9.8ZM14.1,9.33h3.8V7.906H14.1V9.33Zm3.739-1.9,1.928-4.747A4.63,4.63,0,0,1,17.84,3.694c-.713,0-1.84-.979-1.84-.979a4.667,4.667,0,0,1-1.928.979A4.376,4.376,0,0,1,12.2,2.745l1.958,4.688H17.84Z" transform="translate(-7.931 -2.685)"/>
</svg>
