<svg xmlns="http://www.w3.org/2000/svg" viewBox="0 0 32 24">
  <defs>
    <style>
      .cls-1 {
        fill: #76706b;
      }
    </style>
  </defs>
  <path id="barcode2" class="cls-1" d="M23.807,19.4H22.049v.586h1.758Zm-6.559,1.758v.586h1.758v.586h.586V19.984h-.586v1.172H17.248Zm0,2.344H18.42v-.586H17.248Zm1.172-.586h.586v-.586H18.42Zm-1.172-2.93h-.586v1.172h.586ZM14,8H12V18h2Zm2,0H15V18h1Zm6.049,15.5h1.758v-.586H22.049Zm-3.043-4.1H17.248v.586h1.758Zm5.387,3.516v-2.93h-.586v2.93ZM25,8H24V18h1ZM12.448,22.328h-.586v.586h.586ZM20,8H18V18h2Zm2,0H21V18h1Zm-.537,14.914h.586v-2.93h-.586Zm-14.4.586h2.93v-.586H7.648v-.586H7.062Zm0-2.93h.586v-.586H7.062Zm1.172,1.172H9.406v-.586H8.234Zm4.8-.586v.586h1.172v-.586ZM7.648,19.4v.586H9.406V19.4H7.648ZM8,8H7V18H8ZM30,4H2A2,2,0,0,0,0,6V26a2,2,0,0,0,2,2H30a2,2,0,0,0,2-2V6A2,2,0,0,0,30,4Zm0,22H2V6H30ZM6,8H4V24H6ZM7.648,22.328h.586v-.586H7.648v.586Zm7.144-2.344h-.586v1.172h.586ZM12.448,19.4v.586h1.758V19.4ZM9.992,21.156V19.984H9.406v1.172Zm1.87-.586h.586v-.586h-.586ZM11,8H10V18h1Zm3.792,13.742h-.586v1.172h.586ZM14.206,23.5v-.586H12.448V23.5ZM28,8H26V24h2Z" transform="translate(0 -4)"/>
</svg>
