<svg xmlns="http://www.w3.org/2000/svg" viewBox="0 0 24.727 24.91">
  <defs>
    <style>
      .cls-1 {
        fill: #76706b;
      }
    </style>
  </defs>
  <path id="baseball" class="cls-1" d="M19.951,16A15.594,15.594,0,0,1,23.283,5.931a12.459,12.459,0,0,0-14.667,0S12.008,8.688,12.008,16c0,7.056-3.414,10.052-3.414,10.052a15.091,15.091,0,0,0,7.356,2.4,14.6,14.6,0,0,0,7.336-2.39S19.951,22.94,19.951,16ZM7.779,6.592s-4.143,2.525-4.143,9.45,4.189,9.19,4.189,9.19,3.053-2.267,3.053-9.19-3.1-9.45-3.1-9.45Zm16.342.187s-3.1,2.338-3.1,9.263,3.051,9.19,3.051,9.19,4.289-2.267,4.289-9.19-4.242-9.263-4.242-9.263Z" transform="translate(-3.636 -3.545)"/>
</svg>
