<svg xmlns="http://www.w3.org/2000/svg" viewBox="0 0 31 28.541">
  <defs>
    <style>
      .cls-1 {
        fill: #76706b;
      }
    </style>
  </defs>
  <path id="basket" class="cls-1" d="M0,14V11H3.75l7.531-7.532A1.454,1.454,0,0,1,11.188,3a1.5,1.5,0,1,1,1.5,1.5,1.463,1.463,0,0,1-.312-.063L5.812,11H25.166L18.641,4.421a1.43,1.43,0,0,1-.391.079A1.5,1.5,0,1,1,19.75,3a1.463,1.463,0,0,1-.088.433L27.229,11H31v3ZM24.869,28.9c-.293,1.172-1.1,1.107-1.1,1.107l-16.595.032c-.846,0-1.073-1.072-1.073-1.072L1.709,15.014l27.574-.026L24.869,28.9ZM10,17H9v5h1Zm0,6H9v5h1Zm2-6H11v5h1Zm0,6H11v5h1Zm2-6H13v5h1Zm0,6H13v5h1Zm2-6H15v5h1Zm0,6H15v5h1Zm2-6H17v5h1Zm0,6H17v5h1Zm2-6H19v5h1Zm0,6H19v5h1Zm2-6H21v5h1Zm0,6H21v5h1Z" transform="translate(0 -1.5)"/>
</svg>
