<svg xmlns="http://www.w3.org/2000/svg" viewBox="0 0 39 23.5">
  <defs>
    <style>
      .cls-1 {
        fill: #76706b;
      }
    </style>
  </defs>
  <path id="batman" class="cls-1" d="M19.5,4.25C8.73,4.25,0,9.511,0,16S8.73,27.75,19.5,27.75,39,22.489,39,16,30.27,4.25,19.5,4.25ZM30.555,23.53c0,.062,1.951-2.357.39-3.981-1.874-2.124-5.116,1.056-5.116,1.056C23.267,15.546,19.4,23.75,19.4,23.75s-3.348-7.731-6.221-3.047c.062,0-2.383-2.793-4.819-1.481-1.749,1.749,0,4.091,0,4.091C-.754,20.127-1.347,10.821,11.317,7.027c-3.576,4.481,6.59,10.649,5.84-.344l2.155,1.89s2.171-1.8,2.171-1.921c-.25,10.993,9.369,4.544,6.121.484,11.429,3.308,13.381,11.21,2.951,16.394Z" transform="translate(0 -4.25)"/>
</svg>
