<svg xmlns="http://www.w3.org/2000/svg" viewBox="0 0 10.998 24.978">
  <defs>
    <style>
      .cls-1 {
        fill: #76706b;
      }
    </style>
  </defs>
  <path id="battery5" class="cls-1" d="M19.011,28.989H11.99A1.987,1.987,0,0,1,10,27V7.987A1.988,1.988,0,0,1,11.99,6h1.057V5.5c0-.549.383-1.491.932-1.491h2.982c.549,0,.994.942.994,1.491V6h1.057A1.988,1.988,0,0,1,21,7.987V27A1.989,1.989,0,0,1,19.011,28.989ZM16.96,9.044h-.994V8.05h-.932v.994H14.04v.994h.994v.994h.932v-.994h.994ZM20,12.958h-9.01V27a.993.993,0,0,0,.994.994H19.01A.993.993,0,0,0,20,27V12.958ZM13.978,24.95h3.045v1.057H13.978V24.95Z" transform="translate(-10.002 -4.011)"/>
</svg>
