<svg xmlns="http://www.w3.org/2000/svg" viewBox="0 0 19 36"><defs><style>.a{fill:#76706b;}</style></defs><path class="a" d="M24,9H20V7h4a1,1,0,0,1,0,2ZM21,0a3,3,0,0,0-3-3H13a3,3,0,0,0-3,3V6H9V0a4,4,0,0,1,4-4h5a4,4,0,0,1,4,4V6H21ZM11,9H7A1,1,0,0,1,7,7h4Zm4.5,2.5A3.5,3.5,0,1,1,19,8,3.5,3.5,0,0,1,15.5,11.5Zm0-5.5a2,2,0,1,0,2,2A2,2,0,0,0,15.5,6Zm-3.388,4.106a3.977,3.977,0,0,0,6.776,0A4,4,0,0,1,22,14V24a3.991,3.991,0,0,1-3,3.858V22.437a3.5,3.5,0,0,0-7,0v5.421A3.99,3.99,0,0,1,9,24V14a4,4,0,0,1,3.112-3.894ZM15.5,20A2.5,2.5,0,0,1,18,22.5v7a2.5,2.5,0,0,1-5,0v-7A2.5,2.5,0,0,1,15.5,20Z" transform="translate(-6 4)"/></svg>