<svg xmlns="http://www.w3.org/2000/svg" viewBox="0 0 37.626 23.707">
  <defs>
    <style>
      .cls-1 {
        fill: #76706b;
      }
    </style>
  </defs>
  <path id="bike" class="cls-1" d="M30,28.2a7.623,7.623,0,0,1-3.143-14.57l-1.014-2.283.165.4-6.944,9.321v1.869h1.017v1.018H17.027V22.933h1.018V21.915l-2.877-.27A7.624,7.624,0,1,1,10.717,13.6l1.906-4.788L11.758,6.4H10.741c-.954,0-.7-1.017-.7-1.017s.063-.89.763-.89.7.636,1.843.636a16.958,16.958,0,0,1,2.669.317s.7.953-.635.953H12.775l.723,2.6H24.55L23.682,7.02h-.675V6h4.067V7.021h-2.3l2.977,6.26A7.627,7.627,0,1,1,30,28.2ZM7.627,13.96a6.61,6.61,0,1,0,6.53,7.58L8.863,21a1,1,0,0,1-.982.846,1.018,1.018,0,0,1,0-2.036.986.986,0,0,1,.339.07l2.121-5.33a6.611,6.611,0,0,0-2.714-.585Zm1.525,6.165,5.079.537c0-.031.005-.061.005-.092a6.6,6.6,0,0,0-3.077-5.581L9.152,20.125Zm3.925-10.043L11.534,14.03a7.614,7.614,0,0,1,3.719,6.541c0,.066-.008.133-.01.2l1.726.182-3.892-10.87Zm11.9-.686v.614H13.858l4.05,10.839L25.6,10.784ZM30,13.96a6.573,6.573,0,0,0-1.834.264l2.374,5.424a1,1,0,0,1,.858.984,1.018,1.018,0,1,1-1.746-.7l-2.384-5.372A6.6,6.6,0,1,0,30,13.96Z" transform="translate(0 -4.49)"/>
</svg>
