<svg xmlns="http://www.w3.org/2000/svg" viewBox="0 0 36.512 26.413">
  <defs>
    <style>
      .cls-1 {
        fill: #76706b;
      }
    </style>
  </defs>
  <path id="bomb" class="cls-1" d="M33.228,7.928l3.284.464-2.92,1.546,2.117,1.934-3.065-.387,1.9,3.945-3.8-2.862-3.139,3.79,1.46-4.717-4.6,2.475,3.211-3.48-.22-.856a7.178,7.178,0,0,1-3.379.822c-1.7,0-3.818-1.188-6.345-3.312,0,0-2.861-3.026-5.266-3.026-2.474,0-2.232,3.722-2.229,3.759h2.8v2.532a9.39,9.39,0,0,1,5.969,8.865,9.506,9.506,0,1,1-12.98-8.867V8.021h2.5c0-.019-.288-2.744,1.15-4.256A3.733,3.733,0,0,1,12.5,2.556c3.337,0,6.332,3.512,6.332,3.512q3.292,2.826,5.37,2.825a10.131,10.131,0,0,0,2.294-.549L24.687,6.922l3.139.231L25.418,3.441l3.941,2.784.438-2.63.729,2.4,2.92-3.48L32.789,6.38l3.357-.773L33.228,7.928Z" transform="translate(0 -2.513)"/>
</svg>
