<svg xmlns="http://www.w3.org/2000/svg" viewBox="0 0 27 23.812">
  <defs>
    <style>
      .cls-1 {
        fill: #76706b;
      }
    </style>
  </defs>
  <path id="book2" class="cls-1" d="M17,26s6.188-2.062,11,1.812V26A11.784,11.784,0,0,0,17,26ZM2,6V25.875a12.065,12.065,0,0,1,6.5-1.938A12.065,12.065,0,0,1,15,25.875V6.25A11.013,11.013,0,0,0,8.5,4,11.821,11.821,0,0,0,2,6ZM4,8H8v5H4Zm9,13H4V20h9Zm0-2H4V18h9Zm0-2H4V16h9Zm0-2H4V14h9ZM9,8h4V9H9Zm0,2h4v1H9Zm0,2h4v1H9ZM22.5,4A11.821,11.821,0,0,0,16,6V25.875a11.869,11.869,0,0,1,13,0V6.25A11.013,11.013,0,0,0,22.5,4ZM27,21H18V20h9Zm0-2H18V18h9Zm0-2H18V16h9Zm0-2H18V14h9Zm0-2H18V12h9Zm0-2H18V10h9Zm0-2H18V8h9ZM3,26v1.812C7.812,23.938,14,26,14,26A11.784,11.784,0,0,0,3,26Z" transform="translate(-2 -4)"/>
</svg>
