<svg xmlns="http://www.w3.org/2000/svg" viewBox="0 0 13.316 39.762">
  <defs>
    <style>
      .cls-1 {
        fill: #76706b;
      }
    </style>
  </defs>
  <path id="bowlingpin" class="cls-1" d="M18.908,6.338H13.16S9.342,13.5,9.342,19.653a44.632,44.632,0,0,0,1.4,8.685c1,3.966,1.7,3.656,5.475,3.656,3.475,0,4.463.313,5.247-3.652a54.2,54.2,0,0,0,1.191-8.688c0-6.7-3.75-13.316-3.75-13.316Zm-.236-4.5a22.485,22.485,0,0,0,.922-4.924c0-1.874-.951-4.672-3.5-4.672s-3.721,2.77-3.721,4.645a21.156,21.156,0,0,0,1.007,4.951h5.288Zm-.225,2.937V3.2h-4.9V4.77h4.9Z" transform="translate(-9.342 7.762)"/>
</svg>
