<svg xmlns="http://www.w3.org/2000/svg" viewBox="0 0 32.494 30.169">
  <defs>
    <style>
      .cls-1 {
        fill: #76706b;
      }
    </style>
  </defs>
  <path id="box" class="cls-1" d="M1.735,17.832l12.054,6.081,2.152-6.081L3.888,12.074,1.735,17.832Zm14.476,0,2.045,6.027L30.74,17.778l-2.422-5.7ZM-.247,7.212,3.9,12.055,15.95,5.921,12.022.916-.247,7.212Zm32.494.107-12-6.4-4.09,5.005,12.162,6.134,3.929-4.736ZM3.175,19.353l-.041,5.839,12.713,5.893V20.105l-1.816,4.736L3.175,19.353Zm13.116.752V31.084l12.674-5.893v-5.8l-10.99,5.46-1.684-4.747Z" transform="translate(0.247 -0.916)"/>
</svg>
