<svg xmlns="http://www.w3.org/2000/svg" viewBox="0 0 29.057 25.991">
  <defs>
    <style>
      .cls-1 {
        fill: #76706b;
      }
    </style>
  </defs>
  <path id="brush" class="cls-1" d="M27.555,8.42c-1.355,1.647-5.07,6.195-8.021,9.81l-3.747-3.8c3.389-3.016,7.584-6.744,9.1-8.079,2.7-2.377,5.062-3.791,5.576-3.213.322.32-.533,2.4-2.908,5.286ZM18.879,19.03c-1.143,1.4-2.127,2.6-2.729,3.343L11.714,18.05l3.3-2.939Zm-3.39,4.153v-.012c-2.575,9.88-14.018,4.2-14.018,4.2s4.8.6,4.8-3.873c0-4.341,4.412-4.733,4.683-4.753L15.5,23.172l-.009.011Z" transform="translate(-1.471 -3.005)"/>
</svg>
