<svg xmlns="http://www.w3.org/2000/svg" viewBox="0 0 33 28.025">
  <defs>
    <style>
      .cls-1 {
        fill: #76706b;
      }
    </style>
  </defs>
  <path id="bus" class="cls-1" d="M22,29.012a1,1,0,0,0,1,1h1a1,1,0,0,0,1-1V26.95H22Zm-14,0a1,1,0,0,0,1,1h1a1,1,0,0,0,1-1V26.95H8ZM4.985,25.729A1.216,1.216,0,0,0,6.2,26.944H26.8a1.216,1.216,0,0,0,1.215-1.215v-.715H4.985v.715ZM32,10.012v-2H28.01V6.924c0-2.431-2.489-4.937-11.974-4.937C7.7,1.987,4.985,4.493,4.985,6.924V8.012H1v2H0v4H1v2H4.985v7.974h23l.022-14.974H31v1H30v4h1v1H28v1h4v-2h1v-4H32Zm-27.015,5H2v-1H3v-4H2v-1H4.985ZM12.5,4.95h8a.5.5,0,0,1,0,1h-8a.5.5,0,0,1,0-1ZM7.041,9.229A1.215,1.215,0,0,1,8.256,8.014H14.77a1.215,1.215,0,0,1,1.215,1.215v3.583a1.215,1.215,0,0,1-1.215,1.216H8.256a1.215,1.215,0,0,1-1.215-1.216V9.229ZM8.988,21.738a1.822,1.822,0,1,1,1.823-1.822A1.822,1.822,0,0,1,8.988,21.738ZM12,17.012h9v1H12Zm9.032,4.931H12.026v-.965h9.006Zm0-1.992H12.026v-.965h9.006Zm2.976,1.85a1.822,1.822,0,1,1,1.823-1.822A1.822,1.822,0,0,1,24.008,21.8Zm2-8.989a1.215,1.215,0,0,1-1.216,1.216H18.227a1.215,1.215,0,0,1-1.216-1.216V9.229a1.215,1.215,0,0,1,1.216-1.215h6.562A1.215,1.215,0,0,1,26,9.229Z" transform="translate(0 -1.987)"/>
</svg>
