<svg xmlns="http://www.w3.org/2000/svg" viewBox="0 0 27 26">
  <defs>
    <style>
      .cls-1 {
        fill: #76706b;
      }
    </style>
  </defs>
  <path id="cake" class="cls-1" d="M25.5,9a4.034,4.034,0,0,0-.857.1A3.451,3.451,0,0,0,19.99,6.051,6.476,6.476,0,0,0,8.02,9.3a3.993,3.993,0,1,0-1.687,7.679l1.6-1.6L9.559,17h.758l1.621-1.622L13.559,17h.758l1.621-1.622L17.559,17h.758l1.621-1.622L21.559,17h.758l1.621-1.622,1.616,1.616A4,4,0,0,0,25.5,9ZM24,16.566,22.566,18H21.308l-1.371-1.371L18.566,18H17.308l-1.371-1.371L14.566,18H13.308l-1.371-1.371L10.566,18H9.309L7.938,16.629,6.566,18H6.5L9.15,29H22.775L25.5,18h-.066ZM11.5,28,9.417,19h1L12.5,28Zm2,0-1.062-9h1L14.5,28Zm3,0h-1V19h1Zm1,0,1.062-9h1L18.5,28Zm3,0h-1l2.062-9h1Z" transform="translate(-2.5 -3)"/>
</svg>
