<svg xmlns="http://www.w3.org/2000/svg" viewBox="0 0 28 28">
  <defs>
    <style>
      .cls-1 {
        fill: #76706b;
      }
    </style>
  </defs>
  <path id="calendar2" class="cls-1" d="M28,30H4a2,2,0,0,1-2-2V7A2,2,0,0,1,4,5H6V6a3,3,0,0,0,6,0V5h8V6a3,3,0,0,0,6,0V5h2a2,2,0,0,1,2,2V28A2,2,0,0,1,28,30Zm0-18H4V28H28ZM13.069,19.829a1.842,1.842,0,0,0,.3-.993q0-1.16-1.248-1.16a3.128,3.128,0,0,0-2.074.861V16.908a4.45,4.45,0,0,1,2.473-.709,2.918,2.918,0,0,1,2.013.647,2.227,2.227,0,0,1,.724,1.749,4.3,4.3,0,0,1-1.764,3.041L11.76,23.171v.035h3.41v1.535H9.639V23.3L12.047,21a6.691,6.691,0,0,0,1.022-1.168Zm6.768,3.337a1.011,1.011,0,0,0,.4-.85.965.965,0,0,0-.489-.867,2.535,2.535,0,0,0-1.345-.305h-.756V19.726h.7q1.641,0,1.641-1.09,0-1.026-1.26-1.025a2.878,2.878,0,0,0-1.641.545V16.644a4.528,4.528,0,0,1,2.062-.445,3.113,3.113,0,0,1,2.007.58,1.846,1.846,0,0,1,.718,1.506,1.957,1.957,0,0,1-1.67,2.062v.029a2.27,2.27,0,0,1,1.406.647,1.824,1.824,0,0,1,.516,1.315,2.254,2.254,0,0,1-.861,1.863,3.724,3.724,0,0,1-2.379.686,4.6,4.6,0,0,1-2.115-.422V22.854a3.253,3.253,0,0,0,1.969.615,1.761,1.761,0,0,0,1.1-.3ZM22.969,8A1.968,1.968,0,0,1,21,6.031V3.969a1.969,1.969,0,1,1,3.938,0V6.031A1.968,1.968,0,0,1,22.969,8Zm-14,0A1.968,1.968,0,0,1,7,6.031V3.969a1.969,1.969,0,1,1,3.938,0V6.031A1.969,1.969,0,0,1,8.969,8Z" transform="translate(-2 -2)"/>
</svg>
