<svg xmlns="http://www.w3.org/2000/svg" viewBox="0 0 24 30.985">
  <defs>
    <style>
      .cls-1 {
        fill: #76706b;
      }
    </style>
  </defs>
  <path id="camera3" class="cls-1" d="M27,17.047l-5-2V11.036l5-2a1,1,0,0,1,1,1v6.012A1,1,0,0,1,27,17.047Zm-9.5-7.014A4.509,4.509,0,1,1,22,5.524,4.5,4.5,0,0,1,17.5,10.033Zm-9,0A4.509,4.509,0,1,1,13,5.524,4.5,4.5,0,0,1,8.5,10.033Zm12.5,0v9.018H15.418a2.631,2.631,0,0,1-.957,1.955h.564l3.989,9H18.02l-1.33-3H14.03v5h-1V27h-2.7L8.98,30H7.985l4.052-9h.377a2.631,2.631,0,0,1-.957-1.955H5V10.033H21ZM13.032,21.316c-.041-.01-.079-.031-.119-.045L10.781,26h2.251Zm1-.072V26h2.217l-2.126-4.8c-.029.014-.059.023-.091.035Z" transform="translate(-4 -1.015)"/>
</svg>
