<svg xmlns="http://www.w3.org/2000/svg" viewBox="0 0 26 26">
  <defs>
    <style>
      .cls-1 {
        fill: #76706b;
      }
    </style>
  </defs>
  <path id="cancel" class="cls-1" d="M16,29A13,13,0,1,1,29,16,13,13,0,0,1,16,29Zm5.961-16.791a.626.626,0,0,0,0-.885L20.633,10a.626.626,0,0,0-.885,0l-3.761,3.761L12.226,10a.626.626,0,0,0-.885,0l-1.328,1.327a.626.626,0,0,0,0,.885l3.762,3.762-3.762,3.76a.626.626,0,0,0,0,.885l1.328,1.328a.626.626,0,0,0,.885,0l3.761-3.762,3.761,3.762a.626.626,0,0,0,.885,0l1.328-1.328a.626.626,0,0,0,0-.885L18.2,15.971l3.762-3.762Z" transform="translate(-3 -3)"/>
</svg>
