<svg xmlns="http://www.w3.org/2000/svg" viewBox="0 0 27 22">
  <defs>
    <style>
      .cls-1 {
        fill: #76706b;
      }
    </style>
  </defs>
  <path id="car" class="cls-1" d="M27,22H4a2,2,0,0,1-2-2V15a2,2,0,0,1,2-2H5S6.479,8.5,6.916,7s.9-2,2-2H22.083c1.1,0,1.438.312,2,2S26,13,26,13h1a2,2,0,0,1,2,2v5A2,2,0,0,1,27,22ZM9,20H22V19H9Zm13-7a2.111,2.111,0,0,0-2-2.125A2.111,2.111,0,0,0,18,13C18,13.026,22,13.026,22,13ZM9,18H22V17H9Zm0-2H22V15H9ZM4.062,17a2,2,0,1,0,2-2,2,2,0,0,0-2,2ZM23.083,7c-.25-.688-.447-1-1-1H16V7h.5a.5.5,0,0,1,0,1h-2a.5.5,0,0,1,0-1H15V6H8.917c-.553,0-.751.125-1,1S6,13,6,13H17.46a2.661,2.661,0,0,1,2.495-2.643A2.662,2.662,0,0,1,22.451,13H25s-1.667-5.312-1.917-6Zm1.855,8.062a2,2,0,1,0,2,2A2,2,0,0,0,24.938,15.062ZM7,25.5a1.5,1.5,0,0,1-3,0V23H7Zm20,0a1.5,1.5,0,0,1-3,0V23h3Z" transform="translate(-2 -5)"/>
</svg>
