<svg xmlns="http://www.w3.org/2000/svg" viewBox="0 0 31.041 24.031">
  <defs>
    <style>
      .cls-1 {
        fill: #76706b;
      }
    </style>
  </defs>
  <path id="cassette" class="cls-1" d="M28.017,28.016H25.952l-2-6.008H6.989l-2,6.008h-2a3.005,3.005,0,0,1-3-3V6.988a3,3,0,0,1,3-3H28.016a3,3,0,0,1,3,3V25.012a3,3,0,0,1-3,3ZM27.954,6.988H2.983V20.005H27.954V6.988ZM26.014,18H4.986V8.991H26.013V18ZM9.488,10.977a2.5,2.5,0,1,0,2.5,2.5A2.5,2.5,0,0,0,9.488,10.977ZM16.939,12.5H14v2h2.941Zm4.574-1.519a2.5,2.5,0,1,0,2.5,2.5A2.5,2.5,0,0,0,21.513,10.977ZM21.445,14.5a1,1,0,1,1,1-1A1,1,0,0,1,21.445,14.5Zm-11.89,0a1,1,0,1,1,1-1A1,1,0,0,1,9.555,14.5Zm13.7,8.511,1.753,4.965H5.925l1.689-4.965H23.26Zm-1.251,3h1v-1h-1Zm-2,0h1v-1h-1Zm-7.009,0h4.944v-1H13Zm-3,0h1v-1h-1Zm-2,0h1v-1h-1v1Z" transform="translate(0.021 -3.985)"/>
</svg>
