<svg xmlns="http://www.w3.org/2000/svg" viewBox="0 0 26.968 27.431">
  <defs>
    <style>
      .cls-1 {
        fill: #76706b;
      }
    </style>
  </defs>
  <path id="chart2" class="cls-1" d="M17,14.942s.1-11.986,0-11.986A11.649,11.649,0,0,1,28.984,14.942C28.984,14.98,17,14.942,17,14.942ZM27.986,17.4A12.985,12.985,0,1,1,15,4.417c.337,0,.668.024,1,.05V15.941H27.908A14.1,14.1,0,0,1,27.986,17.4ZM26.925,17H15V5.416A11.986,11.986,0,1,0,26.987,17.4C26.987,16.113,26.925,17,26.925,17Z" transform="translate(-2.016 -2.956)"/>
</svg>
