<svg xmlns="http://www.w3.org/2000/svg" viewBox="0 0 25.131 21.452">
  <defs>
    <style>
      .cls-1 {
        fill: #76706b;
      }
    </style>
  </defs>
  <path id="chat3" class="cls-1" d="M16,5.274c-6.939,0-12.565,4.187-12.565,9.352,0,3.1,2.032,5.854,5.16,7.555-.009.027-2.492,4.545-2.492,4.545s7.583-2.892,7.6-2.9A16.737,16.737,0,0,0,16,23.977c6.939,0,12.565-4.187,12.565-9.351S22.939,5.274,16,5.274ZM9.968,15.625a1,1,0,1,1,1-1A1,1,0,0,1,9.968,15.625Zm3.979.042a1,1,0,1,1,1-1A1,1,0,0,1,13.947,15.667Zm4.041,0a1,1,0,1,1,1-1A1,1,0,0,1,17.988,15.667Zm4,0a1,1,0,1,1,1-1A1,1,0,0,1,21.988,15.667Z" transform="translate(-3.435 -5.274)"/>
</svg>
