<svg xmlns="http://www.w3.org/2000/svg" viewBox="0 0 24.043 22.097">
  <defs>
    <style>
      .cls-1 {
        fill: #76706b;
      }
    </style>
  </defs>
  <path id="chat2" class="cls-1" d="M25.785,4.952H6.215A2.237,2.237,0,0,0,3.979,7.188V19.676a2.237,2.237,0,0,0,2.236,2.236H9.944v5.137l5.7-5.137H25.786a2.236,2.236,0,0,0,2.236-2.236V7.188a2.237,2.237,0,0,0-2.237-2.236ZM10,13.969a1,1,0,1,1,1-1A1,1,0,0,1,10,13.969Zm4-.042a1,1,0,1,1,1-1A1,1,0,0,1,14,13.927Zm4.02.021a1,1,0,1,1,1-1A1,1,0,0,1,18.02,13.948Zm3.98.021a1,1,0,1,1,1-1A1,1,0,0,1,22,13.969Z" transform="translate(-3.979 -4.952)"/>
</svg>
