<svg xmlns="http://www.w3.org/2000/svg" viewBox="0 0 30.002 25.103">
  <defs>
    <style>
      .cls-1 {
        fill: #76706b;
      }
    </style>
  </defs>
  <path id="chat" class="cls-1" d="M25.042,18.672V6.185a2.236,2.236,0,0,0-2.236-2.236H3.235A2.235,2.235,0,0,0,1,6.185V18.672a2.236,2.236,0,0,0,2.236,2.236H6.964v5.137l5.7-5.137H22.805A2.235,2.235,0,0,0,25.042,18.672Zm3.723-9.814h-2.8V19.767a2.569,2.569,0,0,1-2.153,2.142c-.937,0-10.945.055-10.945.055A2.036,2.036,0,0,0,15.1,23.95h4.309l5.622,5.1-.007-5.1h3.736A2.036,2.036,0,0,0,31,21.964V11.032a2.184,2.184,0,0,0-2.236-2.174Z" transform="translate(-0.999 -3.949)"/>
</svg>
