<svg xmlns="http://www.w3.org/2000/svg" viewBox="0 0 26 26">
  <defs>
    <style>
      .cls-1 {
        fill: #76706b;
      }
    </style>
  </defs>
  <path id="checkmark2" class="cls-1" d="M21.82,13.03l-1-1a.471.471,0,0,0-.668,0l-6.014,6.013-2.859-2.882a.474.474,0,0,0-.67,0l-1,1a.471.471,0,0,0,0,.668L13.8,21.053a.473.473,0,0,0,.668,0L21.82,13.7A.471.471,0,0,0,21.82,13.03ZM16,3A13,13,0,1,0,29,16,13,13,0,0,0,16,3Zm0,23A10,10,0,1,1,26,16,10,10,0,0,1,16,26Z" transform="translate(-3 -3)"/>
</svg>
