<svg xmlns="http://www.w3.org/2000/svg" viewBox="0 0 22 22">
  <defs>
    <style>
      .cls-1 {
        fill: #76706b;
      }
    </style>
  </defs>
  <path id="checked" class="cls-1" d="M26.5,27h-3a.5.5,0,0,1,0-1H26V23.5a.5.5,0,0,1,1,0v3A.5.5,0,0,1,26.5,27Zm0-6a.5.5,0,0,1-.5-.5v-3a.5.5,0,0,1,1,0v3A.5.5,0,0,1,26.5,21Zm0-6a.5.5,0,0,1-.5-.5v-3a.5.5,0,0,1,1,0v3A.5.5,0,0,1,26.5,15Zm0-6a.5.5,0,0,1-.5-.5V6H23.5a.5.5,0,0,1,0-1h3a.5.5,0,0,1,.5.5v3A.5.5,0,0,1,26.5,9ZM14.666,21.053a.471.471,0,0,1-.668,0l-1-1s0-.007,0-.009L9.805,16.83a.471.471,0,0,1,0-.668l1-1a.473.473,0,0,1,.669,0l2.86,2.881,6.014-6.013a.471.471,0,0,1,.668,0l1,1a.471.471,0,0,1,0,.669l-7.354,7.354ZM20.5,6h-3a.5.5,0,0,1,0-1h3a.5.5,0,0,1,0,1Zm-6,0h-3a.5.5,0,0,1,0-1h3a.5.5,0,0,1,0,1Zm-6,21h-3a.5.5,0,0,1-.5-.5v-3a.5.5,0,0,1,1,0V26H8.5a.5.5,0,0,1,0,1Zm0-21H6V8.5a.5.5,0,0,1-1,0v-3A.5.5,0,0,1,5.5,5h3a.5.5,0,0,1,0,1Zm-3,5a.5.5,0,0,1,.5.5v3a.5.5,0,0,1-1,0v-3A.5.5,0,0,1,5.5,11Zm0,6a.5.5,0,0,1,.5.5v3a.5.5,0,0,1-1,0v-3A.5.5,0,0,1,5.5,17Zm6,9h3a.5.5,0,0,1,0,1h-3a.5.5,0,0,1,0-1Zm6,0h3a.5.5,0,0,1,0,1h-3a.5.5,0,0,1,0-1Z" transform="translate(-5 -5)"/>
</svg>
