<svg xmlns="http://www.w3.org/2000/svg" viewBox="0 0 25.108 29.25">
  <defs>
    <style>
      .cls-1 {
        fill: #76706b;
      }
    </style>
  </defs>
  <path id="chronometer" class="cls-1" d="M28.054,18.571A12.554,12.554,0,1,1,14.873,6.05V3.884h-.941a1,1,0,1,1,0-2.009h3.012a1,1,0,1,1,0,2.009H15.878V6.037A12.544,12.544,0,0,1,28.054,18.571ZM14.873,9.909V7.618a11.032,11.032,0,0,0-7.766,3.858L8.76,13.129l-.71.711L6.485,12.274a10.958,10.958,0,0,0-2.032,6.359c0,.106.015.251.015.251H6.9v1H4.54a11.178,11.178,0,0,0,2.268,5.534L8.051,24.18l.71.71-1.3,1.3a11.007,11.007,0,0,0,7.408,3.462V26.92h1v2.742a11.008,11.008,0,0,0,7.6-3.41l-1.424-1.424.71-.71,1.377,1.376a11.192,11.192,0,0,0,2.322-5.6h-2.55v-1h2.621c0-.1.016-.145.016-.251a10.955,10.955,0,0,0-2.138-6.505l-1.648,1.648-.71-.71,1.726-1.725a11.018,11.018,0,0,0-7.9-3.737v2.3H14.873Zm1.066,8.976h3.516a.5.5,0,0,1,0,1.005H15.437a.5.5,0,0,1-.5-.5V12.42a.5.5,0,0,1,1,0v6.465Z" transform="translate(-2.946 -1.875)"/>
</svg>
