<svg xmlns="http://www.w3.org/2000/svg" viewBox="0 0 28 28">
  <defs>
    <style>
      .cls-1 {
        fill: #76706b;
      }
    </style>
  </defs>
  <path id="circle" class="cls-1" d="M28.857,18A12.991,12.991,0,0,1,18,29v1H14V29A12.992,12.992,0,0,1,3.142,18H2V14H3.188A13,13,0,0,1,14,3.336V2h4V3.336A13,13,0,0,1,28.812,14H30v4ZM15,29h2V27H15ZM3,15v2H5V15ZM17,3H15V5h2Zm1,1.852V6H14V4.852A11.5,11.5,0,0,0,4.708,14H6v4H4.654A11.5,11.5,0,0,0,14,27.481V26h4v1.481A11.5,11.5,0,0,0,27.346,18H26V14h1.292A11.505,11.505,0,0,0,18,4.852ZM29,15H27v2h2Z" transform="translate(-2 -2)"/>
</svg>
