<svg xmlns="http://www.w3.org/2000/svg" viewBox="0 0 22 31.083">
  <defs>
    <style>
      .cls-1 {
        fill: #76706b;
      }
    </style>
  </defs>
  <path id="clipboard" class="cls-1" d="M24,32.041H6a2,2,0,0,1-2-2V5.948A2,2,0,0,1,6,3.953h5V6.032H7a1,1,0,0,0-1,1V29.047a1,1,0,0,0,1,1H23a1,1,0,0,0,1-1V7.03a1,1,0,0,0-1-1H19V3.953h5a2,2,0,0,1,2,1.995v24.1A2,2,0,0,1,24,32.041ZM11,12.019H22v1H11Zm0,2.994H22v1H11Zm0,2.995H22v1H11ZM11,21H22v1H11Zm11,6.984H11v-1H22ZM11,24H22v1H11ZM8,12H9v1H8Zm0,2.994H9v1H8Zm0,2.993H9v1H8ZM8,20.98H9v1H8Zm1,6.987H8v-1H9ZM8,23.975H9v1H8ZM21,7.091a1,1,0,0,1,1,1v1.933H8V8.09a1,1,0,0,1,1-1h3s.012-1.419.012-3.041A3.032,3.032,0,0,1,15,.958a3.119,3.119,0,0,1,3.033,3.1c0,1.747-.033,3.031-.033,3.031h3ZM15,3.953a1,1,0,1,0,1,1,1,1,0,0,0-1-1Z" transform="translate(-4 -0.958)"/>
</svg>
