<svg xmlns="http://www.w3.org/2000/svg" viewBox="0 0 24.166 31.954">
  <defs>
    <style>
      .cls-1 {
        fill: #76706b;
      }
    </style>
  </defs>
  <path id="clipboard2" class="cls-1" d="M7.9,7.023V9.016H21.917V7.023a1,1,0,0,0-1-1h-2.99s.034-1.138.034-2.882a3.168,3.168,0,0,0-3.086-3.1A3.026,3.026,0,0,0,11.9,3.135c0,1.619-.012,2.891-.012,2.891H8.9A1,1,0,0,0,7.9,7.023Zm6.976-3.986a1,1,0,1,1-1,1A1,1,0,0,1,14.879,3.037Zm9.032,2.989v9.9a6.19,6.19,0,0,1,1.992-1.4V5.03a2.047,2.047,0,0,0-2.055-1.993H18.927V5.03h3.986a1,1,0,0,1,1,1ZM12.823,30.006H6.906a1,1,0,0,1-1-1V6.026a1,1,0,0,1,1-1h4.049V3.037H5.91A1.993,1.993,0,0,0,3.917,5.03V30.006A1.993,1.993,0,0,0,5.91,32h9.081A5.5,5.5,0,0,0,12.823,30.006Zm11.088-1a1,1,0,0,1-1,1H20.185c-.5.672-.975,1.34-1.41,1.994h5.074A2.048,2.048,0,0,0,25.9,30.006V23.877a26.013,26.013,0,0,0-1.992,1.83v3.3Zm4.172-8.084c-1.123-2.5-.48-4.523-.32-6.863-6.579,3.275-10.751,13.1-10.751,13.1L14.445,22.33l-5.3,3.119c2.247.779,5.456,3.275,8.184,6.551,1.924-3.432,7.861-10.449,10.749-11.074Z" transform="translate(-3.917 -0.046)"/>
</svg>
