<svg xmlns="http://www.w3.org/2000/svg" viewBox="0 0 35.199 20.374">
  <defs>
    <style>
      .cls-1 {
        fill: #76706b;
      }
    </style>
  </defs>
  <path id="cloudy2" class="cls-1" d="M21.254,17.031s.479-6.444-5.427-7.179a6.292,6.292,0,0,0-6.6,4.187,3.012,3.012,0,0,0-3.592-.269A3.355,3.355,0,0,0,4.11,17,5.137,5.137,0,0,0,0,21.994c.113,4.256,4.437,4.15,4.437,4.15l16.173.043a4.66,4.66,0,0,0,4.576-3.943,4.972,4.972,0,0,0-3.932-5.213Zm10-4s.479-6.444-5.426-7.18c-5.062-.517-6.664,4.249-6.664,4.249s2.949,1.711,3.074,6.336c1.875.563,3.873,2.11,3.936,5.735l4.436.016a4.66,4.66,0,0,0,4.576-3.943,4.969,4.969,0,0,0-3.932-5.213Z" transform="translate(0 -5.813)"/>
</svg>
