<svg xmlns="http://www.w3.org/2000/svg" viewBox="0 0 28.134 25.262">
  <defs>
    <style>
      .cls-1 {
        fill: #76706b;
      }
    </style>
  </defs>
  <path id="coffee" class="cls-1" d="M29.984,15.548c-.378-3.639-4.063-3.618-5.977-3.553.009-.553.015-1,.015-1L1.995,10.989v3.089a11.012,11.012,0,0,0,6.011,9.809v1.068H18.025V23.887a11.079,11.079,0,0,0,2.691-1.961c4.915-1.176,10.07-2.873,9.268-6.378ZM22.25,20.066a10.931,10.931,0,0,0,1.786-5.988c0,.017,0-.029,0-.116,1.785-.059,3.755-.237,4.2,1.54C28.687,17.457,25.422,19.049,22.25,20.066ZM8.83,6.99c0,1-1.64,2.065-1.64,2.065S10.4,8.481,10.4,6.981s-3.187-.5-3.187-1.625,1.577-2.19,1.577-2.19-3.025.637-3.025,2.2S8.83,5.99,8.83,6.99Zm5,1c0,1-1.64,2.065-1.64,2.065S15.4,9.481,15.4,7.981s-3.187-.5-3.187-1.625,1.577-2.19,1.577-2.19-3.026.637-3.026,2.2S13.83,6.99,13.83,7.99Zm4-1c0,1-1.64,2.065-1.64,2.065S19.4,8.481,19.4,6.981s-3.187-.5-3.187-1.625,1.577-2.19,1.577-2.19-3.026.637-3.026,2.2S17.83,5.99,17.83,6.99ZM1.933,25.928c0,1.381,4.925,2.5,11,2.5s11-1.119,11-2.5c0,.029-22,.029-22,0Z" transform="translate(-1.933 -3.166)"/>
</svg>
