<svg xmlns="http://www.w3.org/2000/svg" viewBox="0 0 25.001 25">
  <defs>
    <style>
      .cls-1 {
        fill: #76706b;
      }
    </style>
  </defs>
  <path id="cog" class="cls-1" d="M26,19.068H24.671a9.423,9.423,0,0,1-.918,2.2l1.224,1.223a2.006,2.006,0,0,1,0,2.836l-.709.709a2.006,2.006,0,0,1-2.836,0L20.2,24.808a9.437,9.437,0,0,1-2.194.9v1.284A2,2,0,0,1,16,29H15a2.006,2.006,0,0,1-2.006-2.005V25.711a9.5,9.5,0,0,1-2.194-.9L9.568,26.039a2,2,0,0,1-2.835,0l-.71-.709a2.006,2.006,0,0,1,0-2.836l1.224-1.223a9.486,9.486,0,0,1-.919-2.2H5a2,2,0,0,1-2.005-2v-1A2,2,0,0,1,5,14.056H6.313A9.413,9.413,0,0,1,7.2,11.87L6.023,10.694a2.006,2.006,0,0,1,0-2.836l.709-.708a2,2,0,0,1,2.835,0L10.72,8.3a9.445,9.445,0,0,1,2.272-.95V6A2.007,2.007,0,0,1,15,4h1A2,2,0,0,1,18.006,6V7.352a9.437,9.437,0,0,1,2.272.951L21.431,7.15a2.006,2.006,0,0,1,2.836,0l.709.708a2.006,2.006,0,0,1,0,2.836L23.8,11.87a9.449,9.449,0,0,1,.888,2.187H26a2.005,2.005,0,0,1,2,2.005v1a2.005,2.005,0,0,1-2.006,2ZM15.5,11.08a5.514,5.514,0,1,0,5.514,5.514A5.514,5.514,0,0,0,15.5,11.08Zm0,7.957a2.506,2.506,0,1,1,2.506-2.506A2.506,2.506,0,0,1,15.5,19.037Z" transform="translate(-3 -4)"/>
</svg>
