<svg xmlns="http://www.w3.org/2000/svg" viewBox="0 0 26 26">
  <defs>
    <style>
      .cls-1 {
        fill: #76706b;
      }
    </style>
  </defs>
  <path id="cog2" class="cls-1" d="M26.573,14.5H28.5v3H26.573a10.935,10.935,0,0,1-.734,2.737l1.669.964-1.5,2.6-1.7-.98A11.032,11.032,0,0,1,22.3,24.777l1,1.731-2.6,1.5L19.68,26.241A10.9,10.9,0,0,1,17,26.914V29H14V26.857a10.944,10.944,0,0,1-2.614-.731L10.3,28.008l-2.6-1.5L8.813,24.58a11.055,11.055,0,0,1-1.862-1.913L4.99,23.8l-1.5-2.6,1.979-1.143A11,11,0,0,1,4.8,17.5H2.5v-3H4.8A10.972,10.972,0,0,1,5.47,11.94L3.491,10.8l1.5-2.6L6.952,9.331A11.1,11.1,0,0,1,8.814,7.417L7.7,5.492l2.6-1.5,1.087,1.882A10.9,10.9,0,0,1,14,5.143V3h3V5.085a10.9,10.9,0,0,1,2.681.673L20.7,3.991l2.6,1.5-1,1.732a11.032,11.032,0,0,1,2.011,1.958l1.7-.98,1.5,2.6-1.669.964a10.976,10.976,0,0,1,.733,2.737ZM15.491,9.491a6.5,6.5,0,1,0,6.5,6.5,6.5,6.5,0,0,0-6.5-6.5ZM15.5,18.5A2.5,2.5,0,1,1,18,16,2.5,2.5,0,0,1,15.5,18.5Z" transform="translate(-2.5 -3)"/>
</svg>
