<svg xmlns="http://www.w3.org/2000/svg" viewBox="0 0 31.121 36.126">
  <defs>
    <style>
      .cls-1 {
        fill: #76706b;
      }
    </style>
  </defs>
  <path id="cogs" class="cls-1" d="M21.268,22.039l.709-.709a2.006,2.006,0,0,0,0-2.836l-1.224-1.223a9.483,9.483,0,0,0,.918-2.2h1.324a2.005,2.005,0,0,0,2-2.005v-1a2,2,0,0,0-2.005-2.005H21.687A9.457,9.457,0,0,0,20.8,7.87l1.177-1.176a2.006,2.006,0,0,0,0-2.836l-.709-.708a2.006,2.006,0,0,0-2.836,0L17.279,4.3a9.454,9.454,0,0,0-2.272-.951V2.005A2.006,2.006,0,0,0,13,0H12A2.006,2.006,0,0,0,9.993,2.005V3.352A9.471,9.471,0,0,0,7.721,4.3L6.567,3.149a2,2,0,0,0-2.835,0l-.709.708a2.006,2.006,0,0,0,0,2.836L4.2,7.87a9.447,9.447,0,0,0-.887,2.187H2A2,2,0,0,0,0,12.062v1A2,2,0,0,0,2,15.069H3.328a9.486,9.486,0,0,0,.919,2.2L3.023,18.495a2.006,2.006,0,0,0,0,2.836l.709.709a2,2,0,0,0,2.835,0L7.8,20.809a9.455,9.455,0,0,0,2.194.9V23A2.006,2.006,0,0,0,12,25h1A2.005,2.005,0,0,0,15,23V21.712a9.462,9.462,0,0,0,2.194-.9L18.43,22.04a2.009,2.009,0,0,0,2.838,0ZM12.5,18.107a5.514,5.514,0,1,1,5.514-5.514A5.514,5.514,0,0,1,12.5,18.107Zm0-8.082a2.506,2.506,0,1,0,2.506,2.506A2.506,2.506,0,0,0,12.5,10.025ZM25.062,28.862a1.215,1.215,0,1,0,1.216,1.216A1.215,1.215,0,0,0,25.062,28.862Zm5.09.015h-.634a4.623,4.623,0,0,0-.431-1.061l.57-.57a.972.972,0,0,0,0-1.375l-.344-.344a.972.972,0,0,0-1.375,0l-.56.559a4.619,4.619,0,0,0-1.1-.461v-.652A.973.973,0,0,0,25.3,24h-.486a.973.973,0,0,0-.973.973v.652a4.6,4.6,0,0,0-1.1.461l-.56-.559a.972.972,0,0,0-1.375,0l-.344.344a.972.972,0,0,0,0,1.375l.57.57a4.56,4.56,0,0,0-.431,1.061h-.634A.973.973,0,0,0,19,29.85v.486a.973.973,0,0,0,.973.973h.642a4.607,4.607,0,0,0,.445,1.068l-.593.593a.973.973,0,0,0,0,1.376l.344.344a.974.974,0,0,0,1.375,0l.6-.6a4.6,4.6,0,0,0,1.064.438v.623a.973.973,0,0,0,.973.973H25.3a.973.973,0,0,0,.973-.973V34.53a4.533,4.533,0,0,0,1.063-.438l.6.6a.974.974,0,0,0,1.375,0l.344-.344a.973.973,0,0,0,0-1.376l-.593-.593a4.651,4.651,0,0,0,.445-1.068h.642a.973.973,0,0,0,.973-.973V29.85a.967.967,0,0,0-.969-.973Zm-5.09,3.905a2.674,2.674,0,1,1,2.674-2.675A2.674,2.674,0,0,1,25.062,32.782Z"/>
</svg>
