<svg xmlns="http://www.w3.org/2000/svg" viewBox="0 0 21.252 21.392">
  <defs>
    <style>
      .cls-1 {
        fill: #76706b;
      }
    </style>
  </defs>
  <path id="collapse" class="cls-1" d="M11.493,8.757,8.039,5.3,5.374,7.969l3.454,3.453-2.59,2.59,7.8,0-.017-7.784L11.493,8.757Zm11.679,2.665,3.454-3.453L23.961,5.3,20.507,8.757,17.982,6.232l-.017,7.784,7.8,0ZM8.828,20.578,5.374,24.031,8.039,26.7l3.454-3.453,2.526,2.525.017-7.784-7.8,0Zm16.934-2.59-7.8,0,.017,7.784,2.525-2.525L23.961,26.7l2.665-2.665-3.454-3.453,2.59-2.59Z" transform="translate(-5.374 -5.304)"/>
</svg>
