<svg xmlns="http://www.w3.org/2000/svg" viewBox="0 0 34.385 24.373">
  <defs>
    <style>
      .cls-1 {
        fill: #76706b;
      }
    </style>
  </defs>
  <path id="comments" class="cls-1" d="M25.132,13.165c0-5.165-5.627-9.352-12.566-9.352S0,8,0,13.165c0,3.1,2.032,5.854,5.16,7.555-.009.027-2.492,4.545-2.492,4.545s7.582-2.892,7.6-2.9a16.741,16.741,0,0,0,2.3.155c6.939,0,12.566-4.187,12.566-9.351Zm9.253,2.922c0-5.164-5.3-9.314-11.031-9.351,8.22,8.188-1.461,16.912-9.351,16.912,0,0,.877,1.79,7.816,1.79a16.911,16.911,0,0,0,2.3-.156c.021.014,7.6,2.9,7.6,2.9s-2.484-4.517-2.492-4.544c3.127-1.7,5.159-4.452,5.159-7.555Z" transform="translate(0 -3.813)"/>
</svg>
