<svg xmlns="http://www.w3.org/2000/svg" viewBox="0 0 26 30.438">
  <defs>
    <style>
      .cls-1 {
        fill: #76706b;
      }
    </style>
  </defs>
  <path id="compass" class="cls-1" d="M29,18.5A13,13,0,1,1,13.515,5.743a3,3,0,1,1,4.969,0A13,13,0,0,1,29,18.5ZM16,2.5A1.5,1.5,0,1,0,17.5,4,1.5,1.5,0,0,0,16,2.5Zm1,5.05V10H15V7.55A11.113,11.113,0,0,0,5.026,18.063H8V20H5.1A10.932,10.932,0,0,0,15,29.449V27h2v2.449A10.993,10.993,0,0,0,26.886,20H24V18h2.976A10.99,10.99,0,0,0,17,7.55ZM9.513,25.162l3.918-8.868,8.81-3.859L18.4,21.229,9.513,25.162Zm7.807-7.808a2,2,0,1,0,0,2.828A2,2,0,0,0,17.32,17.354Z" transform="translate(-3 -1.062)"/>
</svg>
