<svg xmlns="http://www.w3.org/2000/svg" viewBox="0 0 22.048 25.981">
  <defs>
    <style>
      .cls-1 {
        fill: #76706b;
      }
    </style>
  </defs>
  <path id="cone" class="cls-1" d="M27.023,28.99H4.976l.015-1.9,2.56-2.207a32.333,32.333,0,0,0,8.438,1.52,33.963,33.963,0,0,0,8.523-1.52l2.512,2.18V28.99ZM8.183,24.119l1.6-5.076H22.2l1.6,5.076a36.08,36.08,0,0,1-7.77,1.441,38.106,38.106,0,0,1-7.843-1.441Zm2.547-8.082,1.6-5.075h7.322l1.6,5.075H10.73Zm4.1-13.028h2.31L18.7,7.954H13.276l1.558-4.945Z" transform="translate(-4.976 -3.009)"/>
</svg>
