<svg xmlns="http://www.w3.org/2000/svg" viewBox="0 0 28.371 28.368">
  <defs>
    <style>
      .cls-1 {
        fill: #76706b;
      }
    </style>
  </defs>
  <path id="cord" class="cls-1" d="M26.917,18.518,13.482,5.083A1.5,1.5,0,1,1,15.6,2.962l3.182,3.182,3.89-3.889A1.5,1.5,0,0,1,24.8,4.376L20.907,8.265l2.828,2.828L27.624,7.2a1.5,1.5,0,1,1,2.122,2.121l-3.89,3.89L29.039,16.4a1.5,1.5,0,1,1-2.122,2.121Zm-6.01,5.3c-1.3,1.3-7.071,1.414-7.071,1.414L6.765,18.164s.118-5.774,1.414-7.071l4.95-4.949L25.857,18.872s-3.654,3.652-4.95,4.949ZM6.765,19.578l5.657,5.657a1,1,0,0,1-1.415,1.414L5.351,20.992a1,1,0,0,1,1.414-1.414Zm2.828,7.071L8.532,27.71a1.5,1.5,0,0,1-2.121,0l-.354-.354L3.228,30.184,1.814,28.77l2.829-2.828-.353-.353a1.5,1.5,0,0,1,0-2.122,13.539,13.539,0,0,1,1.119-1l4.184,4.183Z" transform="translate(-1.814 -1.816)"/>
</svg>
