<svg xmlns="http://www.w3.org/2000/svg" viewBox="0 0 24 26">
  <defs>
    <style>
      .cls-1 {
        fill: #76706b;
      }
    </style>
  </defs>
  <path id="davidstar" class="cls-1" d="M16,6.96,17.873,10H14.128L16,6.96Zm8.8,14.3H21.074l1.853-3.018Zm-17.6,0,1.872-3.018,1.853,3.018ZM11.994,23,16,29.5,20.007,23H28l-4.006-6.49L28,10H20.007L16,3.5,11.994,10H4l4.007,6.51L4,23h7.994ZM24.8,11.736l-1.872,3.035-1.853-3.035ZM16,26.039,14.128,23h3.745L16,26.039ZM10.141,16.51l2.92-4.774H18.94l2.921,4.774-2.939,4.754h-5.86L10.141,16.51ZM7.2,11.736h3.725L9.074,14.771,7.2,11.736Z" transform="translate(-4 -3.5)"/>
</svg>
