<svg xmlns="http://www.w3.org/2000/svg" viewBox="0 0 45 23.661">
  <defs>
    <style>
      .cls-1 {
        fill: #76706b;
      }
    </style>
  </defs>
  <path id="dglasses" class="cls-1" d="M13.428,8.05c1.715,0,2.144.857,3.286.714s.143-2.143-.857-3.571-3.285-.714-5,.286S.036,12.015.036,12.015H8S11.714,8.05,13.428,8.05ZM0,13.049v13a2,2,0,0,0,2,2H18.083c1.5,0,2.875-4.667,4.417-4.667,1.339,0,2.346,4.667,3.666,4.667H43a2,2,0,0,0,2-2v-13Zm18,9a3,3,0,0,1-3,3H6a3,3,0,0,1-3-3v-3a3,3,0,0,1,3-3h9a3,3,0,0,1,3,3Zm24,0a3,3,0,0,1-3,3H30a3,3,0,0,1-3-3v-3a3,3,0,0,1,3-3h9a3,3,0,0,1,3,3ZM28.285,8.764c1.143.143,1.571-.714,3.286-.714S37,12.014,37,12.014h7.964S35.857,6.478,34.143,5.478s-4-1.714-5-.286-2,3.429-.858,3.572Z" transform="translate(0 -4.388)"/>
</svg>
