<svg xmlns="http://www.w3.org/2000/svg" viewBox="0 0 31.124 15.936">
  <defs>
    <style>
      .cls-1 {
        fill: #76706b;
      }
    </style>
  </defs>
  <path id="discout" class="cls-1" d="M31.062,16a4.9,4.9,0,0,1-3.05,4.642v2.33a1,1,0,0,1-1,1H3.984a1,1,0,0,1-1-1v-2.33A4.9,4.9,0,0,1-.062,16a4.9,4.9,0,0,1,3.051-4.642V9.028a1,1,0,0,1,1-1H27.018a1,1,0,0,1,1,1v2.33A4.9,4.9,0,0,1,31.062,16Zm-19.11,0H7.968v1h3.984Zm4.73-3.4a1.67,1.67,0,0,0-2.308,0,2.057,2.057,0,0,0-.422,1.422,2.067,2.067,0,0,0,.422,1.427,1.119,1.119,0,0,0,.979.462,1.918,1.918,0,0,0,1.33-.462,2.072,2.072,0,0,0,.421-1.427A2.065,2.065,0,0,0,16.682,12.6Zm3.388-.619-5.11,8.022h1.012l5.085-8.022Zm1.591,4.6a1.673,1.673,0,0,0-2.309,0,2.063,2.063,0,0,0-.42,1.422,2.071,2.071,0,0,0,.42,1.427,1.5,1.5,0,0,0,1.168.463,1.467,1.467,0,0,0,1.142-.463,2.071,2.071,0,0,0,.421-1.427,2.068,2.068,0,0,0-.422-1.422ZM20.5,19.128a.385.385,0,0,1-.337-.181A1.838,1.838,0,0,1,20,18.011a1.864,1.864,0,0,1,.161-.94.381.381,0,0,1,.337-.177.393.393,0,0,1,.342.177,1.914,1.914,0,0,1,.156.94,1.866,1.866,0,0,1-.161.94.379.379,0,0,1-.337.177Zm-4.979-3.983a.384.384,0,0,1-.337-.182,1.838,1.838,0,0,1-.161-.936,1.864,1.864,0,0,1,.161-.94.381.381,0,0,1,.337-.176.394.394,0,0,1,.342.176,1.914,1.914,0,0,1,.156.94,1.866,1.866,0,0,1-.161.94A.382.382,0,0,1,15.516,15.145Z" transform="translate(0.062 -8.032)"/>
</svg>
