<svg xmlns="http://www.w3.org/2000/svg" viewBox="0 0 38 24.04">
  <defs>
    <style>
      .cls-1 {
        fill: #76706b;
      }
    </style>
  </defs>
  <path id="dollar2" class="cls-1" d="M36,23.01l.057-17.089L5.009,5.94V3.98H38V23.011Zm-1.007,3.007-2,0,.057-17.089L2,8.946V6.986H35V26.017Zm-2.942,2H0V9.99H32.053Zm-2-16.089H2V26.017H30.048V11.931Zm-3,12.584a1.465,1.465,0,0,0,.1.5H16.026c2.766,0,5.009-2.69,5.009-6.01s-2.243-6.01-5.009-6.01H27.145a1.466,1.466,0,0,0-.1.5,1.5,1.5,0,0,0,1.5,1.5,1.466,1.466,0,0,0,.5-.1v8.215a1.467,1.467,0,0,0-2,1.4Zm-2-7.6c-.83,0-1.5.9-1.5,2s.672,2,1.5,2,1.5-.9,1.5-2S25.871,16.919,25.041,16.919Zm-6.918-1.525a.466.466,0,0,1,.037.116,1.027,1.027,0,0,1,.021.182c0,.073.007.164.007.273s0,.224-.009.307a1.394,1.394,0,0,1-.031.207.259.259,0,0,1-.062.119.156.156,0,0,1-.11.038.529.529,0,0,1-.219-.087c-.1-.059-.224-.121-.369-.189a3.531,3.531,0,0,0-.507-.187,2.247,2.247,0,0,0-.632-.084,1.5,1.5,0,0,0-.469.065.966.966,0,0,0-.335.181.72.72,0,0,0-.2.277.9.9,0,0,0-.066.343.76.76,0,0,0,.147.467,1.384,1.384,0,0,0,.4.35,4.233,4.233,0,0,0,.56.288q.312.135.638.284a6.354,6.354,0,0,1,.639.342,2.536,2.536,0,0,1,.557.456,2.13,2.13,0,0,1,.4.626,2.193,2.193,0,0,1,.15.848,2.5,2.5,0,0,1-.238,1.119,2.314,2.314,0,0,1-.645.805,2.8,2.8,0,0,1-.951.484c-.046.014-.1.02-.143.031v1.094H15.7v-.965c-.013,0-.024,0-.037,0a4.231,4.231,0,0,1-.779-.068,4.516,4.516,0,0,1-.635-.164,2.79,2.79,0,0,1-.46-.2,1.3,1.3,0,0,1-.266-.186.469.469,0,0,1-.116-.234,2.14,2.14,0,0,1-.035-.442c0-.129,0-.238.013-.325a.923.923,0,0,1,.041-.214.239.239,0,0,1,.075-.116.186.186,0,0,1,.109-.034.513.513,0,0,1,.248.1,4.4,4.4,0,0,0,.41.228,3.758,3.758,0,0,0,.6.228,2.821,2.821,0,0,0,.8.1,1.853,1.853,0,0,0,.538-.072,1.226,1.226,0,0,0,.4-.2.88.88,0,0,0,.253-.326,1.031,1.031,0,0,0,.088-.433.764.764,0,0,0-.15-.473,1.486,1.486,0,0,0-.391-.351,3.929,3.929,0,0,0-.547-.287c-.2-.09-.415-.185-.632-.285a5.748,5.748,0,0,1-.632-.341,2.527,2.527,0,0,1-.547-.457,2.167,2.167,0,0,1-.391-.628,2.558,2.558,0,0,1,.066-1.892,2.1,2.1,0,0,1,.582-.732,2.48,2.48,0,0,1,.863-.435,3.619,3.619,0,0,1,.527-.109V13.807h.985v1.035c.039.005.078,0,.117.009a3.926,3.926,0,0,1,.539.118,2.958,2.958,0,0,1,.443.168,1.1,1.1,0,0,1,.258.155.4.4,0,0,1,.082.1ZM11.018,19c0,3.319,2.242,6.01,5.008,6.01H4.907a1.467,1.467,0,0,0-1.9-1.9V14.9a1.466,1.466,0,0,0,.5.1,1.467,1.467,0,0,0,1.4-2H16.026c-2.766,0-5.008,2.69-5.008,6.009ZM7.011,16.919c-.83,0-1.5.9-1.5,2s.673,2,1.5,2,1.5-.9,1.5-2-.672-2-1.5-2Z" transform="translate(0 -3.98)"/>
</svg>
