<svg xmlns="http://www.w3.org/2000/svg" viewBox="0 0 32 18">
  <defs>
    <style>
      .cls-1 {
        fill: #76706b;
      }
    </style>
  </defs>
  <path id="dollar" class="cls-1" d="M0,25V7H32V25ZM2,8.938V23H30V8.938ZM21,16c0-3.313-2.238-6-5-6H29V22H16C18.762,22,21,19.313,21,16Zm4,2c.828,0,1.5-.9,1.5-2s-.672-2-1.5-2-1.5.9-1.5,2S24.172,18,25,18Zm-6.882-4.522a.255.255,0,0,1-.062.119.153.153,0,0,1-.109.037.523.523,0,0,1-.219-.086c-.1-.059-.223-.121-.368-.189a3.687,3.687,0,0,0-.506-.187,2.21,2.21,0,0,0-.631-.083,1.5,1.5,0,0,0-.469.065.986.986,0,0,0-.334.18.72.72,0,0,0-.2.277.893.893,0,0,0-.065.342.755.755,0,0,0,.147.466,1.409,1.409,0,0,0,.394.35,4.058,4.058,0,0,0,.56.287c.207.09.42.185.637.284a6.41,6.41,0,0,1,.637.341,2.559,2.559,0,0,1,.557.456,2.159,2.159,0,0,1,.394.624,2.188,2.188,0,0,1,.149.847,2.5,2.5,0,0,1-.236,1.118,2.294,2.294,0,0,1-.645.8,2.792,2.792,0,0,1-.949.484c-.046.014-.1.02-.143.031v1.092h-.983v-.963l-.036,0a4.215,4.215,0,0,1-.778-.067,4.536,4.536,0,0,1-.634-.164,2.781,2.781,0,0,1-.459-.2,1.291,1.291,0,0,1-.265-.186.469.469,0,0,1-.116-.234,2.135,2.135,0,0,1-.035-.441c0-.129,0-.237.013-.325a.969.969,0,0,1,.041-.213.228.228,0,0,1,.075-.116.183.183,0,0,1,.109-.034.52.52,0,0,1,.247.1,4.394,4.394,0,0,0,.409.228,3.74,3.74,0,0,0,.6.229,2.852,2.852,0,0,0,.8.1,1.846,1.846,0,0,0,.537-.072,1.193,1.193,0,0,0,.4-.2.876.876,0,0,0,.253-.325,1.031,1.031,0,0,0,.088-.433.765.765,0,0,0-.15-.472,1.5,1.5,0,0,0-.391-.35,4.078,4.078,0,0,0-.546-.287q-.306-.135-.631-.284a5.658,5.658,0,0,1-.631-.341,2.571,2.571,0,0,1-.546-.455,2.143,2.143,0,0,1-.39-.628,2.556,2.556,0,0,1,.065-1.889,2.08,2.08,0,0,1,.581-.73,2.491,2.491,0,0,1,.862-.434,3.5,3.5,0,0,1,.526-.109V10.81h.983v1.034c.039.005.078,0,.117.009a3.9,3.9,0,0,1,.537.118,2.869,2.869,0,0,1,.444.167,1.026,1.026,0,0,1,.256.155.5.5,0,0,1,.085.1.568.568,0,0,1,.037.116,1.015,1.015,0,0,1,.021.182c0,.072.006.163.006.271s0,.224-.009.308a1.4,1.4,0,0,1-.034.2ZM11,16c0,3.313,2.238,6,5,6H3V10H16C13.238,10,11,12.687,11,16ZM7,14c-.829,0-1.5.9-1.5,2s.671,2,1.5,2,1.5-.9,1.5-2S7.828,14,7,14Z" transform="translate(0 -7)"/>
</svg>
