<svg xmlns="http://www.w3.org/2000/svg" viewBox="0 0 18.015 24.896">
  <defs>
    <style>
      .cls-1 {
        fill: #76706b;
      }
    </style>
  </defs>
  <path id="drink2" class="cls-1" d="M24.462,8.981H6.493l.018-1.934H7.947l3.039-2.995H20.1l2.977,2.995h1.436l-.046,1.934ZM17.037,6.049H14.042v1h2.995Zm5.82,10.981H19.48a4.457,4.457,0,0,0-7.963,0H8.2l-.646-6.988H23.526l-.669,6.988Zm-9.813,2a2.5,2.5,0,1,1,2.5,2.5A2.5,2.5,0,0,1,13.044,19.026ZM15.5,23.561a4.482,4.482,0,0,0,4.05-2.579h2.931l-.762,7.966H9.3l-.736-7.966h2.884A4.48,4.48,0,0,0,15.5,23.561Z" transform="translate(-6.493 -4.052)"/>
</svg>
