<svg xmlns="http://www.w3.org/2000/svg" viewBox="0 0 16.125 30.03">
  <defs>
    <style>
      .cls-1 {
        fill: #76706b;
      }
    </style>
  </defs>
  <path id="drink" class="cls-1" d="M23.055,8.906a1.008,1.008,0,0,1,1.008,1.008L22.236,30.007a1.008,1.008,0,0,1-1.008,1.008H10.771a1.008,1.008,0,0,1-1.008-1.008L7.938,9.914A1.008,1.008,0,0,1,8.946,8.906h9.01L19.022,3.47,23.861.985l-.348,1.3-3.592,1.8-.938,4.822h4.072Zm-5.541,7.055h4.029L20.409,29H11.591L10.457,15.961h6.029l1.259-6.047h-8.8l1.826,20.093H21.227L23.054,9.914H18.772l-1.258,6.047Z" transform="translate(-7.938 -0.985)"/>
</svg>
