<svg xmlns="http://www.w3.org/2000/svg" viewBox="0 0 23.477 23.196">
  <defs>
    <style>
      .cls-1 {
        fill: #76706b;
      }
    </style>
  </defs>
  <path id="edit" class="cls-1" d="M10.681,18.207l-2.209,5.67,5.572-2.307-3.363-3.363ZM26.855,6.1l-.707-.707a2,2,0,0,0-2.828,0L21.906,6.8l3.535,3.536,1.414-1.414a2,2,0,0,0,0-2.829ZM10.793,17.918l.506-.506,3.535,3.535,9.9-9.9L21.2,7.512l.707-.708ZM23,26,5.978,26.01l0-17.026,11.921,0L19.77,7H4.965a1,1,0,0,0-1,1V27a1,1,0,0,0,1,1h19a1,1,0,0,0,1-1V12.942L22.95,14.919,23,26Z" transform="translate(-3.965 -4.804)"/>
</svg>
