<svg xmlns="http://www.w3.org/2000/svg" viewBox="0 0 24 24">
  <defs>
    <style>
      .cls-1 {
        fill: #76706b;
      }
    </style>
  </defs>
  <path id="eightball" class="cls-1" d="M16,4A12,12,0,1,0,28,16,12,12,0,0,0,16,4Zm0,18.562a6.5,6.5,0,1,1,6.5-6.5A6.5,6.5,0,0,1,16,22.562Zm.833-6.8a1.325,1.325,0,0,0,.637-.454,1.16,1.16,0,0,0,.21-.692,1.4,1.4,0,0,0-.457-1.058,1.887,1.887,0,0,0-2.4-.01,1.384,1.384,0,0,0-.449,1.048,1.177,1.177,0,0,0,.213.709,1.33,1.33,0,0,0,.652.456,1.435,1.435,0,0,0-.813.514,1.512,1.512,0,0,0-.286.937,1.67,1.67,0,0,0,.52,1.253,1.886,1.886,0,0,0,1.367.5,1.891,1.891,0,0,0,1.367-.5,1.65,1.65,0,0,0,.52-1.235,1.526,1.526,0,0,0-.276-.915,1.545,1.545,0,0,0-.807-.555ZM15.1,14.574a.828.828,0,0,1,.262-.614.909.909,0,0,1,.664-.257.9.9,0,0,1,.662.263.879.879,0,0,1,.264.647.85.85,0,0,1-.256.624.9.9,0,0,1-.662.255.917.917,0,0,1-.676-.257.891.891,0,0,1-.258-.661Zm1.761,3.492a1.122,1.122,0,0,1-.83.324,1.234,1.234,0,0,1-.6-.154.987.987,0,0,1-.422-.436,1.3,1.3,0,0,1-.14-.582,1.121,1.121,0,0,1,.322-.82,1.1,1.1,0,0,1,.82-.328,1.149,1.149,0,0,1,.844.332,1.134,1.134,0,0,1,.334.84A1.11,1.11,0,0,1,16.863,18.066Z" transform="translate(-4 -4)"/>
</svg>
