<svg xmlns="http://www.w3.org/2000/svg" viewBox="0 0 23 24">
  <defs>
    <style>
      .cls-1 {
        fill: #76706b;
      }
    </style>
  </defs>
  <path id="equalizer" class="cls-1" d="M6,28H9V19H6ZM18,18H13a1,1,0,0,0-1,1v3a1,1,0,0,0,1,1h5a1,1,0,0,0,1-1V19A1,1,0,0,0,18,18Zm-3.969,3.969h-1V19.031h1Zm1.938,0h-1V19.031h1Zm2.062,0h-1V19.031h1ZM17,4H14V17h3Zm8,0H22V9h3ZM9,4H6v8H9ZM22,28h3V16H22Zm-8,0h3V24H14ZM10,13H5a1,1,0,0,0-1,1v3a1,1,0,0,0,1,1h5a1,1,0,0,0,1-1V14A1,1,0,0,0,10,13ZM6.031,16.969h-1V14.031h1Zm2,0h-1V14.031h1Zm2,0h-1V14.031h1ZM26,10H21a1,1,0,0,0-1,1v3a1,1,0,0,0,1,1h5a1,1,0,0,0,1-1V11A1,1,0,0,0,26,10Zm-3.969,3.969h-1V11.031h1Zm1.938,0h-1V11.031h1Zm2.062,0h-1V11.031h1Z" transform="translate(-4 -4)"/>
</svg>
