<svg xmlns="http://www.w3.org/2000/svg" viewBox="0 0 19.938 20.023">
  <defs>
    <style>
      .cls-1 {
        fill: #76706b;
      }
    </style>
  </defs>
  <path id="expand" class="cls-1" d="M13.816,5.989l-7.785.046,0,7.735,2.59-2.591,3.454,3.454,2.665-2.665L11.29,8.514l2.526-2.525ZM12.079,17.35,8.625,20.805l-2.59-2.592,0,7.8,7.785-.018-2.526-2.525,3.454-3.453L12.079,17.35Zm7.843-2.717,3.453-3.454,2.59,2.591,0-7.735-7.785-.046L20.71,8.514l-3.454,3.454,2.666,2.665Zm3.453,6.172L19.922,17.35l-2.666,2.666,3.454,3.453-2.526,2.525,7.785.018,0-7.8-2.59,2.592Z" transform="translate(-6.031 -5.989)"/>
</svg>
