<svg xmlns="http://www.w3.org/2000/svg" viewBox="0 0 26.934 26.934">
  <defs>
    <style>
      .cls-1 {
        fill: #76706b;
      }
    </style>
  </defs>
  <path id="eyedropper" class="cls-1" d="M24.552,13.812,18.188,7.448A1,1,0,1,1,19.6,6.034l.707.707,3.183-3.182a3.5,3.5,0,0,1,4.949,4.949L25.26,11.691l.707.707a1,1,0,1,1-1.415,1.414ZM9.6,27.348c-.619.619-2.165-.662-2.828,0l-1.68,1.68a1.5,1.5,0,0,1-2.121-2.121l1.68-1.68c.663-.662-.619-2.209,0-2.828S18.176,8.875,18.176,8.875l4.949,4.95L9.6,27.348ZM21.711,13.825l-3.535-3.536L6.067,22.4c-.618.619.619,2.209,0,2.828L3.68,27.613a.5.5,0,0,0,.707.707l2.387-2.387c.619-.619,2.209.619,2.828,0L21.711,13.825Z" transform="translate(-2.534 -2.534)"/>
</svg>
