<svg xmlns="http://www.w3.org/2000/svg" viewBox="0 0 19.938 24.97">
  <defs>
    <style>
      .cls-1 {
        fill: #76706b;
      }
    </style>
  </defs>
  <path id="files" class="cls-1" d="M16.984,16.047h-8v.906h8Zm0,3h-8v.969h8ZM12.016,4.016V7.032H8.984v3.016H6.031V28.986H20V25.955h2.953V23.017h3.016v-19H12.016Zm7.015,24H7V10.953H19.031Zm2.953-2.969H20v-15H9.953V8H21.984V25.047Zm3.016-3H22.953V7.031H12.984V4.984H25Zm-8.016,2.984h-8V26h8Zm0-3.015h-8v.969h8Zm.015-9H9v1h8Z" transform="translate(-6.031 -4.016)"/>
</svg>
