<svg xmlns="http://www.w3.org/2000/svg" viewBox="0 0 34.986 25.152">
  <defs>
    <style>
      .cls-1 {
        fill: #76706b;
      }
    </style>
  </defs>
  <path id="folder" class="cls-1" d="M8.431,9.155H29.389c2.158,0,2.158-2.238.084-2.238H14.987c-.83,0-1.244-1.244-1.244-1.244S13.162,3.848,12,3.848H1.211C-.365,3.848.049,5.673.049,5.673s2.407,20.47,2.573,21.715A2.1,2.1,0,0,0,4.075,29L6.9,10.9A1.875,1.875,0,0,1,8.431,9.155Zm25.227.787H9.1a1.328,1.328,0,0,0-1.328,1.327L5.2,27.669A1.328,1.328,0,0,0,6.523,29H31.086a1.329,1.329,0,0,0,1.328-1.328l2.572-16.4a1.326,1.326,0,0,0-1.328-1.327Z" transform="translate(0 -3.848)"/>
</svg>
