<svg xmlns="http://www.w3.org/2000/svg" viewBox="0 0 32.608 27.172">
  <defs>
    <style>
      .cls-1 {
        fill: #76706b;
      }
    </style>
  </defs>
  <path id="football" class="cls-1" d="M22.3,26.393c-8.369,4.832-17.84,4.1-21.154-1.643S1.934,10.439,10.3,5.607s17.84-4.1,21.155,1.643S30.674,21.56,22.3,26.393ZM2.51,17.232a7.918,7.918,0,0,0,.365,6.562,7.91,7.91,0,0,0,5.5,3.6L2.51,17.232ZM20.459,4.471A21.411,21.411,0,0,0,11.3,7.384,21.356,21.356,0,0,0,4.107,13.99l7.875,13.64A21.347,21.347,0,0,0,21.3,24.705a21.424,21.424,0,0,0,7.1-6.478L20.459,4.471Zm9.6,10.472a7.953,7.953,0,0,0-.334-6.649A7.945,7.945,0,0,0,24.131,4.68l5.926,10.263ZM17.2,18.811l-.811.469-.97-1.678,0,0-.916.529.969,1.678-.812.469L13.692,18.6l0,0-.916.529.969,1.678-.812.469L11.96,19.6l0,0-1.732,1-.5-.866,1.736-1-1.012-1.753.812-.469,1.013,1.753.92-.531L12.18,15.98l.812-.468L14,17.265l.92-.531L13.913,14.98l.812-.468,1.013,1.753.92-.531L15.646,13.98l.812-.468,1.012,1.753.92-.531-1.012-1.753.811-.469L19.2,14.265l.92-.531L19.109,11.98l.812-.468,1.012,1.753,1.809-1.043.5.866-1.809,1.044L22.4,15.81l-.811.469L20.622,14.6l-.92.531.969,1.678-.812.469L18.89,15.6l0,0-.916.529.969,1.678-.812.469L17.158,16.6l0,0-.916.529.967,1.679Z" transform="translate(0 -2.414)"/>
</svg>
