<svg xmlns="http://www.w3.org/2000/svg" viewBox="0 0 32.963 23.082">
  <defs>
    <style>
      .cls-1 {
        fill: #76706b;
      }
    </style>
  </defs>
  <path id="gamepad" class="cls-1" d="M23.014,4.459c-1.416,0-4.166,2-6.5,2s-5.25-2-6.5-2c-8.583,0-13.5,23.082-7.083,23.082,5.417,0,6.146-6.75,13.562-6.75,6,0,9.521,6.668,13.521,6.668,6.416,0,1.584-23-7-23Zm-13.5,13a4.5,4.5,0,1,1,4.5-4.5A4.5,4.5,0,0,1,9.513,17.459Zm11.938-2.5a1,1,0,1,1,1-1A1,1,0,0,1,21.451,14.959Zm3.063,3a1,1,0,1,1,1-1A1,1,0,0,1,24.514,17.959Zm0-6a1,1,0,1,1,1-1A1,1,0,0,1,24.514,11.959Zm3,3a1,1,0,1,1,1-1A1,1,0,0,1,27.514,14.959Zm-18-4.5a2.5,2.5,0,1,0,2.5,2.5A2.5,2.5,0,0,0,9.513,10.459Z" transform="translate(-0.001 -4.459)"/>
</svg>
