<svg xmlns="http://www.w3.org/2000/svg" viewBox="0 0 42.125 24.464">
  <defs>
    <style>
      .cls-1 {
        fill: #76706b;
      }
    </style>
  </defs>
  <path id="graduate" class="cls-1" d="M32.639,17.561s-4.592-4.682-10.92-4.682c-6.183,0-12.3,4.682-12.3,4.682L5.991,16.128v4.2a1.348,1.348,0,0,1-.016,2.573L6.99,25.736h-3l1.024-2.855a1.369,1.369,0,0,1-.025-2.511V15.711L0,13.629,21.969,3.768l20.156,9.985Zm-11.17-2.31c6.366,0,9.486,3.37,9.486,3.37v6.99s-3.245,2.621-9.985,2.621-8.987-2.621-8.987-2.621v-6.99s3.12-3.37,9.486-3.37Zm-.125,11.483c4.412,0,7.989-.9,7.989-2s-3.577-2-7.989-2-7.988.9-7.988,2S16.932,26.734,21.344,26.734Z" transform="translate(0 -3.768)"/>
</svg>
