<svg xmlns="http://www.w3.org/2000/svg" viewBox="0 0 23.754 25.516">
  <defs>
    <style>
      .cls-1 {
        fill: #76706b;
      }
    </style>
  </defs>
  <path id="hand" class="cls-1" d="M20.9,24.014l2.959-3.984,3.475-3.32a3.973,3.973,0,0,0-2.59-1.381,3.067,3.067,0,0,0-1.77.552,5.176,5.176,0,0,0-1.463,1.655,9.124,9.124,0,0,0-1.438.615,10.2,10.2,0,0,0-.275-1.7l2-7.748c.473-1.868.586-2.812-.539-3.312s-2.275.879-2.867,2.637L16.5,14.011l.057-7.694q0-2.833-1.788-2.833-1.806,0-1.805,2.51v7.692L11.026,6.948c-.48-1.192-1.325-2.366-2.45-1.991S7.5,7.183,7.816,8.368l1.725,6.569L6.759,10.342C5.908,8.867,4.44,8.582,4.108,8.926c-.529.549-.883,1.717.077,3.394l3.069,5.343,2.74,9.492V29h8V26.621A28.032,28.032,0,0,0,20.9,24.014h0Z" transform="translate(-3.583 -3.484)"/>
</svg>
