<svg xmlns="http://www.w3.org/2000/svg" viewBox="0 0 28 24.021">
  <defs>
    <style>
      .cls-1 {
        fill: #76706b;
      }
    </style>
  </defs>
  <path id="heart3" class="cls-1" d="M24,12.977a7.064,7.064,0,0,0-4.391,12.546C17.553,27.048,16,28.011,16,28.011S2,19.359,2,12.389c0-4.2,2.583-8.4,7.5-8.4,4.5,0,6.5,4.3,6.5,4.3a7.247,7.247,0,0,1,6.5-4.3c4.75,0,7.416,4.115,7.416,8.4a7.233,7.233,0,0,1-.716,2.932A6.95,6.95,0,0,0,24,12.977Zm0,1.007a6.048,6.048,0,1,1-6,6.047A6.024,6.024,0,0,1,24,13.984Zm-3,7.055h6V19.023H21Z" transform="translate(-2 -3.99)"/>
</svg>
