<svg xmlns="http://www.w3.org/2000/svg" viewBox="0 0 19 27">
  <defs>
    <style>
      .cls-1 {
        fill: #76706b;
      }
    </style>
  </defs>
  <path id="hourglass" class="cls-1" d="M24.5,28a.5.5,0,0,1,.5.5V30H6V28.5a.5.5,0,0,1,.5-.5H8.17c.083-6.658,4.432-8.8,4.432-11.495S8.173,13.62,8.131,5H6.5A.5.5,0,0,1,6,4.5V3H25V4.5a.5.5,0,0,1-.5.5H22.97c-.042,8.62-4.471,8.8-4.471,11.505S22.849,21.342,22.932,28ZM17.111,16.5c0-2.716,4.43-2.885,4.471-11.505H9.519C9.56,13.62,13.99,13.789,13.99,16.5c0,2.611-4.351,4.812-4.433,11.5h.758a3.418,3.418,0,0,1,1.79-1.834l1.327-.677a9.792,9.792,0,0,0,1.5-.872,2.977,2.977,0,0,0,.564-1.008,3.311,3.311,0,0,0,.57,1.008,9.107,9.107,0,0,0,1.484.872l1.32.677A3.4,3.4,0,0,1,20.649,28h.894c-.082-6.683-4.432-8.884-4.432-11.495ZM16.07,15.037a4.6,4.6,0,0,0-.3,1.347c-.02.2-.064.5-.135.9q-.1-.6-.135-.9a4.6,4.6,0,0,0-.3-1.347,7.773,7.773,0,0,0-1.025-1.271L12.92,12.4a15.022,15.022,0,0,1-1.644-1.984,8.087,8.087,0,0,0,4.347,1.418,8.16,8.16,0,0,0,4.362-1.418A16.586,16.586,0,0,1,18.336,12.4L17.09,13.766a7.7,7.7,0,0,0-1.02,1.271Z" transform="translate(-6 -3)"/>
</svg>
