<svg xmlns="http://www.w3.org/2000/svg" viewBox="0 0 14.074 28.692">
  <defs>
    <style>
      .cls-1 {
        fill: #76706b;
      }
    </style>
  </defs>
  <path id="icecream" class="cls-1" d="M20.8,10.742c1.448-3.62-1.789-4.217-1.789-4.174a3.021,3.021,0,0,0-2.9-4.26c-1.874,0-1.789.853-1.789.853s1.022-.213,1.022.6-.938.767-1.874,1.7-.49.81-.554.81c1.948-.128,3.088,1.885,5.239,1.149-2.13,1.065-2.641-.628-4.941-.713-.3,0-2-.33-2,2.928,2.492.288,3.578,2,6.943,1.619-3.791,1.4-8.54-4.409-9.2,1.959a2.567,2.567,0,0,0,1.021,2.048H21.741C24.083,14.239,22.934,10.529,20.8,10.742ZM16.072,31,21.4,15.931H10.627L16.072,31Z" transform="translate(-8.963 -2.308)"/>
</svg>
