<svg xmlns="http://www.w3.org/2000/svg" viewBox="0 0 26 28">
  <defs>
    <style>
      .cls-1 {
        fill: #76706b;
      }
    </style>
  </defs>
  <path id="image" class="cls-1" d="M28,29V28H27V27H26V14h1V13h1V12h1V29ZM27,13H26v1H6V13H5V12H4V11H28v1H27ZM5,13v1H6V27H5v1H4v1H3V12H4v1ZM5,28H6V27H26v1h1v1h1v1H4V29H5Zm7.856-5.018,2.286-3.7,2.286,2.3,3.143-4.731L23.857,25H9.285l1.857-3.715,1.714,1.7Zm-1.365-3.973a1.5,1.5,0,1,1,1.5-1.5A1.5,1.5,0,0,1,11.491,19.009ZM25,11,17.678,5.55a1.974,1.974,0,0,1-2.857-.371L7,11H6l8.493-6.518A2,2,0,1,1,18.428,4a1.984,1.984,0,0,1-.269.984L26,11Z" transform="translate(-3 -2)"/>
</svg>
