<svg xmlns="http://www.w3.org/2000/svg" viewBox="0 0 26 26">
  <defs>
    <style>
      .cls-1 {
        fill: #76706b;
      }
    </style>
  </defs>
  <path id="info2" class="cls-1" d="M16,3A13,13,0,1,0,29,16,13,13,0,0,0,16,3Zm2.039,17.783c-.981,1.473-1.979,2.608-3.658,2.608-1.146-.187-1.617-1.008-1.369-1.845l2.16-7.154a.338.338,0,0,0-.195-.419c-.159-.056-.471.151-.741.447L12.93,15.991a7.358,7.358,0,0,1,0-.876c.981-1.473,2.593-2.635,3.686-2.635a1.47,1.47,0,0,1,1.35,1.85l-2.175,7.189a.337.337,0,0,0,.2.379c.16.056.5-.151.767-.447l1.305-1.57A7.24,7.24,0,0,1,18.039,20.783Zm-.291-9.344a1.488,1.488,0,1,1,1.5-1.488A1.453,1.453,0,0,1,17.748,11.439Z" transform="translate(-3 -3)"/>
</svg>
