<svg xmlns="http://www.w3.org/2000/svg" viewBox="0 0 27.943 27.288">
  <defs>
    <style>
      .cls-1 {
        fill: #76706b;
      }
    </style>
  </defs>
  <path id="injection" class="cls-1" d="M24.16,9.207a.966.966,0,0,1,0,1.367l-.685.684.685.684a1.934,1.934,0,0,1,0,2.735L13.9,24.93a1.933,1.933,0,0,1-2.735,0l-.684-.684L7.752,26.982l1.367,1.367a.967.967,0,0,1-1.367,1.367l-5.47-5.471a.967.967,0,0,1,1.367-1.367l1.367,1.367,2.735-2.734-.684-.684a1.931,1.931,0,0,1,0-2.734L17.323,7.839a1.931,1.931,0,0,1,2.734,0l.684.684.684-.684a.966.966,0,0,1,1.367,0l.342.342,5.47-5.47V4.078L23.818,8.864l.342.343Zm-4.786-.684a.966.966,0,0,0-1.367,0l-2.051,2.051,1.367,1.367-.684.684-1.367-1.367-2.051,2.051,1.367,1.368-.684.684-1.368-1.368-.684.684,2.735,2.734-.684.684-2.735-2.734L9.119,17.41l2.734,2.734-.684.684L8.435,18.094l-.684.684a.966.966,0,0,0,0,1.367l4.1,4.1a.965.965,0,0,0,1.368,0L23.475,13.993a.964.964,0,0,0,0-1.367l-4.1-4.1ZM16.64,9.89l.684-.684,2.734,2.734-.684.684Zm0,5.469-2.734-2.735.684-.684,2.734,2.735ZM9.8,16.727l.684-.684,1.367,1.367-.684.684ZM29.942,9.386a1.313,1.313,0,0,1-2.625,0A9.342,9.342,0,0,1,28.63,6.678,9.358,9.358,0,0,1,29.942,9.386Z" transform="translate(-1.999 -2.711)"/>
</svg>
