<svg xmlns="http://www.w3.org/2000/svg" viewBox="0 0 25.999 27.5">
  <defs>
    <style>
      .cls-1 {
        fill: #76706b;
      }
    </style>
  </defs>
  <path id="justice" class="cls-1" d="M24.064,6.583l-3.773,8.375h-1.1l4.024-8.916H17V26.813c1.28.047,7.813,2.167,7.813,2.167V30H7.257V28.911s6.678-2.1,7.684-2.1V6.042H8.926l4.025,8.916h-1.1L8.08,6.583,4.307,14.958h-1.1L7.257,5.992V4.958h6.754A2.276,2.276,0,0,1,15.976,2.5a2.273,2.273,0,0,1,1.965,2.458h6.878v.887l4.116,9.113h-1.1L24.064,6.583Zm-11.044,9.4a5.035,5.035,0,0,1-4.939,5.282,5.079,5.079,0,0,1-4.939-5.282S13.02,15.983,13.02,15.979Zm6.242,0c0,.005,9.879.005,9.879,0a4.951,4.951,0,1,1-9.879,0Z" transform="translate(-3.142 -2.5)"/>
</svg>
