<svg xmlns="http://www.w3.org/2000/svg" viewBox="0 0 25.471 24.345">
  <defs>
    <style>
      .cls-1 {
        fill: #76706b;
      }
    </style>
  </defs>
  <path id="key" class="cls-1" d="M17.837,17.542,7.788,27.591a2,2,0,0,1-2.829-2.828L5.723,24,3.558,21.833a1,1,0,1,1,1.409-1.409L7.133,22.59l.7-.7-.752-.752a1,1,0,1,1,1.41-1.41l.751.752.7-.7L7.786,17.6A1,1,0,1,1,9.2,16.2l2.165,2.166,3.649-3.649c-2.365-3.3-2.659-7.228-.48-9.406,2.53-2.53,7.431-1.732,10.945,1.783s4.313,8.415,1.782,10.945c-2.181,2.181-6.122,1.882-9.42-.492ZM23.349,9.2c-1.562-1.562-3.618-2.04-4.591-1.066s-.5,3.028,1.066,4.591,3.617,2.039,4.591,1.066S24.91,10.764,23.349,9.2Z" transform="translate(-3.264 -3.828)"/>
</svg>
