<svg xmlns="http://www.w3.org/2000/svg" viewBox="0 0 27.925 23.249">
  <defs>
    <style>
      .cls-1 {
        fill: #76706b;
      }
    </style>
  </defs>
  <path id="keyboard" class="cls-1" d="M27.967,27.984H4.032a2,2,0,0,1-1.994-2V15.02a1.994,1.994,0,0,1,1.994-1.995l1.055-.056A5.041,5.041,0,0,1,6.575,9.235,4.755,4.755,0,0,1,10.267,7.57a8.7,8.7,0,0,1,2.317.354,12.555,12.555,0,0,0,3.121.612,3.947,3.947,0,0,0,3.99-2.566q.5-1.234,1.014-1.235c.492,0,.74.23.74.689a4.263,4.263,0,0,1-1.318,2.7,5.585,5.585,0,0,1-4.356,2.006A18.5,18.5,0,0,1,12.141,9.5a9.8,9.8,0,0,0-1.993-.338A3.092,3.092,0,0,0,7.7,10.383a3.626,3.626,0,0,0-1.021,2.6l21.291.042a2,2,0,0,1,2,1.995V25.99A2,2,0,0,1,27.967,27.984Zm1-12.964a1,1,0,0,0-1-1H4.032a1,1,0,0,0-1,1V25.99a1,1,0,0,0,1,1H27.967a1,1,0,0,0,1-1V15.02Zm-3.994,5.017H23.008v1.932H21.014V20.037h-2v1.932H16.961V20.037H15.029v1.932H13.034V20.037H11.04v1.932h-2V20.037H7.019v1.932H5.025V20.006H7.05v-2H5.025V16.048H7.019V17.98H9.044V16.048h1.995V17.98h1.994V16.048h1.995V17.98H16.96V16.048h2.057V17.98h2V16.048h1.994V17.98H24.97V16.048h1.994v1.963H25v2h1.963v1.963H24.97V20.037ZM11.04,18.011H9.014v2h2.025v-2Zm3.958,0H13v2H15Zm3.988,0H16.992v2h1.994Zm3.991,0h-2v2h2v-2Zm.093,6.981H8.983V23.028H23.07Z" transform="translate(-2.038 -4.735)"/>
</svg>
