<svg xmlns="http://www.w3.org/2000/svg" viewBox="0 0 26 25.313">
  <defs>
    <style>
      .cls-1 {
        fill: #76706b;
      }
    </style>
  </defs>
  <path id="keyboard2" class="cls-1" d="M27,29.016H5a2,2,0,0,1-2-2v-13a2,2,0,0,1,2-2l1.058.006A5.2,5.2,0,0,1,7.55,8.215a4.767,4.767,0,0,1,3.7-1.668,8.745,8.745,0,0,1,2.323.354,12.583,12.583,0,0,0,3.129.614,3.958,3.958,0,0,0,4-2.574Q21.2,3.7,21.722,3.7q.741,0,.742.691a4.276,4.276,0,0,1-1.322,2.7,5.6,5.6,0,0,1-4.367,2.012,18.539,18.539,0,0,1-3.644-.63,9.878,9.878,0,0,0-2-.339A3.1,3.1,0,0,0,8.675,9.366a3.78,3.78,0,0,0-1.023,2.669L27,12.016a2,2,0,0,1,2,2v13a2,2,0,0,1-2,2Zm1-15a1,1,0,0,0-1-1H5a1,1,0,0,0-1,1v13a1,1,0,0,0,1,1H27a1,1,0,0,0,1-1v-13Zm-8,7.011h6.018v1.981H20Zm1.985-3h4.021v1.981H21.988Zm2.019-3.011h2V17.06h-2Zm-2.97,0H23V17.06H21.037Zm-2.029,3.011h1.981v1.981H19.008Zm-.983-3.011h2V17.06h-2Zm-2.071,3.011H18v1.981H15.954V18.027Zm-.982-3.011h2.044V17.06H14.972V15.016Zm-2.97,0h2.023V17.06H12Zm-3.074,0h2.065V17.06H8.928V15.016ZM6,15.016H8.044V17.06H6Zm6.018,4.993H6V18.028h6.018v1.981ZM8.044,26.053H6V24.009H8.044ZM6.011,21.027h4.021v1.981H6.011V21.027Zm5.024,5.026H8.99V24.009h2.045ZM16,23.009H13.959V21.028H16v1.981Zm-2.991,0H10.969V21.028h2.044v1.981Zm2-3H12.963V18.028h2.045v1.981Zm3.986,1.018v1.981H17.013V21.027Zm1.013,5.026H12.044V24.009h7.963Zm2.991,0H20.953V24.009H23Zm2.99,0H24.007V24.009h1.981v2.044Z" transform="translate(-3 -3.703)"/>
</svg>
