<svg xmlns="http://www.w3.org/2000/svg" viewBox="0 0 22.085 34.988">
  <defs>
    <style>
      .cls-1 {
        fill: #76706b;
      }
    </style>
  </defs>
  <path id="lab" class="cls-1" d="M19.332,19.041a2.39,2.39,0,0,1-3.79,0c-2.062-2-3.562,0-3.562,0l-4.967,9.79a1,1,0,0,0,.706,1.224h16.5a1,1,0,0,0,.707-1.224Zm7.607,9.289L18.96,14.9v-.025l-.014-7.869H19.5a1.5,1.5,0,0,0,0-3H11.5a1.5,1.5,0,0,0,0,3h.482l-.016,7.871L5.06,28.33A3,3,0,0,0,7.179,32H24.82a2.994,2.994,0,0,0,2.119-3.67ZM24.553,31,7.445,30.979a2,2,0,0,1-1.412-2.446L12.98,14.917,13,6.009H11.5a.5.5,0,0,1,0-1H19.5a.5.5,0,0,1,0,1H18l.025,8.875L25.964,28.55A2,2,0,0,1,24.553,31ZM16.48,2.512a1,1,0,1,0,1-1A1,1,0,0,0,16.48,2.512Zm1-2.5a1.5,1.5,0,0,0,1.5-1.5,1.5,1.5,0,0,0-1.5-1.5,1.5,1.5,0,0,0-1.5,1.5,1.5,1.5,0,0,0,1.5,1.5Zm-4,2.5a1,1,0,1,0-1-1A1,1,0,0,0,13.48,2.512Z" transform="translate(-4.957 2.988)"/>
</svg>
