<svg xmlns="http://www.w3.org/2000/svg" viewBox="0 0 12.092 31.984">
  <defs>
    <style>
      .cls-1 {
        fill: #76706b;
      }
    </style>
  </defs>
  <path id="lamp4" class="cls-1" d="M21.305,9.4a1,1,0,1,0-.518-1.932L10.7,10.578a1,1,0,1,0,.517,1.932l.833-.256L13,13.992H12a2,2,0,0,0-2,2v4.167l2,2.833h8l2-2.833V15.992a2,2,0,0,0-2-2H19l2.015-4.5.29-.089ZM17,13.992H15l-1.243-2.264,4.938-1.52L17,13.992Zm3.787-9.518L10.7,7.579a1,1,0,1,0,.517,1.932L21.3,6.406a1,1,0,0,0-.517-1.932ZM11.213,6.511,21.3,3.406a1,1,0,1,0-.518-1.932L10.7,4.579a1,1,0,1,0,.517,1.932ZM19.5,23.992h-7a.5.5,0,0,0,0,1h7a.5.5,0,0,0,0-1Zm0,2h-7a.5.5,0,0,0,0,1h7a.5.5,0,0,0,0-1Zm0,2h-7a.5.5,0,0,0,0,1h7a.5.5,0,0,0,0-1Zm-5,2a1.443,1.443,0,0,0,1.5,1.5,1.5,1.5,0,0,0,1.5-1.5A20.162,20.162,0,0,1,14.5,29.992ZM11.271,3.556l6.68-2.093a1,1,0,0,0-.6-1.909l-6.68,2.093a1,1,0,0,0,.6,1.909Z" transform="translate(-9.954 0.492)"/>
</svg>
