<svg xmlns="http://www.w3.org/2000/svg" viewBox="0 0 16.12 29.25">
  <defs>
    <style>
      .cls-1 {
        fill: #76706b;
      }
    </style>
  </defs>
  <path id="lamp3" class="cls-1" d="M16.13,1.781a7.976,7.976,0,0,0-8.19,8.09c0,4.324,4.024,7.043,4.024,14.114h4.075L19.982,24C20.1,16.88,24.06,14.078,24.06,9.837a7.855,7.855,0,0,0-7.93-8.056Zm3.344,23.25h-7a.5.5,0,0,0,0,1h7a.5.5,0,1,0,0-1Zm0,2h-7a.5.5,0,0,0,0,1h7a.5.5,0,1,0,0-1Zm-6.5,2v1a1,1,0,0,0,1,1h4.014a1,1,0,0,0,1-1v-1H12.974Z" transform="translate(-7.94 -1.781)"/>
</svg>
