<svg xmlns="http://www.w3.org/2000/svg" viewBox="0 0 23.587 25.776">
  <defs>
    <style>
      .cls-1 {
        fill: #76706b;
      }
    </style>
  </defs>
  <path id="lamp2" class="cls-1" d="M17.57,18.118A7.044,7.044,0,0,1,15.691,9.5l-1.1-1.1-6.67,6.671c1.24.976,1.115,1.93-.336,2.86l8.911,8.91h4.367a1.018,1.018,0,0,1,1.018,1.018v1.018H17.115l-.011.011-.011-.011H9.675V27.86a1.018,1.018,0,0,1,1.018-1.018H15.06l-8.406-8.4c-1.661.712-2.481.024-2.446-2.09C4.246,14.1,5.2,13.5,7.047,14.51l6.829-6.829L13.2,7.006a1.017,1.017,0,0,1,0-1.438L15.358,3.41a1.018,1.018,0,0,1,1.439,0l2.6,2.6a7.081,7.081,0,0,1,2.678-.53,7,7,0,0,1,5.719,2.752C27.838,8.245,17.607,18.134,17.57,18.118Zm7.873-6.364s1.717,2.161,0,3.878-3.857-.021-3.857-.021Z" transform="translate(-4.207 -3.112)"/>
</svg>
