<svg xmlns="http://www.w3.org/2000/svg" viewBox="0 0 21.888 27.039">
  <defs>
    <style>
      .cls-1 {
        fill: #76706b;
      }
    </style>
  </defs>
  <path id="lamp" class="cls-1" d="M17.073,15V19a1,1,0,0,1,1,1v1s3.067,1.252,3.067,3.943a8.669,8.669,0,0,1-2.212,5.07H13.192A9.147,9.147,0,0,1,11,24.949c0-2.754,3.066-3.943,3.066-3.943v-1a1,1,0,0,1,1-1V15H8.811v6.686a.987.987,0,0,1,.752.951,1,1,0,0,1-2,0,.986.986,0,0,1,.751-.951V15H5.056L12.691,2.98h6.846L26.944,15H17.073Z" transform="translate(-5.056 -2.98)"/>
</svg>
