<svg xmlns="http://www.w3.org/2000/svg" viewBox="0 0 25.052 24.86">
  <defs>
    <style>
      .cls-1 {
        fill: #76706b;
      }
    </style>
  </defs>
  <path id="library" class="cls-1" d="M3.425,13.953H27.6c.583-.255.557-.8.011-1.165S15.49,4.07,15.49,4.07,4.008,12.423,3.425,12.788s-.619.91,0,1.165ZM15.49,8.195a1.748,1.748,0,1,1-1.747,1.747A1.748,1.748,0,0,1,15.49,8.195ZM4.027,26.932H27v-.977H4.027v.977Zm4.973-2v-8.9h.978v-1.1H4.985v1h.978v9H9Zm8.03,0V15.97h.978v-.978H13.016v.94h.977v9H17.03Zm-14,3.994H27.993v-.914H3.03v.914ZM25,24.936V15.97h.978v-.978H20.983v.94h.979v9H25Z" transform="translate(-2.975 -4.07)"/>
</svg>
