<svg xmlns="http://www.w3.org/2000/svg" viewBox="0 0 19.197 24.321">
  <defs>
    <style>
      .cls-1 {
        fill: #76706b;
      }
    </style>
  </defs>
  <path id="link" class="cls-1" d="M25.33,9.84,21.83,15.9a2,2,0,0,1-2.732.731l-.865-.5,1-1.731a1,1,0,0,0,1.365-.366l2.5-4.33a1,1,0,0,0-.365-1.366l-3.465-2a1,1,0,0,0-1.365.366l-2.5,4.33a1,1,0,0,0,.365,1.366l-1,1.731-.865-.5a2,2,0,0,1-.732-2.731l3.5-6.062A2,2,0,0,1,19.4,4.108l5.195,3A2,2,0,0,1,25.33,9.84ZM13.5,20.33a1,1,0,0,1-.366-1.366l4-6.928a1,1,0,1,1,1.731,1l-4,6.928a1,1,0,0,1-1.365.366ZM12.768,17.6h0a1,1,0,0,0-1.366.365l-2.5,4.33a1,1,0,0,0,.366,1.366l3.465,2a1,1,0,0,0,1.365-.366l2.5-4.33a1,1,0,0,0-.365-1.366h0l1-1.731.865.5A2,2,0,0,1,18.83,21.1l-3.5,6.062a2,2,0,0,1-2.732.732l-5.2-3A2,2,0,0,1,6.67,22.16l3.5-6.062a2,2,0,0,1,2.733-.732l.865.5-1,1.733Z" transform="translate(-6.401 -3.84)"/>
</svg>
