<svg xmlns="http://www.w3.org/2000/svg" viewBox="0 0 18.911 21.188">
  <defs>
    <style>
      .cls-1 {
        fill: #76706b;
      }
    </style>
  </defs>
  <path id="link2" class="cls-1" d="M14.121,6.255l-7.5,12.99c-.414.718.982,2.3.982,2.3l9-15.588s-2.068-.419-2.482.3ZM16.5,15.134a1.5,1.5,0,0,0,2.049-.549l4-6.928a1.5,1.5,0,1,0-2.6-1.5l-4,6.928A1.5,1.5,0,0,0,16.5,15.134Zm-1,1.732a1.5,1.5,0,0,0-2.049.549l-4,6.929a1.5,1.5,0,0,0,2.6,1.5l4-6.929a1.5,1.5,0,0,0-.549-2.049Zm8.9-6.41-9,15.588s2.068.419,2.482-.3l7.5-12.99c.415-.718-.982-2.3-.982-2.3Z" transform="translate(-6.544 -5.406)"/>
</svg>
