<svg xmlns="http://www.w3.org/2000/svg" viewBox="0 0 20.953 28.062">
  <defs>
    <style>
      .cls-1 {
        fill: #76706b;
      }
    </style>
  </defs>
  <path id="magnet" class="cls-1" d="M15.5,30.031c-4.365,0-10.477-4.553-10.477-9.1a44.058,44.058,0,0,1,.785-6.922h5.131a53.827,53.827,0,0,0-.49,6.8c.374,2.12,3.367,3.741,5.051,3.741s4.553-1.559,5.051-3.741a51.834,51.834,0,0,0-.507-6.8h5.112a43.7,43.7,0,0,1,.82,6.983c0,4.491-6.111,9.043-10.476,9.043ZM18.992,8.018h4.927s.538,2.222,1.063,4.989h-5.07C19.481,10.1,18.992,8.018,18.992,8.018Zm0-3.992H23.98v1H18.992ZM11.945,8.018s-.467,2.085-.879,4.989H5.976c.514-2.771,1.042-4.989,1.042-4.989ZM10.012,6.957h-1V4.962h-2v-1h2v-2h1v2h2v1h-2Z" transform="translate(-5.023 -1.969)"/>
</svg>
