<svg xmlns="http://www.w3.org/2000/svg" viewBox="0 0 21.31 27.97">
  <defs>
    <style>
      .cls-1 {
        fill: #76706b;
      }
    </style>
  </defs>
  <path id="medal" class="cls-1" d="M16,13.531a8.227,8.227,0,1,0,8.227,8.227A8.228,8.228,0,0,0,16,13.531Zm0,15.252A6.961,6.961,0,1,1,22.96,21.82,6.962,6.962,0,0,1,16,28.783ZM20.136,6.95,22.96,2.015H9.038L11.9,6.95h8.231Zm1.477,8.4,5.042-8.3L23.274,2.159l-6.35,11.165a8.5,8.5,0,0,1,4.689,2.027Zm-6.56-2.089L8.725,2.159,5.345,7.053,10.239,15.5a8.756,8.756,0,0,1,4.814-2.235Zm-.185,6.662a3.6,3.6,0,0,1-1.062.607v1.131a4.277,4.277,0,0,0,1.613-.945v4.711h1.25V18.879H15.655a2.318,2.318,0,0,1-.787,1.045Z" transform="translate(-5.345 -2.015)"/>
</svg>
