<svg xmlns="http://www.w3.org/2000/svg" viewBox="0 0 26.197 32.067">
  <defs>
    <style>
      .cls-1 {
        fill: #76706b;
      }
    </style>
  </defs>
  <path id="medal2" class="cls-1" d="M9.193,20.037c-1.25,0-1.416-.584-1.416-.584L2.9,29.033,6.811,28.6l2.162,3.25s4.5-9.393,4.5-9.33c-2.33-.056-1.4-2.415-4.28-2.478Zm10.989,1.028a2.993,2.993,0,0,1,2.691-1.553,1.62,1.62,0,0,0,1.8-1.8,2.989,2.989,0,0,1,1.553-2.689,1.619,1.619,0,0,0,.66-2.463,2.99,2.99,0,0,1,0-3.106,1.62,1.62,0,0,0-.66-2.463A2.993,2.993,0,0,1,24.676,4.3a1.62,1.62,0,0,0-1.8-1.8A2.991,2.991,0,0,1,20.182.941a1.619,1.619,0,0,0-2.463-.66,2.988,2.988,0,0,1-3.1,0,1.62,1.62,0,0,0-2.463.66,2.991,2.991,0,0,1-2.69,1.553,1.62,1.62,0,0,0-1.8,1.8,2.991,2.991,0,0,1-1.553,2.69,1.619,1.619,0,0,0-.66,2.463,2.99,2.99,0,0,1,0,3.106,1.62,1.62,0,0,0,.66,2.463,2.992,2.992,0,0,1,1.553,2.689,1.62,1.62,0,0,0,1.8,1.8,2.992,2.992,0,0,1,2.69,1.553,1.62,1.62,0,0,0,2.463.66,2.992,2.992,0,0,1,3.105,0,1.62,1.62,0,0,0,2.463-.661ZM17.518,16H15.737V9.278a6.146,6.146,0,0,1-2.305,1.351V9.012a5.156,5.156,0,0,0,1.517-.865,3.287,3.287,0,0,0,1.123-1.486h1.446V16Zm6.642,3.824c-3.562.375-2.838,1.256-3.65,1.943a2.514,2.514,0,0,1-2.107.807l5.5,9.455,1.35-3.5,3.846.5-4.939-9.2Z" transform="translate(-2.902 0.034)"/>
</svg>
