<svg xmlns="http://www.w3.org/2000/svg" viewBox="0 0 29 21">
  <defs>
    <style>
      .cls-1 {
        fill: #76706b;
      }
    </style>
  </defs>
  <path id="megaphone2" class="cls-1" d="M28.5,27A1.5,1.5,0,0,1,27,25.5V7.5a1.5,1.5,0,0,1,3,0v18A1.5,1.5,0,0,1,28.5,27ZM21,25a2,2,0,0,1-2,2H10a2,2,0,0,1-2-2V21.041l-3.991-.888V12.924L26.033,8.071V25.055L21,23.936V25Zm-1-1.287L9,21.264V25a1,1,0,0,0,1,1h9a1,1,0,0,0,1-1ZM2,21a1,1,0,0,1-1-1V13a1,1,0,0,1,2,0v7A1,1,0,0,1,2,21Z" transform="translate(-1 -6)"/>
</svg>
