<svg xmlns="http://www.w3.org/2000/svg" viewBox="0 0 15 29.002">
  <defs>
    <style>
      .cls-1 {
        fill: #76706b;
      }
    </style>
  </defs>
  <path id="microphone" class="cls-1" d="M23,18.536V17.043H22v1.493a6.526,6.526,0,0,1-6.533,6.473h0A6.472,6.472,0,0,1,9,18.536V17.043H8v1.493A7.446,7.446,0,0,0,14.41,25.9v3.021c-2.836.214-4.979,1.174-4.979,2.064,0,.023,12.282.023,12.282,0,0-.924-2.316-1.916-5.311-2.078V25.91A7.5,7.5,0,0,0,23,18.536Zm-7.532,5.415a5.532,5.532,0,0,0,5.54-5.478V17.042H9.99v1.431A5.479,5.479,0,0,0,15.468,23.951Zm5.54-16.476a5.509,5.509,0,0,0-11.018,0v8.572H21.008V7.475ZM17.5,4.012a.5.5,0,1,1-.5.5A.5.5,0,0,1,17.5,4.012Zm-2,0a.5.5,0,1,1-.5.5A.5.5,0,0,1,15.5,4.012Zm-2,0a.5.5,0,1,1-.5.5A.5.5,0,0,1,13.5,4.012Zm-2,11a.5.5,0,1,1,.5-.5A.5.5,0,0,1,11.5,15.012Zm0-2a.5.5,0,1,1,.5-.5A.5.5,0,0,1,11.5,13.012Zm0-2a.5.5,0,1,1,.5-.5A.5.5,0,0,1,11.5,11.012Zm0-2a.5.5,0,1,1,.5-.5A.5.5,0,0,1,11.5,9.012Zm1-2a.5.5,0,1,1,.5-.5A.5.5,0,0,1,12.5,7.012Zm1,8a.5.5,0,1,1,.5-.5A.5.5,0,0,1,13.5,15.012Zm0-2a.5.5,0,1,1,.5-.5A.5.5,0,0,1,13.5,13.012Zm0-2a.5.5,0,1,1,.5-.5A.5.5,0,0,1,13.5,11.012Zm0-2a.5.5,0,1,1,.5-.5A.5.5,0,0,1,13.5,9.012Zm1-2a.5.5,0,1,1,.5-.5A.5.5,0,0,1,14.5,7.012Zm1,8a.5.5,0,1,1,.5-.5A.5.5,0,0,1,15.5,15.012Zm0-2a.5.5,0,1,1,.5-.5A.5.5,0,0,1,15.5,13.012Zm0-2a.5.5,0,1,1,.5-.5A.5.5,0,0,1,15.5,11.012Zm0-2a.5.5,0,1,1,.5-.5A.5.5,0,0,1,15.5,9.012Zm1-2a.5.5,0,1,1,.5-.5A.5.5,0,0,1,16.5,7.012Zm1,8a.5.5,0,1,1,.5-.5A.5.5,0,0,1,17.5,15.012Zm0-2a.5.5,0,1,1,.5-.5A.5.5,0,0,1,17.5,13.012Zm0-2a.5.5,0,1,1,.5-.5A.5.5,0,0,1,17.5,11.012Zm0-2a.5.5,0,1,1,.5-.5A.5.5,0,0,1,17.5,9.012Zm1-2a.5.5,0,1,1,.5-.5A.5.5,0,0,1,18.5,7.012Zm1,8a.5.5,0,1,1,.5-.5A.5.5,0,0,1,19.5,15.012Zm0-2a.5.5,0,1,1,.5-.5A.5.5,0,0,1,19.5,13.012Zm0-2a.5.5,0,1,1,.5-.5A.5.5,0,0,1,19.5,11.012Zm0-2a.5.5,0,1,1,.5-.5A.5.5,0,0,1,19.5,9.012Z" transform="translate(-8 -1.998)"/>
</svg>
