<svg xmlns="http://www.w3.org/2000/svg" viewBox="0 0 27.248 27.208">
  <defs>
    <style>
      .cls-1 {
        fill: #76706b;
      }
    </style>
  </defs>
  <path id="microphone4" class="cls-1" d="M18.251,12.906a8.015,8.015,0,0,0-.782-6.327c.025.035-10.879,11.027-10.957,10.958a8.14,8.14,0,0,0,6.267.856c-.015-.053,5.428-5.495,5.472-5.487Zm-1.945-8.08A8.391,8.391,0,0,0,10.512,2.4a8.147,8.147,0,0,0-8.136,8.156,8.586,8.586,0,0,0,2.41,5.793S16.237,4.92,16.306,4.826Zm11.506,21.64s.266-2.3-.4-2.961c-.044-.044-7.646-9.325-7.646-9.325l-5.657,5.657,9.281,7.689c.619.707,3.005.354,3.005.354L28.3,29.6l1.326-1.326-1.812-1.812Z" transform="translate(-2.376 -2.396)"/>
</svg>
