<svg xmlns="http://www.w3.org/2000/svg" viewBox="0 0 14.985 29.043">
  <defs>
    <style>
      .cls-1 {
        fill: #76706b;
      }
    </style>
  </defs>
  <path id="microphone3" class="cls-1" d="M16.4,25.936v2.993C19.392,29.09,21.7,30.08,21.7,31c0,.023-12.268.023-12.268,0,0-.889,2.142-1.849,4.973-2.062V25.924a7.44,7.44,0,0,1-6.4-7.354V17.015H9V18.57a6.466,6.466,0,0,0,6.464,6.466h0a6.466,6.466,0,0,0,6.464-6.466V17.015h1.058V18.57A7.492,7.492,0,0,1,16.4,25.936Zm-.9-1.981a5.493,5.493,0,0,1-5.494-5.494V15.984H14.5v-1H10.006v-1H14.5v-1H10.006v-1H14.5v-1H10.006v-1H14.5v-1H10.006V7.41a5.494,5.494,0,0,1,10.988,0V8.992H16.5v1h4.5v1H16.5v1h4.5v1H16.5v1h4.5v1H16.5v1h4.5v2.477A5.494,5.494,0,0,1,15.5,23.955Z" transform="translate(-8.008 -1.978)"/>
</svg>
