<svg xmlns="http://www.w3.org/2000/svg" viewBox="0 0 15 29.003">
  <defs>
    <style>
      .cls-1 {
        fill: #76706b;
      }
    </style>
  </defs>
  <path id="microphone2" class="cls-1" d="M16.4,25.911v2.995c3,.162,5.312,1.154,5.312,2.078,0,.023-12.282.023-12.282,0,0-.891,2.144-1.851,4.979-2.064V25.9A7.448,7.448,0,0,1,8,18.536V17.043H9v1.493a6.473,6.473,0,0,0,6.471,6.473h0A6.526,6.526,0,0,0,22,18.536V17.043h1v1.493a7.5,7.5,0,0,1-6.6,7.375Zm-.933-1.96A5.479,5.479,0,0,1,9.99,18.473V17.042H21.008v1.431a5.532,5.532,0,0,1-5.54,5.478ZM9.99,7.475a5.509,5.509,0,0,1,11.018,0v8.572H9.99V7.475Z" transform="translate(-8 -1.998)"/>
</svg>
