<svg xmlns="http://www.w3.org/2000/svg" viewBox="0 0 22 22">
  <defs>
    <style>
      .cls-1 {
        fill: #76706b;
      }
    </style>
  </defs>
  <path id="minus3" class="cls-1" d="M8.5,5h-3a.5.5,0,0,0-.5.5v3a.5.5,0,0,0,1,0V6H8.5a.5.5,0,0,0,0-1Zm3,1h3a.5.5,0,0,0,0-1h-3a.5.5,0,0,0,0,1Zm9-1h-3a.5.5,0,0,0,0,1h3a.5.5,0,0,0,0-1Zm6,0h-3a.5.5,0,0,0,0,1H26V8.5a.5.5,0,0,0,1,0v-3A.5.5,0,0,0,26.5,5Zm0,6a.5.5,0,0,0-.5.5v3a.5.5,0,0,0,1,0v-3A.5.5,0,0,0,26.5,11Zm0,6a.5.5,0,0,0-.5.5v3a.5.5,0,0,0,1,0v-3A.5.5,0,0,0,26.5,17Zm0,6a.5.5,0,0,0-.5.5V26H23.5a.5.5,0,0,0,0,1h3a.5.5,0,0,0,.5-.5v-3A.5.5,0,0,0,26.5,23Zm-6,3h-3a.5.5,0,0,0,0,1h3a.5.5,0,0,0,0-1Zm-6,0h-3a.5.5,0,0,0,0,1h3a.5.5,0,0,0,0-1Zm-6,0H6V23.5a.5.5,0,0,0-1,0v3a.5.5,0,0,0,.5.5h3a.5.5,0,0,0,0-1Zm-3-5a.5.5,0,0,0,.5-.5v-3a.5.5,0,0,0-1,0v3A.5.5,0,0,0,5.5,21Zm0-6a.5.5,0,0,0,.5-.5v-3a.5.5,0,0,0-1,0v3A.5.5,0,0,0,5.5,15Zm6.438,2h8a1,1,0,0,0,0-2h-8a1,1,0,0,0,0,2Z" transform="translate(-5 -5)"/>
</svg>
