<svg xmlns="http://www.w3.org/2000/svg" viewBox="0 0 23.658 23.843">
  <defs>
    <style>
      .cls-1 {
        fill: #76706b;
      }
    </style>
  </defs>
  <path id="moonandstar" class="cls-1" d="M19.182,26.328a10.328,10.328,0,0,1,.113-20.656,12.32,12.32,0,0,1,4,.806,12.188,12.188,0,0,0-7.1-2.4A11.645,11.645,0,0,0,7.675,7.551,11.446,11.446,0,0,0,4.172,16,11.492,11.492,0,0,0,7.66,24.434a11.485,11.485,0,0,0,8.434,3.488,11.844,11.844,0,0,0,7.2-2.416,13.215,13.215,0,0,1-4.113.822Zm2.371-9.668-1.064,3.3,2.807-2.03,2.791,2.03-1.064-3.3,2.807-2.02H24.36l-1.065-3.3-1.08,3.3H18.746Z" transform="translate(-4.172 -4.079)"/>
</svg>
