<svg xmlns="http://www.w3.org/2000/svg" viewBox="0 0 25.344 29.824">
  <defs>
    <style>
      .cls-1 {
        fill: #76706b;
      }
    </style>
  </defs>
  <path id="mouse" class="cls-1" d="M22.956,30.972H17.972a5.981,5.981,0,0,1-5.981-5.981V16.019h6.044v1.994a1.941,1.941,0,0,0,1.932,1.993h1a1.993,1.993,0,0,0,1.994-1.993V16.019H29v8.972A6.035,6.035,0,0,1,22.956,30.972Zm0-16.947a1.994,1.994,0,0,0-1.994-1.994h0V6.112s-1.308-.062,1.932-.062A5.783,5.783,0,0,1,29,12.031v2.928H22.956Zm-2.918-8.65c0-1.927-.907-3-2.723-3q-2.881,0-4.409,4.151l-.209.567q-1.786,4.853-5.235,4.853a3.876,3.876,0,0,1-2.6-1.06A3.036,3.036,0,0,1,3.656,8.607c0-.4.188-.6.566-.6q.383,0,.789.962a2.535,2.535,0,0,0,2.464,1.776A2.868,2.868,0,0,0,9.613,9.9a11.635,11.635,0,0,0,1.892-3.249l.456-1.011Q13.97,1.148,17.37,1.148c2.6,0,3.9,1.482,3.9,4.227H20.038Zm1.921,9.148v2.99a1.5,1.5,0,1,1-2.99,0v-2.99a1.5,1.5,0,1,1,2.99,0ZM18.034,6.05c3.239,0,1.993.062,1.993.062v5.919a1.993,1.993,0,0,0-1.993,1.994v.935H11.99V12.032A5.734,5.734,0,0,1,18.034,6.05Z" transform="translate(-3.656 -1.148)"/>
</svg>
