<svg xmlns="http://www.w3.org/2000/svg" viewBox="0 0 23.413 27.934">
  <defs>
    <style>
      .cls-1 {
        fill: #76706b;
      }
    </style>
  </defs>
  <path id="mug" class="cls-1" d="M25.761,25H23.037v2.164a2.907,2.907,0,0,1-2.924,2.8H9.8a2.8,2.8,0,0,1-2.8-2.8v-15.1h3V26.974h1.988l0-14.9A5.892,5.892,0,0,0,14,12.892V26.975H15.99V12.95a4.983,4.983,0,0,0,2.016-.807V26.975h1.988V12.069H25.76A2.239,2.239,0,0,1,28,14.308v8.457A2.238,2.238,0,0,1,25.761,25Zm.23-10.995H23.036v8.985h2.955V14.01Zm-4.769-2.868A3.615,3.615,0,0,1,18.7,10.121a4.449,4.449,0,0,1-7.21.118A3.625,3.625,0,0,1,5.473,8.316a1.957,1.957,0,0,1,1.072-3.6,1.994,1.994,0,0,1,.234.023,3.619,3.619,0,0,1,2.189-.8A2.785,2.785,0,0,1,13.9,3.23a4.137,4.137,0,0,1,2.35.017,2.789,2.789,0,0,1,4.923.624c.017,0,.031-.005.048-.005a3.638,3.638,0,1,1,0,7.276Z" transform="translate(-4.586 -2.033)"/>
</svg>
