<svg xmlns="http://www.w3.org/2000/svg" viewBox="0 0 22.958 24.925">
  <defs>
    <style>
      .cls-1 {
        fill: #76706b;
      }
    </style>
  </defs>
  <path id="music" class="cls-1" d="M26.948,3.538A60.736,60.736,0,0,0,10.011,6.326c0-.035.02,15.928.02,15.928a5.027,5.027,0,0,0-3.211.432c-2.132.969-3.3,2.928-2.6,4.375s2.992,1.838,5.124.867c1.949-1.045,2.576-1.99,2.64-3.357l.048-13.832A57.427,57.427,0,0,1,24.958,8.531V20.9a5.531,5.531,0,0,0-3.451.414c-2.132.971-3.3,2.93-2.6,4.377s2.992,1.836,5.125.867a4.927,4.927,0,0,0,2.943-3.029S26.927,3.511,26.948,3.538Z" transform="translate(-4.02 -3.538)"/>
</svg>
