<svg xmlns="http://www.w3.org/2000/svg" viewBox="0 0 24.938 24.938">
  <defs>
    <style>
      .cls-1 {
        fill: #76706b;
      }
    </style>
  </defs>
  <path id="mute" class="cls-1" d="M16,28.469A12.469,12.469,0,1,1,28.469,16,12.468,12.468,0,0,1,16,28.469Zm-4-19c-.861,0-1.559.93-1.559,2.078s.7,2.078,1.559,2.078,1.559-.931,1.559-2.078S12.857,9.473,12,9.473Zm-.148,8.918-.52.9L14.988,21.4l-3.725,2.149.52.9L16.027,22l4.244,2.449.52-.9L17.066,21.4l3.659-2.113-.52-.9L16.026,20.8l-4.177-2.413Zm8.2-8.91c-.859,0-1.558.931-1.558,2.078s.7,2.078,1.558,2.078,1.56-.93,1.56-2.078S20.908,9.481,20.047,9.481Z" transform="translate(-3.531 -3.531)"/>
</svg>
