<svg xmlns="http://www.w3.org/2000/svg" viewBox="0 0 33.126 33.125">
  <defs>
    <style>
      .cls-1 {
        fill: #76706b;
      }
    </style>
  </defs>
  <path id="navigation" class="cls-1" d="M31.625,13.938a9.231,9.231,0,0,0-2.6,1H27.037a10.448,10.448,0,0,0-2.755-6.6l1.312-1.313a9.78,9.78,0,0,0,2.679-1.176,1.5,1.5,0,1,0-2.121-2.122,9.243,9.243,0,0,0-1.133,2.548l-1.4,1.4A10.439,10.439,0,0,0,17,4.959V3.1A9.827,9.827,0,0,0,18.062.375a1.5,1.5,0,0,0-3,0,9.231,9.231,0,0,0,1,2.6V4.963a10.446,10.446,0,0,0-6.6,2.755L8.149,6.4a9.786,9.786,0,0,0-1.177-2.68A1.5,1.5,0,0,0,4.851,5.847,9.2,9.2,0,0,0,7.4,6.98l1.4,1.4a10.44,10.44,0,0,0-2.713,6.554H4.1a9.209,9.209,0,0,0-2.6-1,1.5,1.5,0,0,0,0,3,9.827,9.827,0,0,0,2.727-1.062H6.085A10.438,10.438,0,0,0,8.8,22.491l-1.4,1.4a9.213,9.213,0,0,0-2.548,1.133,1.5,1.5,0,0,0,2.121,2.121A9.785,9.785,0,0,0,8.15,24.47l1.313-1.313a10.448,10.448,0,0,0,6.6,2.755V27.9a9.22,9.22,0,0,0-1,2.6,1.5,1.5,0,0,0,3,0A9.827,9.827,0,0,0,17,27.773V25.915A10.432,10.432,0,0,0,23.617,23.2l1.4,1.4a9.2,9.2,0,0,0,1.133,2.547,1.5,1.5,0,0,0,2.121-2.121A9.808,9.808,0,0,0,25.6,23.85l-1.312-1.312a10.446,10.446,0,0,0,2.758-6.663H28.9a9.784,9.784,0,0,0,2.727,1.062,1.5,1.5,0,1,0,0-3ZM10.215,9.8l3.552,3.552a3.472,3.472,0,0,0-.655,1.587H8.088A8.45,8.45,0,0,1,10.215,9.8ZM8.084,15.875h5.022a3.463,3.463,0,0,0,.662,1.65l-3.553,3.552a8.462,8.462,0,0,1-2.131-5.2Zm7.978,8.037a8.446,8.446,0,0,1-5.186-2.17l3.55-3.55a3.462,3.462,0,0,0,1.636.694v5.026Zm0-11.924a3.463,3.463,0,0,0-1.636.695l-3.55-3.55a8.451,8.451,0,0,1,5.186-2.17v5.025Zm8.975,2.95H20.012a3.466,3.466,0,0,0-.694-1.636l3.55-3.55A8.448,8.448,0,0,1,25.037,14.938ZM22.2,9.09,18.65,12.643A3.467,3.467,0,0,0,17,11.981V6.959A8.462,8.462,0,0,1,22.2,9.09ZM17,23.915V18.894a3.472,3.472,0,0,0,1.65-.661L22.2,21.785A8.456,8.456,0,0,1,17,23.915Zm5.867-2.792-3.55-3.55a3.456,3.456,0,0,0,.7-1.7h5.021a8.43,8.43,0,0,1-2.172,5.248Z" transform="translate(0 1.125)"/>
</svg>
