<svg xmlns="http://www.w3.org/2000/svg" viewBox="0 0 26 26">
  <defs>
    <style>
      .cls-1 {
        fill: #76706b;
      }
    </style>
  </defs>
  <path id="number3" class="cls-1" d="M16,3A13,13,0,1,0,29,16,13,13,0,0,0,16,3Zm0,24A11,11,0,1,1,27,16,11,11,0,0,1,16,27Zm1.248-11.781a2.288,2.288,0,0,0,.738-3.778,2.99,2.99,0,0,0-2.275-.9,3.508,3.508,0,0,0-1.5.311,2.53,2.53,0,0,0-1.042.855,3.979,3.979,0,0,0-.559,1.454l1.773.3a1.616,1.616,0,0,1,.426-1,1.163,1.163,0,0,1,.845-.343,1.038,1.038,0,0,1,1.106,1.11,1.209,1.209,0,0,1-.413.957,1.689,1.689,0,0,1-1.195.339l-.213,1.565a3.371,3.371,0,0,1,.885-.144,1.248,1.248,0,0,1,.952.423,1.623,1.623,0,0,1,.391,1.147,1.744,1.744,0,0,1-.407,1.214,1.361,1.361,0,0,1-1.949.075,1.748,1.748,0,0,1-.479-1.086l-1.859.226a3.074,3.074,0,0,0,1.04,2.047,3.308,3.308,0,0,0,2.258.782,3.323,3.323,0,0,0,2.4-.929,3.006,3.006,0,0,0,.965-2.247,2.4,2.4,0,0,0-.515-1.55,2.347,2.347,0,0,0-1.377-.826Z" transform="translate(-3 -3)"/>
</svg>
