<svg xmlns="http://www.w3.org/2000/svg" viewBox="0 0 26 26">
  <defs>
    <style>
      .cls-1 {
        fill: #76706b;
      }
    </style>
  </defs>
  <path id="number15" class="cls-1" d="M16,3A13,13,0,1,0,29,16,13,13,0,0,0,16,3Zm3.546,17.68a4.1,4.1,0,0,1-3.492,1.7,4.33,4.33,0,0,1-2.911-.959A3.967,3.967,0,0,1,11.8,18.844l2.469-.256a2.106,2.106,0,0,0,.623,1.324,1.683,1.683,0,0,0,1.192.488,1.658,1.658,0,0,0,1.307-.627,2.868,2.868,0,0,0,.534-1.893A2.593,2.593,0,0,0,17.39,16.1,1.779,1.779,0,0,0,16,15.509a2.522,2.522,0,0,0-1.911.938l-2-.289L13.36,9.447h6.531v2.312H15.233l-.4,2.192a3.787,3.787,0,0,1,1.693-.411,3.727,3.727,0,0,1,2.8,1.2,4.3,4.3,0,0,1,1.146,3.1,4.664,4.664,0,0,1-.924,2.841Z" transform="translate(-3 -3)"/>
</svg>
