<svg xmlns="http://www.w3.org/2000/svg" viewBox="0 0 26 26">
  <defs>
    <style>
      .cls-1 {
        fill: #76706b;
      }
    </style>
  </defs>
  <path id="number20" class="cls-1" d="M16.738,11.478a1.233,1.233,0,0,0-.8-.286,1.249,1.249,0,0,0-.805.286,1.919,1.919,0,0,0-.549,1.024,14.048,14.048,0,0,0-.256,3.226,13.968,13.968,0,0,0,.229,3.116,2.2,2.2,0,0,0,.579,1.13,1.283,1.283,0,0,0,1.606,0,1.915,1.915,0,0,0,.549-1.024,13.979,13.979,0,0,0,.256-3.217,13.889,13.889,0,0,0-.23-3.116,2.219,2.219,0,0,0-.578-1.134ZM16,3A13,13,0,1,0,29,16,13,13,0,0,0,16,3Zm2.858,17.983A3.52,3.52,0,0,1,15.937,22.3,3.691,3.691,0,0,1,12.9,20.856Q11.75,19.41,11.75,15.7q0-3.639,1.267-5.238a3.52,3.52,0,0,1,2.921-1.318,3.526,3.526,0,0,1,2.93,1.336q1.257,1.583,1.258,5.247t-1.268,5.254Z" transform="translate(-3 -3)"/>
</svg>
