<svg xmlns="http://www.w3.org/2000/svg" viewBox="0 0 26 26">
  <defs>
    <style>
      .cls-1 {
        fill: #76706b;
      }
    </style>
  </defs>
  <path id="number10" class="cls-1" d="M16,3A13,13,0,1,0,29,16,13,13,0,0,0,16,3Zm0,24A11,11,0,1,1,27,16,11,11,0,0,1,16,27Zm-.006-16.263a2.736,2.736,0,0,0-2.272,1.026,6.617,6.617,0,0,0-.985,4.074,6.65,6.65,0,0,0,.9,4.01,2.871,2.871,0,0,0,2.361,1.124,2.737,2.737,0,0,0,2.271-1.025,6.642,6.642,0,0,0,.986-4.088,6.629,6.629,0,0,0-.979-4.082,2.743,2.743,0,0,0-2.278-1.039Zm1.051,7.622a1.5,1.5,0,0,1-.426.8.992.992,0,0,1-1.247,0,1.7,1.7,0,0,1-.45-.878,10.87,10.87,0,0,1-.178-2.423,10.917,10.917,0,0,1,.2-2.508,1.477,1.477,0,0,1,.426-.8.985.985,0,0,1,1.246,0,1.715,1.715,0,0,1,.449.882,10.834,10.834,0,0,1,.18,2.423,10.812,10.812,0,0,1-.2,2.5Z" transform="translate(-3 -3)"/>
</svg>
