<svg xmlns="http://www.w3.org/2000/svg" viewBox="0 0 26 26">
  <defs>
    <style>
      .cls-1 {
        fill: #76706b;
      }
    </style>
  </defs>
  <path id="number9" class="cls-1" d="M16,3A13,13,0,1,0,29,16,13,13,0,0,0,16,3Zm0,24A11,11,0,1,1,27,16,11,11,0,0,1,16,27Zm-.391-15.663a3.082,3.082,0,0,0-2.309.933,3.375,3.375,0,0,0-.9,2.458,3.33,3.33,0,0,0,.857,2.376,2.709,2.709,0,0,0,2.041.913,2.3,2.3,0,0,0,1.812-.842,4.674,4.674,0,0,1-.532,2.271,1.238,1.238,0,0,1-1.011.547,1.056,1.056,0,0,1-.758-.274,1.343,1.343,0,0,1-.355-.843l-1.858.2a3.034,3.034,0,0,0,.929,1.877,2.8,2.8,0,0,0,1.9.629,3.29,3.29,0,0,0,2.652-1.219A6.177,6.177,0,0,0,19.091,16.4a6.1,6.1,0,0,0-.978-3.883,3.107,3.107,0,0,0-2.5-1.18Zm.946,4.836a1.182,1.182,0,0,1-.931.438,1.2,1.2,0,0,1-.956-.455,2.194,2.194,0,0,1-.382-1.426,2.151,2.151,0,0,1,.351-1.378,1.105,1.105,0,0,1,.885-.42,1.258,1.258,0,0,1,.986.513,2.2,2.2,0,0,1,.427,1.443A1.905,1.905,0,0,1,16.555,16.173Z" transform="translate(-3 -3)"/>
</svg>
