<svg xmlns="http://www.w3.org/2000/svg" viewBox="0 0 26 26">
  <defs>
    <style>
      .cls-1 {
        fill: #76706b;
      }
    </style>
  </defs>
  <path id="number16" class="cls-1" d="M16.062,16.037a1.545,1.545,0,0,0-1.2.558,2.417,2.417,0,0,0-.493,1.647,2.79,2.79,0,0,0,.555,1.858,1.628,1.628,0,0,0,1.267.655,1.446,1.446,0,0,0,1.144-.537,2.7,2.7,0,0,0,.457-1.757A2.83,2.83,0,0,0,17.3,16.62a1.545,1.545,0,0,0-1.233-.583ZM16,3A13,13,0,1,0,29,16,13,13,0,0,0,16,3Zm3.047,18.607a3.971,3.971,0,0,1-2.98,1.194,3.985,3.985,0,0,1-3.21-1.516Q11.6,19.768,11.6,16.315q0-3.542,1.312-5.106a4.231,4.231,0,0,1,3.4-1.564,3.607,3.607,0,0,1,2.432.825,3.871,3.871,0,0,1,1.228,2.4l-2.391.263a1.735,1.735,0,0,0-.458-1.086,1.34,1.34,0,0,0-.961-.351,1.624,1.624,0,0,0-1.327.7,5.887,5.887,0,0,0-.683,2.92,2.891,2.891,0,0,1,2.3-1.089A3.509,3.509,0,0,1,19.1,15.4a4.26,4.26,0,0,1,1.1,3.038A4.348,4.348,0,0,1,19.047,21.607Z" transform="translate(-3 -3)"/>
</svg>
