<svg xmlns="http://www.w3.org/2000/svg" viewBox="0 0 26 26">
  <defs>
    <style>
      .cls-1 {
        fill: #76706b;
      }
    </style>
  </defs>
  <path id="number8" class="cls-1" d="M16,3A13,13,0,1,0,29,16,13,13,0,0,0,16,3Zm0,24A11,11,0,1,1,27,16,11,11,0,0,1,16,27Zm1.206-11.607a2.291,2.291,0,0,0,1.018-.831,2.184,2.184,0,0,0,.362-1.241,2.421,2.421,0,0,0-.789-1.853,3.148,3.148,0,0,0-2.219-.731,3.139,3.139,0,0,0-2.225.731,2.425,2.425,0,0,0-.783,1.853,2.15,2.15,0,0,0,1.422,2.072,2.6,2.6,0,0,0-1.27,1.051,2.88,2.88,0,0,0-.4,1.5,2.806,2.806,0,0,0,1.072,2.328,3.553,3.553,0,0,0,2.275.719,3.213,3.213,0,0,0,2.354-.87,3.025,3.025,0,0,0,.885-2.259,2.6,2.6,0,0,0-.434-1.486,2.68,2.68,0,0,0-1.266-.979Zm-2.487-2.8a1.189,1.189,0,0,1,.881-.328,1.156,1.156,0,0,1,.857.325,1.172,1.172,0,0,1,.324.865,1.206,1.206,0,0,1-.328.9,1.191,1.191,0,0,1-.874.325,1.175,1.175,0,0,1-.864-.321,1.205,1.205,0,0,1-.324-.9,1.175,1.175,0,0,1,.328-.869Zm1.9,6.424a1.279,1.279,0,0,1-.985.428A1.32,1.32,0,0,1,14.617,19a1.941,1.941,0,0,1-.06-2.3,1.2,1.2,0,0,1,1.049-.486,1.314,1.314,0,0,1,1.006.428,1.6,1.6,0,0,1,.4,1.133,1.779,1.779,0,0,1-.39,1.237Z" transform="translate(-3 -3)"/>
</svg>
