<svg xmlns="http://www.w3.org/2000/svg" viewBox="0 0 26 26">
  <defs>
    <style>
      .cls-1 {
        fill: #76706b;
      }
    </style>
  </defs>
  <path id="number19" class="cls-1" d="M15.93,11.443a1.434,1.434,0,0,0-1.143.539,2.74,2.74,0,0,0-.454,1.768,2.8,2.8,0,0,0,.494,1.828,1.583,1.583,0,0,0,2.438.022,2.443,2.443,0,0,0,.489-1.649A2.806,2.806,0,0,0,17.2,12.1a1.625,1.625,0,0,0-1.273-.657ZM16,3A13,13,0,1,0,29,16,13,13,0,0,0,16,3Zm3.213,18a4.222,4.222,0,0,1-3.4,1.565,3.592,3.592,0,0,1-2.439-.807,3.905,3.905,0,0,1-1.193-2.413l2.391-.265a1.747,1.747,0,0,0,.456,1.085,1.344,1.344,0,0,0,.972.353,1.583,1.583,0,0,0,1.3-.7,6.052,6.052,0,0,0,.683-2.923,2.953,2.953,0,0,1-2.332,1.081A3.49,3.49,0,0,1,13.018,16.8a4.272,4.272,0,0,1-1.1-3.052,4.338,4.338,0,0,1,1.165-3.156,3.962,3.962,0,0,1,2.969-1.2,4,4,0,0,1,3.219,1.517q1.257,1.516,1.257,4.99,0,3.536-1.311,5.1Z" transform="translate(-3 -3)"/>
</svg>
