<svg xmlns="http://www.w3.org/2000/svg" viewBox="0 0 26 26">
  <defs>
    <style>
      .cls-1 {
        fill: #76706b;
      }
    </style>
  </defs>
  <path id="number6" class="cls-1" d="M16,3A13,13,0,1,0,29,16,13,13,0,0,0,16,3Zm0,24A11,11,0,1,1,27,16,11,11,0,0,1,16,27Zm.52-12.315a2.244,2.244,0,0,0-1.784.848,4.588,4.588,0,0,1,.529-2.271,1.258,1.258,0,0,1,1.028-.545,1.034,1.034,0,0,1,.744.273,1.347,1.347,0,0,1,.355.845l1.859-.2a2.992,2.992,0,0,0-.954-1.853,2.808,2.808,0,0,0-1.89-.638,3.286,3.286,0,0,0-2.646,1.217,6.181,6.181,0,0,0-1.018,3.972,6.058,6.058,0,0,0,.978,3.866,3.1,3.1,0,0,0,2.5,1.18,3.088,3.088,0,0,0,2.318-.931,3.4,3.4,0,0,0,.9-2.472A3.33,3.33,0,0,0,18.58,15.6a2.715,2.715,0,0,0-2.06-.918ZM17.2,19.36a1.118,1.118,0,0,1-.888.417,1.266,1.266,0,0,1-.983-.51,2.185,2.185,0,0,1-.43-1.449,1.9,1.9,0,0,1,.382-1.285,1.226,1.226,0,0,1,1.892.02,2.212,2.212,0,0,1,.383,1.436A2.108,2.108,0,0,1,17.2,19.36Z" transform="translate(-3 -3)"/>
</svg>
