<svg xmlns="http://www.w3.org/2000/svg" viewBox="0 0 26 26">
  <defs>
    <style>
      .cls-1 {
        fill: #76706b;
      }
    </style>
  </defs>
  <path id="number7" class="cls-1" d="M16,3A13,13,0,1,0,29,16,13,13,0,0,0,16,3Zm0,24A11,11,0,1,1,27,16,11,11,0,0,1,16,27ZM12.744,13.291h4.371a14.119,14.119,0,0,0-2.162,3.867A12.875,12.875,0,0,0,14.1,21.4h1.852a11.776,11.776,0,0,1,.434-3.012,13.433,13.433,0,0,1,1.28-3.184,10.3,10.3,0,0,1,1.653-2.3v-1.4h-6.57v1.781Z" transform="translate(-3 -3)"/>
</svg>
