<svg xmlns="http://www.w3.org/2000/svg" viewBox="0 0 26 26">
  <defs>
    <style>
      .cls-1 {
        fill: #76706b;
      }
    </style>
  </defs>
  <path id="number13" class="cls-1" d="M16,3A13,13,0,1,0,29,16,13,13,0,0,0,16,3Zm3,18.357a4.267,4.267,0,0,1-3.086,1.194,4.249,4.249,0,0,1-2.9-1,3.94,3.94,0,0,1-1.337-2.627l2.391-.289a2.25,2.25,0,0,0,.616,1.393,1.741,1.741,0,0,0,2.5-.1,2.255,2.255,0,0,0,.522-1.566,2.1,2.1,0,0,0-.5-1.479,1.6,1.6,0,0,0-1.223-.545,4.37,4.37,0,0,0-1.136.184l.272-2a2.164,2.164,0,0,0,1.529-.434,1.545,1.545,0,0,0,.526-1.224,1.327,1.327,0,0,0-1.41-1.421,1.482,1.482,0,0,0-1.077.438,2.066,2.066,0,0,0-.544,1.281l-2.281-.386a5.109,5.109,0,0,1,.717-1.875,3.242,3.242,0,0,1,1.336-1.1,4.469,4.469,0,0,1,1.921-.4,3.828,3.828,0,0,1,2.918,1.161,2.938,2.938,0,0,1-.953,4.853,3,3,0,0,1,1.772,1.063,3.081,3.081,0,0,1,.664,1.994A3.861,3.861,0,0,1,19,21.357Z" transform="translate(-3 -3)"/>
</svg>
