<svg xmlns="http://www.w3.org/2000/svg" viewBox="0 0 26 26">
  <defs>
    <style>
      .cls-1 {
        fill: #76706b;
      }
    </style>
  </defs>
  <path id="number2" class="cls-1" d="M16,3A13,13,0,1,0,29,16,13,13,0,0,0,16,3Zm0,24A11,11,0,1,1,27,16,11,11,0,0,1,16,27Zm1.564-9.223a12.382,12.382,0,0,0,1.26-1.278,5.307,5.307,0,0,0,.77-1.282,3.481,3.481,0,0,0,.242-1.289,2.625,2.625,0,0,0-.848-1.99,3.261,3.261,0,0,0-2.331-.8,3.607,3.607,0,0,0-2.256.69A3.13,3.13,0,0,0,13.328,14.1l1.914.191a1.852,1.852,0,0,1,.41-1.2,1.466,1.466,0,0,1,1.908-.016,1.338,1.338,0,0,1,.346.988,2.126,2.126,0,0,1-.4,1.176,13.522,13.522,0,0,1-1.592,1.64,12.713,12.713,0,0,0-2.16,2.4A4.628,4.628,0,0,0,13.1,21.2h6.734V19.42H16.017a3.34,3.34,0,0,1,.394-.534Q16.651,18.611,17.564,17.777Z" transform="translate(-3 -3)"/>
</svg>
