<svg xmlns="http://www.w3.org/2000/svg" viewBox="0 0 26 26">
  <defs>
    <style>
      .cls-1 {
        fill: #76706b;
      }
    </style>
  </defs>
  <path id="number5" class="cls-1" d="M16,3A13,13,0,1,0,29,16,13,13,0,0,0,16,3Zm0,24A11,11,0,1,1,27,16,11,11,0,0,1,16,27Zm.259-13.111a2.9,2.9,0,0,0-1.313.321l.305-1.7h3.622v-1.8H13.8l-.985,5.219,1.557.227a1.953,1.953,0,0,1,1.484-.734,1.378,1.378,0,0,1,1.077.462,2.021,2.021,0,0,1,.414,1.386,2.236,2.236,0,0,1-.417,1.475,1.287,1.287,0,0,1-1.02.489,1.317,1.317,0,0,1-.93-.379,1.634,1.634,0,0,1-.486-1.027l-1.913.2a3.066,3.066,0,0,0,1.046,2,3.375,3.375,0,0,0,2.264.744A3.181,3.181,0,0,0,18.6,19.445a3.618,3.618,0,0,0,.717-2.21,3.352,3.352,0,0,0-.889-2.415,2.892,2.892,0,0,0-2.17-.931Z" transform="translate(-3 -3)"/>
</svg>
