<svg xmlns="http://www.w3.org/2000/svg" viewBox="0 0 30 29">
  <defs>
    <style>
      .cls-1 {
        fill: #76706b;
      }
    </style>
  </defs>
  <path id="open" class="cls-1" d="M28,31H4a3,3,0,0,1-3-3V14a3,3,0,0,1,3-3H28a3,3,0,0,1,3,3V28A3,3,0,0,1,28,31ZM8,18.041a3.279,3.279,0,0,0-3,3.5,3.278,3.278,0,0,0,3,3.5,3.278,3.278,0,0,0,3-3.5A3.28,3.28,0,0,0,8,18.041Zm7.78.857a1.4,1.4,0,0,0-.458-.553,1.721,1.721,0,0,0-.707-.268,5.134,5.134,0,0,0-.87-.055H11.962v6.914H12.97V22.92h.842a2.247,2.247,0,0,0,1.679-.693,5.575,5.575,0,0,0,.464-2.3,3.031,3.031,0,0,0-.175-1.03Zm5.244,5.047H17.966V21.937h2.956v-.93H17.966V18.952h3.05v-.93H17.021v6.914h4Zm5.93-5.922H26.04v5.31l-3.012-5.31H22v6.914h.977V19.876l3.012,5.061h.965V18.023ZM13.823,21.93H12.97V18.953h.838a3.22,3.22,0,0,1,.706.051.852.852,0,0,1,.478.336,1.031,1.031,0,0,1,.182.613,4.4,4.4,0,0,1-.309,1.7,1.57,1.57,0,0,1-1.042.273ZM8,24.125a2.293,2.293,0,0,1-2-2.5,2.293,2.293,0,0,1,2-2.5,2.293,2.293,0,0,1,2,2.5A2.293,2.293,0,0,1,8,24.125ZM25,11,17.678,5.55a1.974,1.974,0,0,1-2.857-.371L7,11H6l8.493-6.518A2,2,0,1,1,18.428,4a1.984,1.984,0,0,1-.269.984L26,11Z" transform="translate(-1 -2)"/>
</svg>
