<svg xmlns="http://www.w3.org/2000/svg" viewBox="0 0 31 25">
  <defs>
    <style>
      .cls-1 {
        fill: #76706b;
      }
    </style>
  </defs>
  <path id="oven" class="cls-1" d="M30,29H1a1,1,0,0,1-1-1V11H31V28A1,1,0,0,1,30,29ZM27,14a1,1,0,0,0-1-1H5a1,1,0,0,0-1,1V26a1,1,0,0,0,1,1H26a1,1,0,0,0,1-1ZM9,15H22v1H9ZM0,6A1,1,0,0,1,1,5H3s.224-1,.5-1h8c.275,0,.5,1,.5,1h7s.224-1,.5-1h8c.275,0,.5,1,.5,1h2a1,1,0,0,1,1,1v4H0ZM28.479,9.021a1.5,1.5,0,1,0-1.5-1.5A1.5,1.5,0,0,0,28.479,9.021Zm-3.938,0a1.5,1.5,0,1,0-1.5-1.5A1.5,1.5,0,0,0,24.541,9.021Zm-4,0a1.5,1.5,0,1,0-1.5-1.5A1.5,1.5,0,0,0,20.541,9.021Zm-4,0a1.5,1.5,0,1,0-1.5-1.5A1.5,1.5,0,0,0,16.541,9.021Z" transform="translate(0 -4)"/>
</svg>
