<svg xmlns="http://www.w3.org/2000/svg" viewBox="0 0 27.214 27.212">
  <defs>
    <style>
      .cls-1 {
        fill: #76706b;
      }
    </style>
  </defs>
  <path id="patch" class="cls-1" d="M2.771,21.449a3,3,0,0,0,0,4.243l3.536,3.535a3,3,0,0,0,4.242,0l4.95-4.949L7.722,16.5,2.771,21.449Zm5.658-5.656,7.778,7.778,6.363-6.364L14.793,9.429,8.429,15.793ZM12,17H11V16h1Zm2,2H13V18h1Zm0-2H13V16h1Zm0-2H13V14h1Zm5,1h1v1H19Zm-2-2h1v1H17Zm0,2h1v1H17Zm0,2h1v1H17Zm-2-6h1v1H15Zm0,2h1v1H15Zm0,2h1v1H15Zm0,2h1v1H15Zm0,2h1v1H15ZM28.229,7.308,24.693,3.773a3,3,0,0,0-4.243,0L15.5,8.722,23.277,16.5l4.951-4.95A3,3,0,0,0,28.229,7.308Z" transform="translate(-1.892 -2.894)"/>
</svg>
