<svg xmlns="http://www.w3.org/2000/svg" viewBox="0 0 25.275 25.303">
  <defs>
    <style>
      .cls-1 {
        fill: #76706b;
      }
    </style>
  </defs>
  <path id="pen" class="cls-1" d="M6.625,18.044,3.362,27.98,7.723,23.6a2.783,2.783,0,0,1,.387-2.662,2.126,2.126,0,0,1,2.994.019,2.16,2.16,0,0,1,.045,3.02,2.874,2.874,0,0,1-2.764.337L4.062,28.652l9.7-3.408L17.3,18.88l-4.3-4.246-6.367,3.41Zm16.356-14.7s-6.011,6.01-6.938,6.938-1.414,4.419-1.414,4.419l2.695,2.7s3.4-.486,4.375-1.459l6.938-6.938L22.981,3.349Z" transform="translate(-3.362 -3.349)"/>
</svg>
