<svg xmlns="http://www.w3.org/2000/svg" viewBox="0 0 27.507 27.508">
  <defs>
    <style>
      .cls-1 {
        fill: #76706b;
      }
    </style>
  </defs>
  <path id="pen2" class="cls-1" d="M29.024,6.5,26.557,8.966,23.034,5.443,25.5,2.976A2.491,2.491,0,1,1,29.024,6.5Zm-1.41,2.818a.5.5,0,0,1,.7.7l-9.16,9.161a.5.5,0,1,1-.7-.7l5.99-5.99L19.51,7.555l2.114-2.113,4.933,4.933Zm-8.1-.351,3.523,3.523L8.94,26.583,5.417,23.06,19.511,8.966ZM2.246,29.754l2.466-5.989,3.523,3.523L2.246,29.754Z" transform="translate(-2.246 -2.246)"/>
</svg>
