<svg xmlns="http://www.w3.org/2000/svg" viewBox="0 0 28.458 28.469">
  <defs>
    <style>
      .cls-1 {
        fill: #76706b;
      }
    </style>
  </defs>
  <path id="pencil" class="cls-1" d="M5.582,20.054,20.468,5.168l6.369,6.369L11.951,26.423,5.582,20.054Zm15.571-11.3-.7-.7L8.474,20.041l.7.7Zm1.4,1.4-.7-.7L9.87,21.438l.7.7Zm1.4,1.4-.7-.7L11.266,22.833l.7.7Zm-.626-9.194a1.994,1.994,0,0,1,2.82-.013l3.512,3.512a1.994,1.994,0,0,1-.012,2.82l-2.17,2.17-6.32-6.32,2.17-2.169ZM5.092,20.883l6.03,6.03L5.838,28.79,3.215,26.167l1.877-5.284Zm-.255,8.234L1.771,30.234l1.117-3.066Z" transform="translate(-1.771 -1.765)"/>
</svg>
