<svg xmlns="http://www.w3.org/2000/svg" viewBox="0 0 25 32">
  <defs>
    <style>
      .cls-1 {
        fill: #76706b;
      }
    </style>
  </defs>
  <path id="phone3" class="cls-1" d="M26,32H5a2,2,0,0,1-2-2V6A2,2,0,0,1,5,4V28a2,2,0,0,0,2,2h4a2,2,0,0,0,2-2V4H26a2,2,0,0,1,2,2V30A2,2,0,0,1,26,32Zm-5-3h2V27H21Zm0-3h2V24H21Zm0-3h2V21H21Zm0-3h2V18H21Zm-3,9h2V27H18Zm0-3h2V24H18Zm0-3h2V21H18Zm0-3h2V18H18ZM26,7a1,1,0,0,0-1-1H16a1,1,0,0,0-1,1v4a1,1,0,0,0,1,1h9a1,1,0,0,0,1-1Zm0,11H24v2h2Zm0,3H24v2h2Zm0,3H24v2h2Zm0,3H24v2h2ZM11,29H7a1,1,0,0,1-1-1V3A1,1,0,0,1,7,2H8.938V0H10V2h1a1,1,0,0,1,1,1V28A1,1,0,0,1,11,29Z" transform="translate(-3)"/>
</svg>
