<svg xmlns="http://www.w3.org/2000/svg" viewBox="0 0 32.551 30.552">
  <defs>
    <style>
      .cls-1 {
        fill: #76706b;
      }
    </style>
  </defs>
  <path id="pictures2" class="cls-1" d="M26.6,29.587l-2.624-.72-.006-7.258,2.51.706L30.1,8.806,11.771,3.894,10.563,8.4H8.495l1.863-6.952L32.551,7.394,26.6,29.587ZM23.039,32H0V9.023H23.039Zm-2-20.979H2V25.006H21.041V11.021ZM7.849,20.993,10.132,17.3l2.283,2.3,3.139-4.727,3.283,8.134H4.281L6.136,19.3ZM6.484,17.086a1.5,1.5,0,1,1,1.5-1.5A1.5,1.5,0,0,1,6.484,17.086Z" transform="translate(0 -1.448)"/>
</svg>
