<svg xmlns="http://www.w3.org/2000/svg" viewBox="0 0 28 23">
  <defs>
    <style>
      .cls-1 {
        fill: #76706b;
      }
    </style>
  </defs>
  <path id="pictures3" class="cls-1" d="M28,8V24a2,2,0,0,1-2,2H5a2,2,0,0,0,2,2H28a2,2,0,0,0,2-2V10A2,2,0,0,0,28,8ZM27,23V7a2,2,0,0,0-2-2H4A2,2,0,0,0,2,7V23a2,2,0,0,0,2,2H25A2,2,0,0,0,27,23ZM4,7H25V23H4ZM15.627,17.311,12.639,14.13l-2.989,5.1L7.408,16.891,4.979,22.02H24.034l-4.3-11.245-4.11,6.536ZM8,14a2,2,0,1,0-2-2A2,2,0,0,0,8,14Z" transform="translate(-2 -5)"/>
</svg>
