<svg xmlns="http://www.w3.org/2000/svg" viewBox="0 0 24.007 21.983">
  <defs>
    <style>
      .cls-1 {
        fill: #76706b;
      }
    </style>
  </defs>
  <path id="pig" class="cls-1" d="M24.674,21.909A8.541,8.541,0,0,0,28,15.138c0-6.688-7.088-9.161-10.9-9.1s-4.948,1.07-4.948,1.07S10.86,6.17,9.485,5.38c-1.052-.41-1.3-.469-2.027-.234-.585,0-.217.974.018,1.325s1.366,2.29,1.366,2.29S6.464,11.21,6.288,12.82c0-.029-1.12-.009-1.734-.009S4,13.48,4,13.48l.017,4.714s-.038.669.519.669,1.738.013,1.738.013,1.663,2.415,2.717,2.854c0,.029-.911,2.5-.911,2.5a.7.7,0,0,0,.351,1.054c.79.292,2.851,1.157,3.729,1.421s1-.334,1-.334L14.03,24.5l5.685.009.869,1.935s.167.9,1.337.4,2.449-1.087,3.415-1.584a.944.944,0,0,0,.33-1.426l-.992-1.923ZM9.322,13.764a.966.966,0,1,1,.966-.966A.966.966,0,0,1,9.322,13.764Zm13.6-3.008c-.308.365-.509.1-.757.023a7.194,7.194,0,0,0-2.595-1.43,8.963,8.963,0,0,0-3.282-.243c-.248-.073-.549-.081-.551-.464.013-.473.587-.477.58-.493A10.829,10.829,0,0,1,19.8,8.44a8.575,8.575,0,0,1,2.75,1.454s.637.439.376.862Z" transform="translate(-3.997 -5.009)"/>
</svg>
