<svg xmlns="http://www.w3.org/2000/svg" viewBox="0 0 22.728 22.727">
  <defs>
    <style>
      .cls-1 {
        fill: #76706b;
      }
    </style>
  </defs>
  <path id="pil" class="cls-1" d="M5.6,18.621a5,5,0,0,0,0,7.072l.708.707a5,5,0,0,0,7.071,0l5.656-5.658-7.778-7.778L5.6,18.621Zm7.071,7.072a4,4,0,0,1-5.656,0l-.707-.707a4,4,0,0,1,0-5.658l4.949-4.949,6.364,6.363ZM25.4,7.308,24.693,6.6a5,5,0,0,0-7.071,0l-5.657,5.656,7.778,7.778L25.4,14.379a5,5,0,0,0,0-7.071Z" transform="translate(-4.137 -5.136)"/>
</svg>
