<svg xmlns="http://www.w3.org/2000/svg" viewBox="0 0 25 30.985">
  <defs>
    <style>
      .cls-1 {
        fill: #76706b;
      }
    </style>
  </defs>
  <path id="presentation" class="cls-1" d="M27,5.005H4a1,1,0,0,1,0-2H14.533v-1a1,1,0,1,1,1.995,0v1H27a1,1,0,0,1,0,2ZM27,21H4V6H27ZM7,13.032a4,4,0,1,0,8,0H11V9.023A4,4,0,0,0,7,13.032ZM18.024,9h-1v1h1Zm0,2h-1v1h1Zm0,2h-1v1h1Zm0,2h-1v1h1Zm0,2h-1v1h1ZM24.01,9H19.023v1H24.01Zm0,2H19.023v1H24.01Zm0,2H19.023v1H24.01Zm0,2H19.023v1H24.01Zm0,2H19.023v1H24.01ZM12.781,26h2.251V21h1v5h2.216L16.03,21h2l3.989,9H20.02l-1.33-3H16.03v5h-1v-5h-2.7l-1.351,3H8.985l4.052-9h1.995l-2.251,5Zm3.249-5Zm-1,0Z" transform="translate(-3 -1.007)"/>
</svg>
