<svg xmlns="http://www.w3.org/2000/svg" viewBox="0 0 28 21">
  <defs>
    <style>
      .cls-1 {
        fill: #76706b;
      }
    </style>
  </defs>
  <path id="profile" class="cls-1" d="M28,9H26.042V6.062L22,6l.021,3H9.875l.083-3L6,6.062v3L4,9a2,2,0,0,0-2,2V25a2,2,0,0,0,2,2H28a2,2,0,0,0,2-2V11A2,2,0,0,0,28,9ZM23,7h2v4H23ZM10,13.812c1.208,0,2.188,1.287,2.188,2.875s-.98,2.875-2.188,2.875-2.188-1.287-2.188-2.875S8.792,13.812,10,13.812ZM7,7H9v4H7ZM5.667,22.948s.237-1.9.776-2.261a7.679,7.679,0,0,1,2.09-.6s1.006,1.075,1.434,1.075S11.4,20.089,11.4,20.089a7.646,7.646,0,0,1,2.091.6c.633.422.791,2.261.791,2.261ZM26,22H17V21h9Zm0-2H17V19h9Zm0-2H17V17h9Zm0-2H17V15h9Z" transform="translate(-2 -6)"/>
</svg>
