<svg xmlns="http://www.w3.org/2000/svg" viewBox="0 0 28 25.063">
  <defs>
    <style>
      .cls-1 {
        fill: #76706b;
      }
    </style>
  </defs>
  <path id="profile2" class="cls-1" d="M23,11.031a1,1,0,0,0-1-1H19s.033-1.2.033-2.954A3.123,3.123,0,0,0,16,3.969a3.036,3.036,0,0,0-2.988,3.1c0,1.625-.012,2.964-.012,2.964H10a1,1,0,0,0-1,1V12.97H23V11.031ZM16,8.969a1,1,0,1,1,1-1A1,1,0,0,1,16,8.969Zm12,2.062-4-.062.021,3.1H8V11.094l-4-.062a2,2,0,0,0-2,2v14a2,2,0,0,0,2,2H28a2,2,0,0,0,2-2v-14A2,2,0,0,0,28,11.031ZM10,16.844c1.208,0,2.188,1.287,2.188,2.875s-.98,2.875-2.188,2.875-2.188-1.287-2.188-2.875S8.792,16.844,10,16.844ZM5.667,25.979s.237-1.9.776-2.261a7.679,7.679,0,0,1,2.09-.6S9.539,24.2,9.967,24.2,11.4,23.12,11.4,23.12a7.646,7.646,0,0,1,2.091.6c.633.422.791,2.261.791,2.261ZM26,25.031H17v-1h9Zm0-2H17v-1h9Zm0-2H17v-1h9Zm0-2H17v-1h9Z" transform="translate(-2 -3.969)"/>
</svg>
