<svg xmlns="http://www.w3.org/2000/svg" viewBox="0 0 28 18">
  <defs>
    <style>
      .cls-1 {
        fill: #76706b;
      }
    </style>
  </defs>
  <path id="profile3" class="cls-1" d="M28,25H25V24a1,1,0,0,0,0-2H23a1,1,0,0,0,0,2v1H10V24a1,1,0,0,0,0-2H8a1,1,0,0,0,0,2v1H4a2,2,0,0,1-2-2V9A2,2,0,0,1,4,7H28a2,2,0,0,1,2,2V23A2,2,0,0,1,28,25ZM10,9.812c-1.208,0-2.188,1.287-2.188,2.875s.98,2.875,2.188,2.875,2.188-1.287,2.188-2.875S11.208,9.812,10,9.812Zm3.49,6.876a7.683,7.683,0,0,0-2.091-.6s-1.006,1.075-1.433,1.075S8.532,16.09,8.532,16.09a7.632,7.632,0,0,0-2.09.6c-.539.358-.777,2.261-.777,2.261H14.28s-.157-1.84-.79-2.261ZM26,11H17v1h9Zm0,2H17v1h9Zm0,2H17v1h9Zm0,2H17v1h9Z" transform="translate(-2 -7)"/>
</svg>
