<svg xmlns="http://www.w3.org/2000/svg" viewBox="0 0 26 26">
  <defs>
    <style>
      .cls-1 {
        fill: #76706b;
      }
    </style>
  </defs>
  <path id="quote" class="cls-1" d="M16,3A13,13,0,1,0,29,16,13,13,0,0,0,16,3Zm0,24A11,11,0,1,1,27,16,11,11,0,0,1,16,27ZM14.652,11.771a3.173,3.173,0,0,0-2.431-1.108,3.1,3.1,0,0,0-3,1.985A3.068,3.068,0,0,0,9,13.789a3.142,3.142,0,0,0,.67,2.027,2.68,2.68,0,0,0,1.747,1l.249.016.215.034q.5.066.5.38,0,.332-.663,1.042a7.914,7.914,0,0,1-2.2,1.538.962.962,0,0,0-.629.827.688.688,0,0,0,.215.521.753.753,0,0,0,.546.206,4.685,4.685,0,0,0,2.282-.959,9.084,9.084,0,0,0,2.745-2.738A5.9,5.9,0,0,0,15.693,14.5a4.13,4.13,0,0,0-.281-1.48,3.773,3.773,0,0,0-.76-1.248Zm7.871,0a3.14,3.14,0,0,0-2.408-1.108A3.16,3.16,0,0,0,16.9,13.789a3.207,3.207,0,0,0,.659,2.035,2.567,2.567,0,0,0,1.732.992l.264.016.2.034q.495.066.5.38,0,.332-.644,1.042a8.548,8.548,0,0,1-2.194,1.538.962.962,0,0,0-.628.827.691.691,0,0,0,.215.521.754.754,0,0,0,.545.206,4.666,4.666,0,0,0,2.277-.959,8.971,8.971,0,0,0,2.732-2.738A5.956,5.956,0,0,0,23.561,14.5a4.129,4.129,0,0,0-.28-1.48,3.73,3.73,0,0,0-.758-1.248Z" transform="translate(-3 -3)"/>
</svg>
