<svg xmlns="http://www.w3.org/2000/svg" viewBox="0 0 33 29">
  <defs>
    <style>
      .cls-1 {
        fill: #76706b;
      }
    </style>
  </defs>
  <path id="radio2" class="cls-1" d="M31,29H2a2,2,0,0,1-2-2V10.045a2,2,0,0,1,2-2H23.188L14.922,3.556A1.05,1.05,0,0,1,14,4.12a1.06,1.06,0,1,1,1.062-1.059,1.038,1.038,0,0,1-.08.394L26.875,8.05H31a2,2,0,0,1,2,2V27.01A2,2,0,0,1,31,29Zm-3-2.973a2,2,0,1,0-2-2A2,2,0,0,0,28,26.031Zm-6-.02a2,2,0,1,0-2-2A2,2,0,0,0,22,26.011ZM10.5,11.043A7.484,7.484,0,1,0,18,18.526a7.492,7.492,0,0,0-7.5-7.483Zm19.5,0H20v2.993h5.5l1-1.995,1,1.995H30Zm-14,8.98h.809a6.371,6.371,0,0,1-.328,1H16Zm0-2h.949c.014.167.051.327.051.5s-.037.332-.051.5H16v-1Zm0-2h.492a6.428,6.428,0,0,1,.312,1H16Zm-2-1v-1h1v1Zm-2,8.981h1v.479a6.833,6.833,0,0,1-1,.325Zm0-1.995h1v1H12Zm0-2h1v1H12Zm0-2h1v1H12Zm0-2h1v1H12Zm0-2h1v1H12Zm0-1.8a6.872,6.872,0,0,1,1,.325v.478H12ZM10,24.96v-.945h1v.962c-.166.013-.33.036-.5.036S10.168,24.974,10,24.96Zm0-2.94h1v1H10Zm0-2h1v1H10Zm0-2h1v1H10Zm0-2h1v1H10Zm0-2h1v1H10Zm0-1.942c.168-.014.328-.053.5-.053s.334.023.5.036v.962H10ZM8,24.015H9v.8a6.727,6.727,0,0,1-1-.317ZM8,22.02H9v1H8Zm0-2H9v1H8Zm0-2H9v1H8Zm0-2H9v1H8Zm0-2H9v1H8Zm0-1.473a6.618,6.618,0,0,1,1-.319v.8H8ZM6,22.02H7v1H6Zm0-2H7v1H6Zm0-2H7v1H6Zm0-2H7v1H6Zm0-2H7v1H6Zm9,2.994H14v-1h1Zm0,1.995H14v-1h1Zm0,2H14v-1h1Zm0,2H14v-1h1ZM4.191,20.023H5v1H4.52A6.373,6.373,0,0,1,4.191,20.023ZM4,18.526c0-.171.038-.331.051-.5H5v1H4.051C4.037,18.858,4,18.7,4,18.526Zm.508-2.494H5v1H4.2A6.462,6.462,0,0,1,4.508,16.032ZM8,30a1,1,0,0,1-1,1H5a1,1,0,0,1-1-1V29H8Zm21,0a1,1,0,0,1-1,1H26a1,1,0,0,1-1-1V29h4Z" transform="translate(0 -2)"/>
</svg>
