<svg xmlns="http://www.w3.org/2000/svg" viewBox="0 0 33.246 37.79">
  <defs>
    <style>
      .cls-1 {
        fill: #76706b;
      }
    </style>
  </defs>
  <path id="radio" class="cls-1" d="M30.967,11.856A16.034,16.034,0,0,0,26.2,1.1a16.633,16.633,0,0,0-10.975-4.68L15-5.79A19.466,19.466,0,0,1,27.6-.273,18.759,18.759,0,0,1,33.246,12.1Zm-2.992.478-2.194-.3a10.278,10.278,0,0,0-3.075-7.5,10.68,10.68,0,0,0-7.479-3.02l-.4-2.171a13.62,13.62,0,0,1,9.237,3.855A12.857,12.857,0,0,1,27.975,12.334Zm-5.293-.13-1.947-.539a4.212,4.212,0,0,0-1.589-3.646,4.621,4.621,0,0,0-3.589-1.3L14.8,4.557a7.459,7.459,0,0,1,5.722,2.112A7.173,7.173,0,0,1,22.682,12.2Zm-4.126-1.2a2.561,2.561,0,0,1-2.585,2.537,2.6,2.6,0,0,1-1.341-.378L13.519,14.26l8.04,7.806c-.2.232-.4.465-.641.7a11.7,11.7,0,0,1-16.326,0,11.181,11.181,0,0,1,0-16.023c.206-.2.412-.375.618-.548l7.573,7.353,1.087-1.067a2.481,2.481,0,0,1-.485-1.47,2.586,2.586,0,0,1,5.171,0ZM8.69,26.148c-.1,0,2.627,5.852,2.627,5.852H0l3.9-9.041s1.185,1.727,4.786,3.189Z" transform="translate(0 5.79)"/>
</svg>
