<svg xmlns="http://www.w3.org/2000/svg" viewBox="0 0 27.917 27.916">
  <defs>
    <style>
      .cls-1 {
        fill: #76706b;
      }
    </style>
  </defs>
  <path id="radioactive" class="cls-1" d="M16,29.958A13.958,13.958,0,1,1,29.959,16,13.958,13.958,0,0,1,16,29.958ZM22.92,5.552a10.884,10.884,0,0,0-6.879-2.088l0,9.008a3.517,3.517,0,0,0-2.958,1.761L5.453,9.347s-2.021,1.979-2.021,6.464,1.937,6.652,1.937,6.652l7.723-4.676a3.517,3.517,0,0,0,2.947,1.741l0,9.134a10.885,10.885,0,0,0,6.879-2.087c3.725-2.5,4.316-5.071,4.316-5.071l-7.982-3.887a3.416,3.416,0,0,0,.076-3.1l8.074-3.814s-.76-2.657-4.485-5.155ZM16.126,18.021A2.021,2.021,0,1,1,18.146,16,2.021,2.021,0,0,1,16.126,18.021Z" transform="translate(-2.042 -2.042)"/>
</svg>
