<svg xmlns="http://www.w3.org/2000/svg" viewBox="0 0 25.2 24.055">
  <defs>
    <style>
      .cls-1 {
        fill: #76706b;
      }
    </style>
  </defs>
  <path id="rain" class="cls-1" d="M24.653,11.192s.479-6.444-5.426-7.18a6.292,6.292,0,0,0-6.6,4.187A3.011,3.011,0,0,0,9.033,7.93,3.355,3.355,0,0,0,7.51,11.164a5.138,5.138,0,0,0-4.11,4.99c.092,4.186,4.464,4.228,4.464,4.228H23.946s4.068,0,4.641-3.977a4.973,4.973,0,0,0-3.934-5.213ZM9.756,22.947a6.555,6.555,0,0,1-.479-1.429A6.482,6.482,0,0,1,8.8,22.947a5.6,5.6,0,0,1-.977,1.328,2.413,2.413,0,0,0-.718,1.6,2.061,2.061,0,0,0,.641,1.518,2.168,2.168,0,0,0,3.062,0,2.057,2.057,0,0,0,.641-1.518,2.42,2.42,0,0,0-.717-1.6,5.634,5.634,0,0,1-.977-1.328Zm7,0a6.555,6.555,0,0,1-.479-1.429,6.535,6.535,0,0,1-.476,1.429,5.593,5.593,0,0,1-.978,1.328,2.416,2.416,0,0,0-.717,1.6,2.057,2.057,0,0,0,.641,1.518,2.168,2.168,0,0,0,3.062,0,2.057,2.057,0,0,0,.641-1.518,2.417,2.417,0,0,0-.718-1.6,5.615,5.615,0,0,1-.976-1.328Zm7,0a6.555,6.555,0,0,1-.479-1.429,6.535,6.535,0,0,1-.476,1.429,5.623,5.623,0,0,1-.978,1.328,2.416,2.416,0,0,0-.717,1.6,2.057,2.057,0,0,0,.641,1.518,2.168,2.168,0,0,0,3.062,0,2.057,2.057,0,0,0,.641-1.518,2.42,2.42,0,0,0-.717-1.6,5.6,5.6,0,0,1-.977-1.328Z" transform="translate(-3.4 -3.972)"/>
</svg>
