<svg xmlns="http://www.w3.org/2000/svg" viewBox="0 0 29.729 29.728">
  <defs>
    <style>
      .cls-1 {
        fill: #76706b;
      }
    </style>
  </defs>
  <path id="ruler3" class="cls-1" d="M6.058,6.835l.686.686L3.936,10.329l2.188,2.188L8.945,9.7l.641.641L6.765,13.159l2.16,2.159L15.341,8.9,7.529,1.136,1.136,7.529,3.25,9.644,6.058,6.835ZM23.1,16.659l-6.416,6.417,2.159,2.159,2.822-2.821.641.641-2.821,2.821,2.188,2.188,2.807-2.808.686.686L22.358,28.75l2.113,2.114,6.394-6.394L23.1,16.659Zm6.723-8.208a2,2,0,0,0,.012-2.821L26.322,2.119a1.994,1.994,0,0,0-2.82.012L21.332,4.3l6.32,6.32,2.17-2.17ZM3.4,25.942l2.623,2.623,5.284-1.877-6.03-6.03L3.4,25.942Zm17.252-21L5.765,19.829,12.134,26.2,27.02,11.312,20.65,4.943ZM8.657,19.816,20.638,7.835l.7.7L9.354,20.515Zm1.4,1.4L22.033,9.232l.7.7L10.75,21.91l-.7-.7Zm1.4,1.4L23.43,10.627l.7.7L12.147,23.306l-.7-.7Zm-9.5,7.4L5.02,28.893,3.071,26.944,1.954,30.01Z" transform="translate(-1.136 -1.136)"/>
</svg>
