<svg xmlns="http://www.w3.org/2000/svg" viewBox="0 0 24 24">
  <defs>
    <style>
      .cls-1 {
        fill: #76706b;
      }
    </style>
  </defs>
  <path id="sad" class="cls-1" d="M16,4A12,12,0,1,0,28,16,12,12,0,0,0,16,4Zm3.938,5.688c.828,0,1.5.9,1.5,2s-.672,2-1.5,2-1.5-.9-1.5-2S19.109,9.688,19.938,9.688Zm-8,0c.828,0,1.5.9,1.5,2s-.672,2-1.5,2-1.5-.9-1.5-2S11.109,9.688,11.938,9.688ZM15.93,20.259c-4.625,0-6.058,2.419-6.058,2.419a6.349,6.349,0,0,1,6.065-4.18,6.125,6.125,0,0,1,5.938,4.323S20.555,20.259,15.93,20.259Z" transform="translate(-4 -4)"/>
</svg>
