<svg xmlns="http://www.w3.org/2000/svg" viewBox="0 0 26 30">
  <defs>
    <style>
      .cls-1 {
        fill: #76706b;
      }
    </style>
  </defs>
  <path id="safe" class="cls-1" d="M27,29l-2-.062V31H22V29H10.063L10,31H7V29.062L5,29a2,2,0,0,1-2-2V3A2,2,0,0,1,5,1H27a2,2,0,0,1,2,2V27A2,2,0,0,1,27,29ZM26,4H6V7.958l-.979-.02v3.083H6v7.917H5V22H6v4H26ZM25,25H7V22H8V18.938H7V11H8l.021-3.042H7V5H25ZM14.562,10.562a4,4,0,1,0,4,4A4,4,0,0,0,14.562,10.562Zm8.938.956a1,1,0,0,0-2,0,.987.987,0,0,0,.5.847v5.289a.986.986,0,0,0-.5.847,1,1,0,1,0,1.438-.889v-5.2A.994.994,0,0,0,23.5,11.518Zm-9,4.732a1.5,1.5,0,1,1,1.5-1.5A1.5,1.5,0,0,1,14.5,16.25Z" transform="translate(-3 -1)"/>
</svg>
