<svg xmlns="http://www.w3.org/2000/svg" viewBox="0 0 33.289 34.122">
  <defs>
    <style>
      .cls-1 {
        fill: #76706b;
      }
    </style>
  </defs>
  <path id="satellite" class="cls-1" d="M0,20.863,11.137,32s2.659-6.311-1.083-10.053C6.353,18.246,0,20.863,0,20.863Zm29.875.885L24.219,27.4l.707.707,5.656-5.656ZM32.7,23.162,26.34,16.8a2,2,0,0,0-2.828,0l-.558.558-1.56-1.56,2.8-2.8a2.111,2.111,0,0,0-.088-2.917L20.656,6.634a2,2,0,0,0-2.828,0L15.285,9.088l-1.34-1.34.091-.09a2,2,0,0,0,0-2.829L7.672-1.536a2,2,0,0,0-2.829,0L.6,2.707a2,2,0,0,0,0,2.829L6.965,11.9a2,2,0,0,0,2.829,0l1.391-1.391,1.378,1.39L10,14.458c-.781.781-.486,5.128-.486,5.128l1.723,1.723s4.346.3,5.127-.486l2.214-2.213,1.56,1.56-.874.874a2,2,0,0,0,0,2.828l6.365,6.363a2,2,0,0,0,2.828,0L32.7,25.993a2,2,0,0,0,0-2.831ZM1.308,3.414,5.551-.829a1,1,0,0,1,1.414,0L1.308,4.828a1,1,0,0,1,0-1.414Zm.707,2.121L7.672-.122l.707.707L2.722,6.242l-.707-.707ZM3.429,6.949,9.086,1.292,9.793,2,4.137,7.656l-.708-.707ZM4.844,8.364,10.5,2.707l.708.707L5.551,9.071ZM6.258,9.778l5.657-5.657.707.707L6.965,10.485l-.707-.707Zm2.828,1.414a1,1,0,0,1-1.414,0l5.657-5.657a1,1,0,0,1,0,1.414ZM11.908,16.5l-.53-.531,7.31-7.31.531.53Zm8.067,5.25L24.219,17.5a1,1,0,0,1,1.414,0l-5.658,5.658a1,1,0,0,1,0-1.414ZM32,25.283l-4.242,4.242a1,1,0,0,1-1.414,0L22.1,25.282l5.656-5.656-.707-.707-5.658,5.656-.707-.707,5.658-5.658L32,23.868A1,1,0,0,1,32,25.283Zm-.707-2.121-5.656,5.656.707.707L32,23.869Zm-2.828-2.828L22.805,25.99l.707.707,5.656-5.656Z" transform="translate(0 2.122)"/>
</svg>
