<svg xmlns="http://www.w3.org/2000/svg" viewBox="0 0 18 27.978">
  <defs>
    <style>
      .cls-1 {
        fill: #76706b;
      }
    </style>
  </defs>
  <path id="scissors" class="cls-1" d="M21.5,20.988c1.934,0,3.5,2.016,3.5,4.5s-1.566,4.5-3.5,4.5-3.5-2.014-3.5-4.5a4.978,4.978,0,0,1,1.452-3.635L16,16.9l-3.453,4.955A4.975,4.975,0,0,1,14,25.488c0,2.486-1.567,4.5-3.5,4.5S7,27.974,7,25.488s1.567-4.5,3.5-4.5a2.754,2.754,0,0,1,.582.076l3.475-6.238L10.926,9.614c-2.961-5.129-.62-7.6-.62-7.6L16,12.235,21.694,2.011s2.341,2.475-.62,7.6l-3.631,5.212,3.475,6.238a2.683,2.683,0,0,1,.582-.077Zm-11,1.981a2.293,2.293,0,0,0-2,2.5,2.293,2.293,0,0,0,2,2.5,2.293,2.293,0,0,0,2-2.5A2.293,2.293,0,0,0,10.5,22.969Zm5.5-8.9a1,1,0,1,0,1,1A1,1,0,0,0,16,14.073Zm3.5,11.4a2.293,2.293,0,0,0,2,2.5,2.293,2.293,0,0,0,2-2.5,2.293,2.293,0,0,0-2-2.5A2.293,2.293,0,0,0,19.5,25.469Z" transform="translate(-7 -2.01)"/>
</svg>
