<svg xmlns="http://www.w3.org/2000/svg" viewBox="0 0 26.301 26.334">
  <defs>
    <style>
      .cls-1 {
        fill: #76706b;
      }
    </style>
  </defs>
  <path id="screwdriver" class="cls-1" d="M27.393,2.664,23.747,4.882l-.026,2.005-8.048,8.028-1.1-1.1a1,1,0,0,0-1.415,0,7.977,7.977,0,0,1-.751.662l.41.41-.013-.012a12.8,12.8,0,0,1-3.27,2.562L3.293,23.755a1,1,0,0,0,0,1.414L6.829,28.7a1,1,0,0,0,1.414,0l6.237-6.321a12.813,12.813,0,0,1,2.564-3.271l.354.354.707-.707a1,1,0,0,0,0-1.414l-1.072-1.072,8.018-8.057H27.1l2.2-3.644L27.393,2.664ZM3.979,24.4l6.348-6.348.707.706L4.686,25.109,3.979,24.4Zm1.414,1.459,6.348-6.35.707.709L6.1,26.568l-.707-.707Zm2.121,2.121-.707-.707,6.348-6.349.708.707L7.514,27.982Z" transform="translate(-3 -2.664)"/>
</svg>
