<svg xmlns="http://www.w3.org/2000/svg" viewBox="0 0 27.989 26.008">
  <defs>
    <style>
      .cls-1 {
        fill: #76706b;
      }
    </style>
  </defs>
  <path id="shipping" class="cls-1" d="M16.722,21.863a4.462,4.462,0,0,0-1.569-.971l-1.218-4.743,14.506-4.058,1.554,6.056L16.722,21.863ZM12.1,9.019l9.671-2.7,1.555,6.058-9.67,2.7L12.1,9.019ZM12.538,20.8a4.563,4.563,0,0,0-.765.3L7.509,4.489H5.9a.993.993,0,0,1-.9.6h-2a1.025,1.025,0,0,1-1-1.046A1.024,1.024,0,0,1,3.007,3h2a.976.976,0,0,1,.8.447h3.08v.051l.046-.014,4.41,17.183a4.635,4.635,0,0,0-.807.138Zm.259,1.01A3.491,3.491,0,0,1,17.088,24.4a3.677,3.677,0,0,1-2.478,4.48,3.494,3.494,0,0,1-4.291-2.588A3.678,3.678,0,0,1,12.8,21.811Zm-.527,4a1.494,1.494,0,0,0,1.839,1.107A1.577,1.577,0,0,0,15.171,25a1.5,1.5,0,0,0-1.839-1.109,1.577,1.577,0,0,0-1.062,1.922ZM29.87,21.7,18.186,24.969a4.844,4.844,0,0,0-.132-.842,4.768,4.768,0,0,0-.289-.8l11.623-3.25L29.87,21.7Z" transform="translate(-2.006 -2.996)"/>
</svg>
