<svg xmlns="http://www.w3.org/2000/svg" viewBox="0 0 22.593 24.579">
  <defs>
    <style>
      .cls-1 {
        fill: #76706b;
      }
    </style>
  </defs>
  <path id="skeletor" class="cls-1" d="M19.971,14.6a6.044,6.044,0,0,0,2.049-.771,1.092,1.092,0,0,0,.648-.872,5.8,5.8,0,0,0-.07-1.5q-.132-.73-.3-1.663a8.688,8.688,0,0,1-4.786,3.752l-.224.486a3.267,3.267,0,0,0,2.678.569ZM13.42,13.547A8.688,8.688,0,0,1,8.613,9.8q-.143.933-.284,1.663a5.042,5.042,0,0,0-.061,1.5,1.109,1.109,0,0,0,.649.872,5.945,5.945,0,0,0,2.028.771,3.271,3.271,0,0,0,2.678-.568l-.2-.487Zm.6,3.468a2.347,2.347,0,0,0,.092,1.578h.941V15.615A8.406,8.406,0,0,0,14.018,17.015Zm2.035,1.578h.908a5.5,5.5,0,0,0,.122-.554,1.645,1.645,0,0,0,.041-.375,2.11,2.11,0,0,0-.235-.994c-.156-.3-.564-.648-.836-1.055v2.978ZM26.568,8.654a7.354,7.354,0,0,1,.2,2.434,7.466,7.466,0,0,1-2.109,4.6l1.116,2.13-1.644,1.866c-2.326-1.11-3.063.044-3.063,1.663V28H20.024V22.036h-.946V28H17.99V22.036h-.938V28H16.018V22.036H15.08V28H14.047V22.054l-.939-.018V28h-1.09V22.036h-.943V28H10.04V21.351c0-1.625-.867-2.855-3.2-1.663L5.159,17.822l1.176-2.13a7.524,7.524,0,0,1-2.1-4.613,7.4,7.4,0,0,1,.182-2.445A6.216,6.216,0,0,1,9.6,3.827a42.642,42.642,0,0,1,11.737,0,6.422,6.422,0,0,1,5.232,4.827Z" transform="translate(-4.204 -3.421)"/>
</svg>
