<svg xmlns="http://www.w3.org/2000/svg" viewBox="0 0 24 24">
  <defs>
    <style>
      .cls-1 {
        fill: #76706b;
      }
    </style>
  </defs>
  <path id="smiley" class="cls-1" d="M16,4A12,12,0,1,0,28,16,12,12,0,0,0,16,4Zm4,5.812c.828,0,1.5.9,1.5,2s-.672,2-1.5,2-1.5-.9-1.5-2S19.172,9.812,20,9.812Zm-8.075.013c.828,0,1.5.9,1.5,2s-.672,2-1.5,2-1.5-.9-1.5-2S11.1,9.825,11.925,9.825Zm3.95,13.487c-4.1,0-6.857-2.687-7.352-7.156h.969q1.177,5.187,6.375,5.188t6.375-5.188h1C22.748,20.626,19.98,23.312,15.875,23.312Z" transform="translate(-4 -4)"/>
</svg>
