<svg xmlns="http://www.w3.org/2000/svg" viewBox="0 0 28.143 28.147">
  <defs>
    <style>
      .cls-1 {
        fill: #76706b;
      }
    </style>
  </defs>
  <path id="soccer" class="cls-1" d="M28.789,10.153c-.006-.015-.014-.03-.021-.046l.029.005-.008.041ZM25.25,22.217l-4.668.194-2.438-4.285,2.523-4.556,4.887.162,2.086,4.259-2.39,4.226ZM12.708,18.065l-2.449-4.431,2.56-4.271,5.221-.08L20.6,13.536l-2.52,4.547Zm.108-8.775-1.93-3.323L13.45,2.839,17.925,2.7,20.31,5.65,18.027,9.21ZM10.374,22.249l-4.135-.4L4.247,17.862l1.738-4.038,4.2-.161L12.64,18.1l-2.266,4.153ZM24.811,6.159l.4-.787a14.119,14.119,0,0,1,3.561,4.735l-1.482-.236L24.811,6.159Zm-4.426-.534L18,2.668c.059-.072.377-.459.383-.465A14.14,14.14,0,0,0,13,2.33c.009.006.319.4.383.479L10.816,5.937l-3.825.644L6.65,5.538l-.059.018A14.02,14.02,0,0,1,25.15,5.322l-.4.8-4.361-.5Zm-15.746,4.6L3.031,10.6l.018.07,1.58-.372,1.3,3.472L4.185,17.824a11.381,11.381,0,0,0-2.061-.087,13.806,13.806,0,0,0,3.094,7.206l1.03-3.023,4.128.4,2.607,3.956-1.8,2.931a14.043,14.043,0,0,1-4.6-23.646l.346,1.062-2.289,3.6Zm13.22,16.213,2.146,3,.061-.043-2.133-2.983,2.65-3.93,4.664-.193c.094.211,1.289,2.9,1.281,2.9a13.492,13.492,0,0,0,3.312-7.242l-2.139.01-2.088-4.268L27.3,9.948l1.486.237,0-.031A14.043,14.043,0,0,1,11.251,29.235l1.8-2.925Zm-6.625,2.832-.062-.038.012-.02.07.025-.02.033ZM6.581,5.56l.011,0-.009.008,0,0ZM25.164,5.3l.064.032-.021.045-.057-.051Z" transform="translate(-1.927 -1.927)"/>
</svg>
