<svg xmlns="http://www.w3.org/2000/svg" viewBox="0 0 33.02 23.954">
  <defs>
    <style>
      .cls-1 {
        fill: #76706b;
      }
    </style>
  </defs>
  <path id="spaceinvaders" class="cls-1" d="M29.963,24.982V19.035h-2.91V25H24.016v2.953H16.968V24.982h7.048V22.01H9.025v2.973l6.03.021v2.973H9V25.026H5.968v-6.01H3.057v5.947H0v-9H2.995V13.068H5.968V10.011H9.025V7.017h2.994v3L21,10.044V7.017H24v3.036h3.057v2.974h2.953V16H33.02v8.982H29.963ZM12.019,13.005H9.025V16h2.994V13.005Zm11.977,0H21V16H24ZM5.968,4.023H9.025V7.017H5.968V4.023Zm21.085,0V7.017H24V4.023Z" transform="translate(0 -4.023)"/>
</svg>
