<svg xmlns="http://www.w3.org/2000/svg" viewBox="0 0 28 28">
  <defs>
    <style>
      .cls-1 {
        fill: #76706b;
      }
    </style>
  </defs>
  <path id="stop" class="cls-1" d="M21.562,2H10.011L1.75,10.239V21.76L10.011,30l11.551-.073L29.75,21.76V10.239ZM28.75,21.349l-7.6,7.583L10.421,29,2.75,21.349V10.65L10.421,3H21.147l7.6,7.65v10.7Zm-4.559-5.372a1.031,1.031,0,0,0,.48-.27,1.1,1.1,0,0,0,.25-.379,1.331,1.331,0,0,0,.079-.48,1.2,1.2,0,0,0-.1-.52.877.877,0,0,0-.314-.36,1.219,1.219,0,0,0-.428-.17,3.112,3.112,0,0,0-.607-.051h-.641v2.305h.527a3.107,3.107,0,0,0,.758-.075ZM20,14.225a1.459,1.459,0,0,0-.557-.452,1.9,1.9,0,0,0-1.47,0,1.549,1.549,0,0,0-.558.456,2.147,2.147,0,0,0-.354.746,3.815,3.815,0,0,0-.123,1.017,2.778,2.778,0,0,0,.48,1.754,1.673,1.673,0,0,0,2.579,0,2.784,2.784,0,0,0,.479-1.754,3.813,3.813,0,0,0-.125-1.024A2.125,2.125,0,0,0,20,14.225ZM10.626,3.5,3.25,10.856V21.142L10.626,28.5l10.313-.065,7.311-7.292V10.856L20.939,3.5H10.626ZM10.5,17.915a1.6,1.6,0,0,1-.389.562,2.046,2.046,0,0,1-.636.391,2.48,2.48,0,0,1-.886.137,3.853,3.853,0,0,1-1.077-.131,5.21,5.21,0,0,1-.834-.322v-.969h.055a2.823,2.823,0,0,0,.868.554,2.483,2.483,0,0,0,.935.2,1.51,1.51,0,0,0,.97-.267.864.864,0,0,0,.329-.7.885.885,0,0,0-.173-.565,1.029,1.029,0,0,0-.549-.323q-.271-.079-.493-.129c-.148-.033-.336-.08-.56-.138a2.627,2.627,0,0,1-.54-.2,1.506,1.506,0,0,1-.423-.316,1.362,1.362,0,0,1-.28-.451,1.678,1.678,0,0,1-.1-.6,1.509,1.509,0,0,1,.552-1.186,2.07,2.07,0,0,1,1.409-.479,4.241,4.241,0,0,1,.926.1,3.758,3.758,0,0,1,.809.276v.923h-.059a2.619,2.619,0,0,0-.713-.438,2.268,2.268,0,0,0-.913-.188,1.409,1.409,0,0,0-.873.252.79.79,0,0,0-.333.661.848.848,0,0,0,.2.589,1.14,1.14,0,0,0,.568.32c.164.044.365.1.6.15s.435.107.592.154a1.665,1.665,0,0,1,.88.556,1.476,1.476,0,0,1,.278.914,1.727,1.727,0,0,1-.139.674Zm5.385-4.027H14V18.9h-.961V13.888H11.207v-.875h4.68v.875Zm6.246-.813h1.461a3.887,3.887,0,0,1,.879.086,1.886,1.886,0,0,1,.641.277,1.588,1.588,0,0,1,.508.564,1.734,1.734,0,0,1,.184.826,1.912,1.912,0,0,1-.135.717,1.671,1.671,0,0,1-.373.576,1.98,1.98,0,0,1-.707.449,2.947,2.947,0,0,1-1.027.152h-.656v2.172h-.773V13.075Zm-.848,2.912a4.248,4.248,0,0,1-.18,1.28,2.618,2.618,0,0,1-.521.959,2.2,2.2,0,0,1-.83.6,2.747,2.747,0,0,1-1.046.193,2.707,2.707,0,0,1-1.063-.2,2.175,2.175,0,0,1-.813-.595,2.677,2.677,0,0,1-.516-.955,4.247,4.247,0,0,1-.18-1.284,4.16,4.16,0,0,1,.182-1.291,2.832,2.832,0,0,1,.518-.955,2.19,2.19,0,0,1,.812-.589,2.681,2.681,0,0,1,1.062-.2,2.647,2.647,0,0,1,1.071.208,2.238,2.238,0,0,1,.805.583,2.7,2.7,0,0,1,.517.951,4.246,4.246,0,0,1,.182,1.3Z" transform="translate(-1.75 -2)"/>
</svg>
