<svg xmlns="http://www.w3.org/2000/svg" viewBox="0 0 17.062 27.088">
  <defs>
    <style>
      .cls-1 {
        fill: #76706b;
      }
    </style>
  </defs>
  <path id="streetlight" class="cls-1" d="M21.031,19.981v-4l2.938-2.938H21.031V8.981l2.938-2.938H21.031V4.356a18.52,18.52,0,0,0-5.6-1.4,17.215,17.215,0,0,0-5.4,1.4V6.044h-3l3,3v4.062l-3-.062,3,3v4H6.969l3.062,3.062v4.938h3.938l.062,2,3-.062V28.044h4V22.982l3-3h-3Zm-5.459,6.041a3,3,0,1,1,3-3,3,3,0,0,1-3,3Zm0-6.937a3,3,0,1,1,3-3,3,3,0,0,1-3,3Zm0-7.062a3,3,0,1,1,3-3,3,3,0,0,1-3,3Z" transform="translate(-6.969 -2.956)"/>
</svg>
