<svg xmlns="http://www.w3.org/2000/svg" viewBox="0 0 27 25">
  <defs>
    <style>
      .cls-1 {
        fill: #76706b;
      }
    </style>
  </defs>
  <path id="suitcase2" class="cls-1" d="M27,29H4a2,2,0,0,1-2-2V15a50.921,50.921,0,0,0,10,3.784V20a1,1,0,0,0,1,1h5a1,1,0,0,0,1-1V18.784A50.95,50.95,0,0,0,29,15V27A2,2,0,0,1,27,29ZM17,17a1,1,0,0,1,1,1v1a1,1,0,0,1-1,1H14a1,1,0,0,1-1-1V18a1,1,0,0,1,1-1Zm2,0a1,1,0,0,0-1-1H13a1,1,0,0,0-1,1v.9A50.09,50.09,0,0,1,2,14V10A2,2,0,0,1,4,8h6V6a2,2,0,0,1,2-2h7a2,2,0,0,1,2,2V8h6a2,2,0,0,1,2,2v4a50.119,50.119,0,0,1-10,3.9ZM19,7a1,1,0,0,0-1-1H13a1,1,0,0,0-1,1V8h7Z" transform="translate(-2 -4)"/>
</svg>
