<svg xmlns="http://www.w3.org/2000/svg" viewBox="0 0 25.5 25.5">
  <defs>
    <style>
      .cls-1 {
        fill: #76706b;
      }
    </style>
  </defs>
  <path id="sun" class="cls-1" d="M8.031,16.5a7.5,7.5,0,1,0,7.5-7.5A7.5,7.5,0,0,0,8.031,16.5Zm7.5-12.75L13.422,7.969h4.219L15.531,3.75Zm9.012,3.707L20.068,8.948l2.982,2.983ZM10.994,8.948,6.52,7.457l1.491,4.475,2.983-2.984ZM6.969,14.359,2.75,16.469l4.219,2.109V14.359Zm17.062,4.282,4.219-2.109-4.219-2.109Zm-8.5,10.609,2.109-4.219H13.421l2.11,4.219Zm4.537-5.2,4.475,1.491-1.492-4.475-2.983,2.984ZM6.52,25.543l4.475-1.491L8.012,21.069Z" transform="translate(-2.75 -3.75)"/>
</svg>
