<svg xmlns="http://www.w3.org/2000/svg" viewBox="0 0 23.994 24.059">
  <defs>
    <style>
      .cls-1 {
        fill: #76706b;
      }
    </style>
  </defs>
  <path id="tag" class="cls-1" d="M27.4,16.112,15.17,3.971H4.029L4,15.1,16.081,27.427a2.017,2.017,0,0,0,2.853.023l8.484-8.485a2.018,2.018,0,0,0-.023-2.853ZM6.982,9a2,2,0,1,1,2,2,2,2,0,0,1-2-2ZM17.863,22.952l-7.778-7.778.707-.707,7.778,7.778-.707.707Zm2.121-2.121-7.778-7.778.708-.707,7.777,7.778-.707.707ZM22.1,18.709l-7.777-7.778.707-.707L22.812,18l-.707.707Z" transform="translate(-4.003 -3.971)"/>
</svg>
