<svg xmlns="http://www.w3.org/2000/svg" viewBox="0 0 27.003 26.96">
  <defs>
    <style>
      .cls-1 {
        fill: #76706b;
      }
    </style>
  </defs>
  <path id="tag2" class="cls-1" d="M28.908,19.576,19.6,28.887a2.026,2.026,0,0,1-2.865,0L5.318,17.472,2.5,8.743l2.06-2.06L8.505,10.63a2.532,2.532,0,1,0,2.148-2.148L6.706,4.535,8.72,2.52l8.774,2.775L28.908,16.71a2.027,2.027,0,0,1,0,2.866ZM11.361,11.339a.506.506,0,0,1-.716,0L2.766,3.46a.506.506,0,0,1,.716-.716l7.878,7.878a.506.506,0,0,1,0,.717Z" transform="translate(-2.498 -2.52)"/>
</svg>
