<svg xmlns="http://www.w3.org/2000/svg" viewBox="0 0 27.45 24.162">
  <defs>
    <style>
      .cls-1 {
        fill: #76706b;
      }
    </style>
  </defs>
  <path id="tags" class="cls-1" d="M25.994,16.144,13.769,3.919,2,3.964l.018,10.831L14.68,27.457a2.018,2.018,0,0,0,2.854.024L26.018,19a2.016,2.016,0,0,0-.024-2.852ZM7.081,10.952a2,2,0,1,1,2-2,2,2,0,0,1-2,2Zm21.765,5.216L16.621,3.943l-1.471.005L27.42,16.155a2.016,2.016,0,0,1,.023,2.853l-8.484,8.485a1.98,1.98,0,0,1-.709.451,2,2,0,0,0,2.135-.438l8.486-8.485a2.017,2.017,0,0,0-.025-2.853Z" transform="translate(-2 -3.919)"/>
</svg>
