<svg xmlns="http://www.w3.org/2000/svg" viewBox="0 0 24.243 28.933">
  <defs>
    <style>
      .cls-1 {
        fill: #76706b;
      }
    </style>
  </defs>
  <path id="target" class="cls-1" d="M28.122,3.584l-2.147,1.9-1.3.02-2.73,2.855a10.449,10.449,0,1,1-.715-.693l2.635-2.635,0-1.161,2.022-2.335,0,2.079,2.238-.028Zm-7.237,5.83-2.658,2.659a5.556,5.556,0,1,1-.742-.667L20.171,8.72a9.1,9.1,0,1,0,.714.694Zm-6.713,7.938a1.493,1.493,0,0,1,0-2.987,1.4,1.4,0,0,1,.3.06l2.313-2.313a4.6,4.6,0,1,0,.741.666l-2.185,2.186a1.471,1.471,0,0,1,.329.9,1.492,1.492,0,0,1-1.493,1.492Zm-4.317,9.4q.445.225.915.406L9,30.216a.5.5,0,0,1-.863-.5Zm5,.783v1.4a.5.5,0,0,1-1,0v-1.4c.166.008.33.025.5.025S14.69,27.539,14.856,27.531Zm6.1,2.188a.5.5,0,0,1-.864.5L18.32,27.155c.312-.121.618-.256.915-.406Z" transform="translate(-3.879 -1.533)"/>
</svg>
