<svg xmlns="http://www.w3.org/2000/svg" viewBox="0 0 13.045 27.062">
  <defs>
    <style>
      .cls-1 {
        fill: #76706b;
      }
    </style>
  </defs>
  <path id="thermometer" class="cls-1" d="M18.959,17.913V17h3.063v.917Zm0-2.938h3.063v.979H18.959Zm0-1.96h3.063V14H18.959v-.98Zm0-2.022h3.063v.979l-3.063-.062Zm0-2.084h3.063V9.951H18.959Zm0-1.959h3.063v.98H18.959Zm1.774,17.2a5.878,5.878,0,1,1-11.756,0,5.82,5.82,0,0,1,3-5.159V5.907a2.992,2.992,0,0,1,3-2.938,2.938,2.938,0,0,1,2.939,2.938V19.142a5.868,5.868,0,0,1,2.817,5.011Zm-3.8-4.418V5.907a1.959,1.959,0,1,0-3.918,0V19.618a4.908,4.908,0,1,0,3.918.117Zm-2.082,8.337A3.916,3.916,0,0,1,14,20.335V10.993h1.96v9.418a3.908,3.908,0,0,1-1.1,7.661Z" transform="translate(-8.977 -2.969)"/>
</svg>
