<svg xmlns="http://www.w3.org/2000/svg" viewBox="0 0 39 21">
  <defs>
    <style>
      .cls-1 {
        fill: #76706b;
      }
    </style>
  </defs>
  <path id="ticket3" class="cls-1" d="M39,19.438V25a2,2,0,0,1-2,2H2a2,2,0,0,1-2-2V19.5a3,3,0,0,0,3-3,3,3,0,0,0-3-3V8A2,2,0,0,1,2,6H37a2,2,0,0,1,2,2v5.438a3,3,0,0,0,0,6ZM34,11a2,2,0,0,0-2-2H7a2,2,0,0,0-2,2V22a2,2,0,0,0,2,2H32a2,2,0,0,0,2-2ZM32,23H7a1,1,0,0,1-1-1V11a1,1,0,0,1,1-1H32a1,1,0,0,1,1,1V22A1,1,0,0,1,32,23ZM12.47,15.538l-.907-2.58-.907,2.58-2.614.11,2.054,1.7L9.387,20l2.176-1.526L13.738,20l-.708-2.647,2.053-1.7-2.613-.111Zm8,0-.907-2.58-.907,2.58-2.614.11,2.054,1.7L17.387,20l2.176-1.526L21.738,20l-.708-2.647,2.053-1.7-2.613-.111Zm8,0-.907-2.58-.907,2.58-2.613.11,2.053,1.7L25.387,20l2.176-1.526L29.738,20l-.708-2.647,2.053-1.7-2.613-.111Z" transform="translate(0 -6)"/>
</svg>
