<svg xmlns="http://www.w3.org/2000/svg" viewBox="0 0 40 21">
  <defs>
    <style>
      .cls-1 {
        fill: #76706b;
      }
    </style>
  </defs>
  <path id="ticket2" class="cls-1" d="M40,19.438V25a2,2,0,0,1-2,2H32.5a.5.5,0,1,0-.5-.5.5.5,0,0,0,.5.5H2a2,2,0,0,1-2-2V19.5a3,3,0,0,0,3-3,3,3,0,0,0-3-3V8A2,2,0,0,1,2,6H32.5a.5.5,0,1,0,.5.5.5.5,0,0,0-.5-.5H38a2,2,0,0,1,2,2v5.438a3,3,0,0,0,0,6ZM8.818,13.988H8.1L6.18,19h.7l.55-1.52h2.1L10.113,19h.756L8.818,13.988Zm7.117,1.287a2.036,2.036,0,0,0-.593-.856,1.7,1.7,0,0,0-.735-.359,4.194,4.194,0,0,0-.893-.071H11.987V19H13.8a3.371,3.371,0,0,0,.806-.086,1.874,1.874,0,0,0,.6-.251,1.819,1.819,0,0,0,.457-.454,2.476,2.476,0,0,0,.342-.73,3.489,3.489,0,0,0,.134-1.012,3.389,3.389,0,0,0-.2-1.192Zm5.885-1.287h-.9l-1.2,3.486c-.121.354-.211.621-.268.8q-.077-.246-.24-.741l-1.188-3.548h-1V19h.641V14.734L19.119,19h.6l1.462-4.195V19h.641V13.988Zm1.847,0H23V19h.664Zm4.94,0H24.634v.59h1.652V19h.664V14.578h1.656v-.59ZM32.5,8a.5.5,0,1,0,.5.5A.5.5,0,0,0,32.5,8Zm0,2a.5.5,0,1,0,.5.5A.5.5,0,0,0,32.5,10Zm0,2a.5.5,0,1,0,.5.5A.5.5,0,0,0,32.5,12Zm0,2a.5.5,0,1,0,.5.5A.5.5,0,0,0,32.5,14Zm0,2a.5.5,0,1,0,.5.5A.5.5,0,0,0,32.5,16Zm0,2a.5.5,0,1,0,.5.5A.5.5,0,0,0,32.5,18Zm0,2a.5.5,0,1,0,.5.5A.5.5,0,0,0,32.5,20Zm0,2a.5.5,0,1,0,.5.5A.5.5,0,0,0,32.5,22Zm0,2a.5.5,0,1,0,.5.5A.5.5,0,0,0,32.5,24ZM14.949,18.058a1.13,1.13,0,0,1-.45.26,2.575,2.575,0,0,1-.777.093h-1.07V14.579H13.7a2.567,2.567,0,0,1,.858.1,1.3,1.3,0,0,1,.627.566,2.336,2.336,0,0,1,.259,1.209,3.1,3.1,0,0,1-.132.967,1.6,1.6,0,0,1-.368.634ZM8.172,15.473a6.619,6.619,0,0,0,.271-.957q.117.406.357,1.038l.521,1.388h-1.7Z" transform="translate(0 -6)"/>
</svg>
