<svg xmlns="http://www.w3.org/2000/svg" viewBox="0 0 40 21">
  <defs>
    <style>
      .cls-1 {
        fill: #76706b;
      }
    </style>
  </defs>
  <path id="ticket" class="cls-1" d="M39.5,23H40v1H39a2,2,0,0,0-2,2v1H3V26a2,2,0,0,0-2-2H0V23H.5a.5.5,0,0,0,0-1H0V21H.5a.5.5,0,0,0,0-1H0V19H.5a.5.5,0,0,0,0-1H0V17H.5a.5.5,0,0,0,0-1H0V15H.5a.5.5,0,0,0,0-1H0V13H.5a.5.5,0,0,0,0-1H0V11H.5a.5.5,0,0,0,0-1H0V9H1A2,2,0,0,0,3,7V6H37V7a2,2,0,0,0,2,2h1v1h-.5a.5.5,0,0,0,0,1H40v1h-.5a.5.5,0,0,0,0,1H40v1h-.5a.5.5,0,0,0,0,1H40v1h-.5a.5.5,0,0,0,0,1H40v1h-.5a.5.5,0,0,0,0,1H40v1h-.5a.5.5,0,0,0,0,1H40v1h-.5a.5.5,0,0,0,0,1ZM36,11a2,2,0,0,0-2-2H6a2,2,0,0,0-2,2V22a2,2,0,0,0,2,2H34a2,2,0,0,0,2-2ZM34,23H6a1,1,0,0,1-1-1V11a1,1,0,0,1,1-1H34a1,1,0,0,1,1,1V22A1,1,0,0,1,34,23ZM11.387,13.988H7.414v.59H9.066V19H9.73V14.578h1.656v-.59Zm1.381,0H12.1V19h.664Zm1.991,1.5a1.452,1.452,0,0,1,.546-.744,1.614,1.614,0,0,1,.965-.277,1.344,1.344,0,0,1,.834.25,1.54,1.54,0,0,1,.506.8l.652-.154a1.984,1.984,0,0,0-.714-1.076,2.058,2.058,0,0,0-1.265-.383,2.483,2.483,0,0,0-1.215.3,2.061,2.061,0,0,0-.852.886,2.959,2.959,0,0,0-.3,1.365,3.4,3.4,0,0,0,.266,1.344,2.07,2.07,0,0,0,.771.956,2.382,2.382,0,0,0,1.318.33,2.067,2.067,0,0,0,1.324-.429,2.232,2.232,0,0,0,.75-1.246l-.664-.168a1.656,1.656,0,0,1-.522.955,1.426,1.426,0,0,1-.943.321,1.628,1.628,0,0,1-.851-.236,1.386,1.386,0,0,1-.579-.713,3.217,3.217,0,0,1-.028-2.081Zm8.6-1.5h-.9l-2.488,2.48v-2.48h-.664V19h.664V17.262l.822-.8L22.582,19h.875l-2.195-2.98,2.1-2.032Zm4.575,4.422H24.864V16.7h2.77v-.59h-2.77V14.578h2.957v-.59H24.2V19h3.738Zm4.687-4.422H28.652v.59H30.3V19h.664V14.578h1.656v-.59Z" transform="translate(0 -6)"/>
</svg>
