<svg xmlns="http://www.w3.org/2000/svg" viewBox="0 0 39.041 17.938">
  <defs>
    <style>
      .cls-1 {
        fill: #76706b;
      }
    </style>
  </defs>
  <path id="time" class="cls-1" d="M39,12.052l-2,.021V10.031a3,3,0,0,0-3-3H3a3,3,0,0,0-3,3v11a3,3,0,0,0,3,3H6.979l-.021.938H30l-.021-.938H34a3,3,0,0,0,3-3V18.969h2.041Zm-3,8.979a2,2,0,0,1-2,2H3a2,2,0,0,1-2-2v-11a2,2,0,0,1,2-2H34a2,2,0,0,1,2,2Zm-2-12H3a1,1,0,0,0-1,1v11a1,1,0,0,0,1,1H34a1,1,0,0,0,1-1v-11A1,1,0,0,0,34,9.031Zm-1.753,2.983-.8.75H29.016l-.68-.75Zm-.917,3.125.35.371-.42.371H28.648l-.331-.371.4-.371H31.33Zm-3.143-2.993.679.75-.169,2-.51.47-.26-.28Zm-6.49,0,.679.75-.169,2-.51.47-.26-.28Zm3.14,2.993.351.371-.421.371H22.158l-.33-.371.4-.371h2.61ZM11.7,12.146l.679.75-.175,2-.505.471-.257-.28Zm3.139,2.993.351.371-.42.371H12.162l-.326-.371.4-.371ZM9.275,12.014l-.8.75H6.044l-.68-.75Zm-4.06.132.68.75-.176,2-.505.471-.257-.28.258-2.941Zm-.333,3.79.3-.289.43.469-.168,2-.818.75.256-2.931Zm-.132,3.07.82-.75H8l.669.75Zm4.065-.141-.672-.749.168-2,.511-.469.25.289Zm.331-3.779-.293.28L8.418,14.9l.175-2,.812-.75Zm2.226.85.3-.289.43.469-.168,2-.818.749.256-2.93Zm-.133,3.07.82-.75h2.427l.669.75Zm4.066-.14-.67-.75.169-2,.511-.47.251.289Zm-.34-6.1h-2.43l-.681-.75h3.91Zm3.61,6.242h-.75l.069-.75h.75Zm.44-5.078h-.75l.07-.75h.75Zm2.222,5.078.81-.75h2.43l.67.75Zm4.06-.141-.671-.749.17-2,.511-.47.25.289-.26,2.93Zm-.34-6.1h-2.43l-.681-.75h3.91Zm2.77,6.242.811-.75h2.43l.67.75H27.727Zm4.06-.141-.672-.749.168-2,.511-.469.25.289-.257,2.93Zm.332-3.779-.294.28L31.39,14.9l.176-2,.812-.75Z" transform="translate(0 -7.031)"/>
</svg>
