<svg xmlns="http://www.w3.org/2000/svg" viewBox="0 0 25.54 25">
  <defs>
    <style>
      .cls-1 {
        fill: #76706b;
      }
    </style>
  </defs>
  <path id="tools" class="cls-1" d="M27.783,7.936a6.359,6.359,0,0,1-9.013,7.977l-1.759,1.921,1.255,1.26.75-.75a.98.98,0,0,1,1.388,0l6.082,6.144a.98.98,0,0,1,0,1.388L23.71,28.652a.98.98,0,0,1-1.388,0L16.24,22.508a.98.98,0,0,1,0-1.388l.685-.685-1.2-1.2L7.318,28.425a1.962,1.962,0,0,1-2.776,0l-.694-.694a1.962,1.962,0,0,1,0-2.776L13.43,16.93,7.066,10.549H5.056L2.73,6.808,4.6,4.933,8.427,7.274l.025,1.968L14.89,15.7l1.873-1.568A6.365,6.365,0,0,1,24.3,4.473L20.18,8.54l3.471,3.471,4.132-4.075Zm-21.633,18a.982.982,0,1,0,0,1.389A.982.982,0,0,0,6.15,25.934Z" transform="translate(-2.73 -4.001)"/>
</svg>
