<svg xmlns="http://www.w3.org/2000/svg" viewBox="0 0 28.881 29.347">
  <defs>
    <style>
      .cls-1 {
        fill: #76706b;
      }
    </style>
  </defs>
  <path id="transformers" class="cls-1" d="M25.115,5.265,25.16,3.81a19.851,19.851,0,0,0-8.973-2.155A21.461,21.461,0,0,0,6.84,3.81l.045,1.455L16,11.246l9.115-5.981ZM16,4.556a10.778,10.778,0,0,1,3.448.6L16,7.474,12.552,5.157A10.778,10.778,0,0,1,16,4.556Zm2.073,19.421v-7.02l.468-6.035L16,12.593l-2.479-1.671.53,6.035v7.02Zm-5.683-13.7L5.6,5.75,5.556,3.989h-4l.593,8.55L7,16H12.93l-.54-5.729Zm-7.705.377L11.1,13.671l.107.989L4.847,11.785l-.162-1.132Zm-.27-3.071,6.358,3.071.161,1.069L4.523,8.767,4.415,7.582ZM4.308,26.549l4.735,2.424V19.561l-2.8-1.74V16.743L3.5,14.857l.809,11.692Zm8.746-1.557V17.98L9.983,19.542V29.728l1.384.861,1.886-4.6h5.5l1.886,4.6,1.446-.861V19.543L19.01,17.981v7.012H13.054Zm1.114,2.078L12.767,31h6.466l-1.4-3.932ZM19.071,16H25l4.85-3.466.593-8.55h-4L26.4,5.75l-6.79,4.526L19.071,16Zm8.082-4.219-6.421,3,.171-1.114,6.412-3.018Zm.324-3.018-6.412,3.018.162-1.132,6.358-3.071ZM28.5,14.856l-2.747,1.886V17.82L23,19.56v9.412l4.694-2.424L28.5,14.856Z" transform="translate(-1.56 -1.655)"/>
</svg>
