<svg xmlns="http://www.w3.org/2000/svg" viewBox="0 0 24.938 28">
  <defs>
    <style>
      .cls-1 {
        fill: #76706b;
      }
    </style>
  </defs>
  <path id="truck" class="cls-1" d="M26.969,13H23.99l-.013,1.256A1.987,1.987,0,0,1,24.969,16l.042,6.938H6.031V16a1.992,1.992,0,0,1,1-1.723V13h-3a1,1,0,0,1-1-1V11a1,1,0,0,1,1-1h1v2h2V9a2,2,0,0,1,2-2h13a2,2,0,0,1,2,2L24,12h1.969V10h1a1,1,0,0,1,1,1v1A1,1,0,0,1,26.969,13ZM12.031,22h7V21h-7Zm0-2h7V19h-7Zm0-2h7V17h-7Zm-4,3a1,1,0,0,0,1,1h1a1,1,0,1,0,0-2h-1A1,1,0,0,0,8.031,21Zm14-11a1,1,0,0,0-1-1h-11a1,1,0,0,0-1,1v5h13Zm0,10h-1a1,1,0,0,0,0,2h1a1,1,0,0,0,0-2Zm1-14h-15a2,2,0,0,0-2,2V3a1,1,0,0,1,1-1h17a1,1,0,0,1,1,1V8A2,2,0,0,0,23.031,6Zm2,18.938a1,1,0,0,1-1,1h-17a1,1,0,0,1-1-1v-1h19ZM11.031,29a1,1,0,0,1-1,1h-1a1,1,0,0,1-1-1V27h3Zm12,0a1,1,0,0,1-1,1h-1a1,1,0,0,1-1-1V27h3Z" transform="translate(-3.031 -2)"/>
</svg>
