<svg xmlns="http://www.w3.org/2000/svg" viewBox="0 0 28.003 28.385">
  <defs>
    <style>
      .cls-1 {
        fill: #76706b;
      }
    </style>
  </defs>
  <path id="tv" class="cls-1" d="M28.015,28.944H25.966V30H22.923V28.944H9.015V30H5.972V28.944H3.985A1.987,1.987,0,0,1,2,26.957V8.02A1.987,1.987,0,0,1,3.985,6.033h6.954a5.515,5.515,0,0,1,1.239-1.162L9.625,2.317l.7-.7,2.755,2.754a4.587,4.587,0,0,1,1.83-.385,4.5,4.5,0,0,1,1.91.43l2.8-2.8.7.7L17.71,4.932a5.159,5.159,0,0,1,1.115,1.1h9.189A1.987,1.987,0,0,1,30,8.021V26.958A1.985,1.985,0,0,1,28.015,28.944ZM20.937,10.007a.993.993,0,0,0-.994-.993H6.035a.993.993,0,0,0-.994.993V24.971a.993.993,0,0,0,.994.993H19.942a.993.993,0,0,0,.994-.993V10.007Zm3.1,15.957h2.917v-.993H24.042Zm0-1.987h2.917v-.992H24.042Zm0-2.049h2.917v-.993H24.042Zm0-1.987h2.917v-.994H24.042Zm1.389-10.9a1.49,1.49,0,1,0,1.49,1.49A1.491,1.491,0,0,0,25.431,9.038Zm0,3.962a1.49,1.49,0,1,0,1.49,1.489A1.49,1.49,0,0,0,25.431,13Z" transform="translate(-1.998 -1.615)"/>
</svg>
