<svg xmlns="http://www.w3.org/2000/svg" viewBox="0 0 23.5 29">
  <defs>
    <style>
      .cls-1 {
        fill: #76706b;
      }
    </style>
  </defs>
  <path id="unlocked2" class="cls-1" d="M28,14V7.5a3.5,3.5,0,0,0-7,0v5.933a9.491,9.491,0,1,1-2-.941V7.5a5.5,5.5,0,0,1,11,0V14Zm-12-.5a8,8,0,1,0,8,8A8,8,0,0,0,16,13.5ZM16,29a7.5,7.5,0,1,1,7.5-7.5A7.5,7.5,0,0,1,16,29Zm1.5-9.5a1.5,1.5,0,0,0-3,0,1.479,1.479,0,0,0,1.167,1.432L14.5,25.5h3.062l-1.314-4.55A1.48,1.48,0,0,0,17.5,19.5Z" transform="translate(-6.5 -2)"/>
</svg>
