<svg xmlns="http://www.w3.org/2000/svg" viewBox="0 0 26.041 26.041">
  <defs>
    <style>
      .cls-1 {
        fill: #76706b;
      }
    </style>
  </defs>
  <path id="usb" class="cls-1" d="M7.929,15.586l6.364-6.364,3.2,3.2a1.491,1.491,0,0,0,1.99,1.991l3.291,3.291-6.363,6.364L7.929,15.586Zm11.976-3.58a1.493,1.493,0,0,0-1.7-.288L15,8.515l4.949-4.949a2,2,0,0,1,2.828,0l5.658,5.656a2,2,0,0,1,0,2.828L23.485,17l-3.292-3.291A1.492,1.492,0,0,0,19.905,12.006ZM8.636,29.021,2.979,23.365l5.657-5.657,5.657,5.657Zm-1.37-5.7L5.852,21.905,4.393,23.364l1.415,1.414Zm2.828,2.829L8.68,24.734,7.222,26.192l1.414,1.414Z" transform="translate(-2.979 -2.98)"/>
</svg>
