<svg xmlns="http://www.w3.org/2000/svg" viewBox="0 0 30.129 24.868">
  <defs>
    <style>
      .cls-1 {
        fill: #76706b;
      }
    </style>
  </defs>
  <path id="volume3" class="cls-1" d="M28.715,15.936l2.24,2.242a.372.372,0,0,1,0,.527l-.791.791a.374.374,0,0,1-.527,0L27.4,17.254,25.155,19.5a.374.374,0,0,1-.527,0l-.791-.791a.374.374,0,0,1,0-.527l2.242-2.242-2.242-2.242a.374.374,0,0,1,0-.527l.791-.791a.372.372,0,0,1,.527,0L27.4,14.617l2.24-2.241a.372.372,0,0,1,.527,0l.791.791a.372.372,0,0,1,0,.527l-2.24,2.242Zm-10.44,12.5L9.9,22.594V9.343l8.379-5.777c1.1,0,2.689.836,2.689,1.867V26.566c0,1.032-1.583,1.868-2.689,1.868ZM.936,20.107V11.954c0-1.03.9-2.495,2-2.495H8.963v13H2.936a2.387,2.387,0,0,1-2-2.353Z" transform="translate(-0.936 -3.566)"/>
</svg>
