<svg xmlns="http://www.w3.org/2000/svg" viewBox="0 0 35.786 24.973">
  <defs>
    <style>
      .cls-1 {
        fill: #76706b;
      }
    </style>
  </defs>
  <path id="volume2" class="cls-1" d="M23.67,10.583,22.68,12.6a4.416,4.416,0,0,1,1.547,3.361,4.182,4.182,0,0,1-1.453,3.626l.957,1.707a7.155,7.155,0,0,0-.061-10.713Zm7.348-7.07L29.625,5.2a15.778,15.778,0,0,1,.012,21.515l1.391,1.725a18.692,18.692,0,0,0-.01-24.93Zm-3.7,3.453-1.24,1.783A10.159,10.159,0,0,1,25.969,23.3l1.289,1.711a12.761,12.761,0,0,0,3.693-9.039,13.035,13.035,0,0,0-3.629-9ZM0,12.007V20.1a2.39,2.39,0,0,0,2,2.354H8.027V9.512H2c-1.1,0-2,1.465-2,2.495ZM17.341,3.619,8.96,9.4v13.25l8.381,5.84c1.1,0,2.688-.836,2.688-1.867V5.486C20.029,4.455,18.445,3.619,17.341,3.619Z" transform="translate(0 -3.513)"/>
</svg>
