<svg xmlns="http://www.w3.org/2000/svg" viewBox="0 0 28.812 30.428">
  <defs>
    <style>
      .cls-1 {
        fill: #76706b;
      }
    </style>
  </defs>
  <path id="vote" class="cls-1" d="M.972,13.057A14.87,14.87,0,0,1,15.378,1.025,14.869,14.869,0,0,1,29.784,13.056H.972Zm15.6-6.567L15.427,4.16,14.253,6.49h-2.3L13.783,8.3l-.486,2.45,2.064-1.007,2.328.99-.717-2.349,1.9-1.9h-2.3ZM7.009,28.679a15.891,15.891,0,0,1-5.874-8.63H7.009ZM9,18.016H7.979V14.011H9Zm1.017-4.005h.954v4h-.954V14.011Zm0,4.959H9v-.954h1.017Zm3.925,12.483a13.926,13.926,0,0,1-4-1.037V20.049h4ZM13,18.97v-.954h1.017v.954Zm-1.017-.954V15.028H13v2.988ZM13,14.011h1.017v1.017H13Zm1.972,1.016v2.988h-.955V15.027h.955Zm4-1.016v1.017h-.954V18.97H17V15.028H15.988V14.011h2.988Zm2.017,16.334a13.838,13.838,0,0,1-4.005,1.087V20.049h4.005Zm-1-16.334h2.986v1.017H21.008v1.017h1.971v1.018H21.008v.954h1.971v.954H19.993v-4.96Zm3.986,14.54v-8.5H29.62a15.813,15.813,0,0,1-5.641,8.5Z" transform="translate(-0.972 -1.025)"/>
</svg>
