<svg xmlns="http://www.w3.org/2000/svg" viewBox="0 0 29 27">
  <defs>
    <style>
      .cls-1 {
        fill: #76706b;
      }
    </style>
  </defs>
  <path id="wallet" class="cls-1" d="M18,22a2,2,0,0,1-2-2V18a2,2,0,0,1,2-2H30v6Zm1.5-4.417a1.5,1.5,0,1,0,1.5,1.5A1.5,1.5,0,0,0,19.5,17.583ZM15,18v2a3,3,0,0,0,3,3H28v4a3,3,0,0,1-3,3H4a3,3,0,0,1-3-3V8A3,3,0,0,1,4,5h9.632l-2.349.979H3.5a1.5,1.5,0,0,0,0,3H28V15H18A3,3,0,0,0,15,18ZM5,11H3v2H4V12H5Zm0,3H3v2H4.042L4,15l1,.021Zm0,3H3v2H4.022L4,18H5Zm0,3H3v2H4.022L4,21l1,.021Zm0,3H3v2H4V24H5Zm0,3H3v2H4.022L4,27.021H5ZM9,7.938,20.751,3,23,7.938H9ZM22.646,5H25a2.983,2.983,0,0,1,2.2.979H23.124Z" transform="translate(-1 -3)"/>
</svg>
