<svg xmlns="http://www.w3.org/2000/svg" viewBox="0 0 27 30.938">
  <defs>
    <style>
      .cls-1 {
        fill: #76706b;
      }
    </style>
  </defs>
  <path id="watch2" class="cls-1" d="M28,18.031H27v7a3,3,0,0,1-3,3H20v3.938H9V28.031H5a3,3,0,0,1-3-3v-17a3,3,0,0,1,3-3H9v-4H20v4h4a3,3,0,0,1,3,3v7h1a1,1,0,0,1,1,1v1A1,1,0,0,1,28,18.031Zm-3-9a2,2,0,0,0-2-2H6a2,2,0,0,0-2,2v15a2,2,0,0,0,2,2H23a2,2,0,0,0,2-2Zm-4,8H19v-3h1v2h1v-2h1v5H21Zm-5,2H15v-5h3v5Zm1-4H16v3h1Zm-4,2h1v1H13Zm0-2h1v1H13Zm-3,4v-1h1v-1H10v-1h1v-1H10v-1h2v5Zm-3,0v-3H8v-1H7v-1H9v3H8v1H9v1Z" transform="translate(-2 -1.031)"/>
</svg>
