<svg xmlns="http://www.w3.org/2000/svg" viewBox="0 0 26.031 26.032">
  <defs>
    <style>
      .cls-1 {
        fill: #76706b;
      }
    </style>
  </defs>
  <path id="yingyang" class="cls-1" d="M16,2.984A13.016,13.016,0,1,0,29.016,16,13,13,0,0,0,16,2.984Zm-.046,5.205a1.688,1.688,0,1,1-1.688,1.688A1.687,1.687,0,0,1,15.954,8.189Zm.228,19.952a6.068,6.068,0,0,1-6.26-6.065,5.912,5.912,0,0,1,5.857-6.064s6.3-.31,6.3-6.083c0-3.47-2.1-5.567-6.085-6.083,7.173.4,12.148,5.373,12.148,12.147A12.173,12.173,0,0,1,16.182,28.141Zm-.167-7.827A1.688,1.688,0,1,0,17.7,22,1.688,1.688,0,0,0,16.015,20.314Z" transform="translate(-2.985 -2.984)"/>
</svg>
