<svg xmlns="http://www.w3.org/2000/svg" viewBox="0 0 29.19 29.86">
  <defs>
    <style>
      .cls-1 {
        fill: #76706b;
      }
    </style>
  </defs>
  <path id="zoomout" class="cls-1" d="M7.993,11.013h5.016v1H7.993Zm21.163,16.11L23.48,21.449a1.976,1.976,0,0,0-2.41-.283l-3.035-3.035a10.056,10.056,0,1,0-1.486,1.352l3.1,3.1A1.981,1.981,0,0,0,19.934,25l5.676,5.674a2.006,2.006,0,0,0,2.838,0l.709-.709a2.01,2.01,0,0,0,0-2.839ZM10.563,18.912a7.523,7.523,0,1,1,7.524-7.523A7.523,7.523,0,0,1,10.563,18.912Z" transform="translate(-0.553 -1.399)"/>
</svg>
