<svg xmlns="http://www.w3.org/2000/svg" viewBox="0 0 29.191 29.86">
  <defs>
    <style>
      .cls-1 {
        fill: #76706b;
      }
    </style>
  </defs>
  <path id="zoomin" class="cls-1" d="M29.156,29.961l-.709.709a2.006,2.006,0,0,1-2.838,0L19.933,25a1.98,1.98,0,0,1-.281-2.412l-3.1-3.1a10.058,10.058,0,1,1,1.486-1.352l3.035,3.035a1.976,1.976,0,0,1,2.41.283l5.676,5.674a2.008,2.008,0,0,1,0,2.839ZM18.088,11.389a7.524,7.524,0,1,0-7.525,7.523,7.524,7.524,0,0,0,7.525-7.523ZM11,13.959H10V12.016H7.993v-1H10V9.006h1v2.007h2.007v1H11Z" transform="translate(-0.552 -1.398)"/>
</svg>
